<mxfile host="app.diagrams.net" agent="Mozilla/5.0 (Windows NT 10.0; Win64; x64) AppleWebKit/537.36 (KHTML, like Gecko) Chrome/132.0.0.0 YaBrowser/25.2.0.0 Safari/537.36" version="26.2.10" pages="2">
  <diagram name="Страница — 1" id="elKbMvYr-rwb62aDMM5-">
    <mxGraphModel dx="1992" dy="1356" grid="1" gridSize="10" guides="1" tooltips="1" connect="1" arrows="1" fold="1" page="1" pageScale="1" pageWidth="3300" pageHeight="4681" math="0" shadow="0">
      <root>
        <mxCell id="0" />
        <mxCell id="1" parent="0" />
        <mxCell id="y-zoNaZJvGzwKs-KD9OO-1" value="Спортсмены" style="shape=umlActor;verticalLabelPosition=bottom;verticalAlign=top;html=1;" parent="1" vertex="1">
          <mxGeometry x="336.25" y="150" width="30" height="60" as="geometry" />
        </mxCell>
        <mxCell id="y-zoNaZJvGzwKs-KD9OO-2" value="&lt;div&gt;&lt;span style=&quot;background-color: transparent; color: light-dark(rgb(0, 0, 0), rgb(255, 255, 255));&quot;&gt;Управление учебно-тренировочным процессом в спортшколе&lt;/span&gt;&lt;/div&gt;" style="ellipse;whiteSpace=wrap;html=1;" parent="1" vertex="1">
          <mxGeometry x="417.75" y="250.75" width="174.5" height="64.5" as="geometry" />
        </mxCell>
        <mxCell id="y-zoNaZJvGzwKs-KD9OO-3" value="Тренеры" style="shape=umlActor;verticalLabelPosition=bottom;verticalAlign=top;html=1;" parent="1" vertex="1">
          <mxGeometry x="280" y="250.75" width="30" height="60" as="geometry" />
        </mxCell>
        <mxCell id="y-zoNaZJvGzwKs-KD9OO-4" value="Медицинские&lt;div&gt;&amp;nbsp;работники&amp;nbsp;&lt;/div&gt;&lt;div&gt;диспансера&lt;/div&gt;" style="shape=umlActor;verticalLabelPosition=bottom;verticalAlign=top;html=1;" parent="1" vertex="1">
          <mxGeometry x="630" y="330" width="30" height="60" as="geometry" />
        </mxCell>
        <mxCell id="y-zoNaZJvGzwKs-KD9OO-5" value="&amp;nbsp; &amp;nbsp; &amp;nbsp;Администрация&amp;nbsp;&lt;div&gt;&amp;nbsp; &amp;nbsp;спортшколы&lt;/div&gt;" style="shape=umlActor;verticalLabelPosition=bottom;verticalAlign=top;html=1;" parent="1" vertex="1">
          <mxGeometry x="630" y="150" width="30" height="60" as="geometry" />
        </mxCell>
        <mxCell id="y-zoNaZJvGzwKs-KD9OO-6" value="Организаторы&amp;nbsp;&lt;div&gt;соревнований&lt;/div&gt;" style="shape=umlActor;verticalLabelPosition=bottom;verticalAlign=top;html=1;" parent="1" vertex="1">
          <mxGeometry x="423.75" y="380" width="30" height="60" as="geometry" />
        </mxCell>
        <mxCell id="y-zoNaZJvGzwKs-KD9OO-7" value="Комитет по физической&lt;div&gt;&amp;nbsp;культуре и спорту&lt;/div&gt;" style="shape=umlActor;verticalLabelPosition=bottom;verticalAlign=top;html=1;" parent="1" vertex="1">
          <mxGeometry x="718.75" y="250.75" width="30" height="60" as="geometry" />
        </mxCell>
        <mxCell id="y-zoNaZJvGzwKs-KD9OO-13" value="Родители" style="shape=umlActor;verticalLabelPosition=bottom;verticalAlign=top;html=1;" parent="1" vertex="1">
          <mxGeometry x="490" y="100" width="30" height="60" as="geometry" />
        </mxCell>
        <mxCell id="y-zoNaZJvGzwKs-KD9OO-15" value="Медицинские&lt;div&gt;&amp;nbsp;работники&amp;nbsp;&lt;/div&gt;&lt;div&gt;спортшколы&lt;/div&gt;" style="shape=umlActor;verticalLabelPosition=bottom;verticalAlign=top;html=1;" parent="1" vertex="1">
          <mxGeometry x="536.25" y="370" width="30" height="60" as="geometry" />
        </mxCell>
        <mxCell id="y-zoNaZJvGzwKs-KD9OO-27" value="" style="endArrow=none;html=1;rounded=0;exitX=0.259;exitY=0.025;exitDx=0;exitDy=0;exitPerimeter=0;" parent="1" source="y-zoNaZJvGzwKs-KD9OO-2" target="y-zoNaZJvGzwKs-KD9OO-1" edge="1">
          <mxGeometry width="50" height="50" relative="1" as="geometry">
            <mxPoint x="471" y="236" as="sourcePoint" />
            <mxPoint x="450" y="200" as="targetPoint" />
          </mxGeometry>
        </mxCell>
        <mxCell id="y-zoNaZJvGzwKs-KD9OO-28" value="" style="endArrow=none;html=1;rounded=0;exitX=0.5;exitY=0;exitDx=0;exitDy=0;" parent="1" source="y-zoNaZJvGzwKs-KD9OO-2" edge="1">
          <mxGeometry width="50" height="50" relative="1" as="geometry">
            <mxPoint x="490" y="320" as="sourcePoint" />
            <mxPoint x="505" y="190" as="targetPoint" />
          </mxGeometry>
        </mxCell>
        <mxCell id="y-zoNaZJvGzwKs-KD9OO-29" value="" style="endArrow=none;html=1;rounded=0;exitX=0.738;exitY=0.019;exitDx=0;exitDy=0;exitPerimeter=0;" parent="1" source="y-zoNaZJvGzwKs-KD9OO-2" target="y-zoNaZJvGzwKs-KD9OO-5" edge="1">
          <mxGeometry width="50" height="50" relative="1" as="geometry">
            <mxPoint x="537" y="237" as="sourcePoint" />
            <mxPoint x="590" y="250" as="targetPoint" />
          </mxGeometry>
        </mxCell>
        <mxCell id="y-zoNaZJvGzwKs-KD9OO-33" value="" style="endArrow=none;html=1;rounded=0;" parent="1" target="y-zoNaZJvGzwKs-KD9OO-7" edge="1">
          <mxGeometry width="50" height="50" relative="1" as="geometry">
            <mxPoint x="592" y="280" as="sourcePoint" />
            <mxPoint x="696" y="280" as="targetPoint" />
          </mxGeometry>
        </mxCell>
        <mxCell id="y-zoNaZJvGzwKs-KD9OO-35" value="" style="endArrow=none;html=1;rounded=0;exitX=0.5;exitY=0;exitDx=0;exitDy=0;exitPerimeter=0;entryX=0.589;entryY=0.987;entryDx=0;entryDy=0;entryPerimeter=0;" parent="1" source="y-zoNaZJvGzwKs-KD9OO-15" target="y-zoNaZJvGzwKs-KD9OO-2" edge="1">
          <mxGeometry width="50" height="50" relative="1" as="geometry">
            <mxPoint x="490" y="320" as="sourcePoint" />
            <mxPoint x="530" y="340" as="targetPoint" />
          </mxGeometry>
        </mxCell>
        <mxCell id="y-zoNaZJvGzwKs-KD9OO-36" value="" style="endArrow=none;html=1;rounded=0;exitX=1;exitY=1;exitDx=0;exitDy=0;" parent="1" source="y-zoNaZJvGzwKs-KD9OO-2" target="y-zoNaZJvGzwKs-KD9OO-4" edge="1">
          <mxGeometry width="50" height="50" relative="1" as="geometry">
            <mxPoint x="490" y="320" as="sourcePoint" />
            <mxPoint x="620" y="340.22349290044383" as="targetPoint" />
          </mxGeometry>
        </mxCell>
        <mxCell id="y-zoNaZJvGzwKs-KD9OO-39" value="" style="endArrow=none;html=1;rounded=0;" parent="1" source="y-zoNaZJvGzwKs-KD9OO-3" edge="1">
          <mxGeometry width="50" height="50" relative="1" as="geometry">
            <mxPoint x="340" y="283" as="sourcePoint" />
            <mxPoint x="420" y="280" as="targetPoint" />
          </mxGeometry>
        </mxCell>
        <mxCell id="y-zoNaZJvGzwKs-KD9OO-41" value="1.1 Набор детей в спортшколу&amp;nbsp;" style="ellipse;whiteSpace=wrap;html=1;" parent="1" vertex="1">
          <mxGeometry x="254" y="700" width="150" height="60" as="geometry" />
        </mxCell>
        <mxCell id="y-zoNaZJvGzwKs-KD9OO-42" value="1.2 Организация медицинского обследования" style="ellipse;whiteSpace=wrap;html=1;" parent="1" vertex="1">
          <mxGeometry x="502.25" y="680" width="154" height="60" as="geometry" />
        </mxCell>
        <mxCell id="y-zoNaZJvGzwKs-KD9OO-43" value="1.3 Проведение тренировок" style="ellipse;whiteSpace=wrap;html=1;" parent="1" vertex="1">
          <mxGeometry x="728.5" y="680" width="140" height="60" as="geometry" />
        </mxCell>
        <mxCell id="y-zoNaZJvGzwKs-KD9OO-44" value="1.4 Участие в соревнованиях" style="ellipse;whiteSpace=wrap;html=1;" parent="1" vertex="1">
          <mxGeometry x="830" y="760" width="140" height="60" as="geometry" />
        </mxCell>
        <mxCell id="y-zoNaZJvGzwKs-KD9OO-45" value="1.5 Присвоение спортивных разрядов" style="ellipse;whiteSpace=wrap;html=1;" parent="1" vertex="1">
          <mxGeometry x="180" y="1070" width="150" height="60" as="geometry" />
        </mxCell>
        <mxCell id="y-zoNaZJvGzwKs-KD9OO-46" value="1.7 Проведение промежуточной аттестации" style="ellipse;whiteSpace=wrap;html=1;" parent="1" vertex="1">
          <mxGeometry x="420" y="1250" width="145" height="60" as="geometry" />
        </mxCell>
        <mxCell id="y-zoNaZJvGzwKs-KD9OO-47" value="1.8 Проведение тренировочных сборов" style="ellipse;whiteSpace=wrap;html=1;" parent="1" vertex="1">
          <mxGeometry x="618.75" y="1250" width="160" height="60" as="geometry" />
        </mxCell>
        <mxCell id="y-zoNaZJvGzwKs-KD9OO-48" value="1.9 Выпуск совершеннолетних спортсменов" style="ellipse;whiteSpace=wrap;html=1;" parent="1" vertex="1">
          <mxGeometry x="800" y="1160" width="155" height="60" as="geometry" />
        </mxCell>
        <mxCell id="y-zoNaZJvGzwKs-KD9OO-49" value="Родители" style="shape=umlActor;verticalLabelPosition=bottom;verticalAlign=top;html=1;" parent="1" vertex="1">
          <mxGeometry x="250" y="900" width="30" height="60" as="geometry" />
        </mxCell>
        <mxCell id="y-zoNaZJvGzwKs-KD9OO-50" value="&amp;nbsp; &amp;nbsp; &amp;nbsp;Администрация&amp;nbsp;&lt;div&gt;&amp;nbsp; &amp;nbsp;спортшколы&lt;/div&gt;" style="shape=umlActor;verticalLabelPosition=bottom;verticalAlign=top;html=1;" parent="1" vertex="1">
          <mxGeometry x="404" y="900" width="30" height="60" as="geometry" />
        </mxCell>
        <mxCell id="y-zoNaZJvGzwKs-KD9OO-51" value="Тренеры" style="shape=umlActor;verticalLabelPosition=bottom;verticalAlign=top;html=1;" parent="1" vertex="1">
          <mxGeometry x="564.25" y="900" width="30" height="60" as="geometry" />
        </mxCell>
        <mxCell id="y-zoNaZJvGzwKs-KD9OO-52" value="" style="endArrow=classic;html=1;rounded=0;entryX=0.5;entryY=1;entryDx=0;entryDy=0;endFill=1;" parent="1" source="y-zoNaZJvGzwKs-KD9OO-50" target="y-zoNaZJvGzwKs-KD9OO-41" edge="1">
          <mxGeometry width="50" height="50" relative="1" as="geometry">
            <mxPoint x="552.5" y="810" as="sourcePoint" />
            <mxPoint x="602.5" y="760" as="targetPoint" />
          </mxGeometry>
        </mxCell>
        <mxCell id="y-zoNaZJvGzwKs-KD9OO-53" value="" style="endArrow=none;html=1;rounded=0;" parent="1" target="y-zoNaZJvGzwKs-KD9OO-41" edge="1">
          <mxGeometry width="50" height="50" relative="1" as="geometry">
            <mxPoint x="550" y="910" as="sourcePoint" />
            <mxPoint x="602.5" y="760" as="targetPoint" />
          </mxGeometry>
        </mxCell>
        <mxCell id="y-zoNaZJvGzwKs-KD9OO-54" value="" style="endArrow=classic;html=1;rounded=0;entryX=0.336;entryY=1.014;entryDx=0;entryDy=0;entryPerimeter=0;exitX=0.5;exitY=0;exitDx=0;exitDy=0;exitPerimeter=0;endFill=1;" parent="1" source="y-zoNaZJvGzwKs-KD9OO-49" target="y-zoNaZJvGzwKs-KD9OO-41" edge="1">
          <mxGeometry width="50" height="50" relative="1" as="geometry">
            <mxPoint x="270" y="890" as="sourcePoint" />
            <mxPoint x="376.25" y="709" as="targetPoint" />
          </mxGeometry>
        </mxCell>
        <mxCell id="y-zoNaZJvGzwKs-KD9OO-55" value="Поступающие&amp;nbsp;&lt;div&gt;дети&lt;/div&gt;" style="shape=umlActor;verticalLabelPosition=bottom;verticalAlign=top;html=1;" parent="1" vertex="1">
          <mxGeometry x="270" y="570" width="30" height="60" as="geometry" />
        </mxCell>
        <mxCell id="y-zoNaZJvGzwKs-KD9OO-56" value="" style="endArrow=none;html=1;rounded=0;" parent="1" target="y-zoNaZJvGzwKs-KD9OO-41" edge="1">
          <mxGeometry width="50" height="50" relative="1" as="geometry">
            <mxPoint x="300" y="660" as="sourcePoint" />
            <mxPoint x="356.25" y="770" as="targetPoint" />
          </mxGeometry>
        </mxCell>
        <mxCell id="y-zoNaZJvGzwKs-KD9OO-57" value="Поступающие&amp;nbsp;&lt;div&gt;дети&lt;/div&gt;" style="shape=umlActor;verticalLabelPosition=bottom;verticalAlign=top;html=1;" parent="1" vertex="1">
          <mxGeometry x="336.25" y="330" width="30" height="60" as="geometry" />
        </mxCell>
        <mxCell id="y-zoNaZJvGzwKs-KD9OO-59" value="" style="endArrow=none;html=1;rounded=0;entryX=0.376;entryY=0.978;entryDx=0;entryDy=0;entryPerimeter=0;" parent="1" source="y-zoNaZJvGzwKs-KD9OO-6" target="y-zoNaZJvGzwKs-KD9OO-2" edge="1">
          <mxGeometry width="50" height="50" relative="1" as="geometry">
            <mxPoint x="490" y="340" as="sourcePoint" />
            <mxPoint x="540" y="290" as="targetPoint" />
          </mxGeometry>
        </mxCell>
        <mxCell id="y-zoNaZJvGzwKs-KD9OO-62" value="" style="endArrow=none;html=1;rounded=0;entryX=0;entryY=1;entryDx=0;entryDy=0;" parent="1" source="y-zoNaZJvGzwKs-KD9OO-57" target="y-zoNaZJvGzwKs-KD9OO-2" edge="1">
          <mxGeometry width="50" height="50" relative="1" as="geometry">
            <mxPoint x="470" y="340" as="sourcePoint" />
            <mxPoint x="520" y="290" as="targetPoint" />
          </mxGeometry>
        </mxCell>
        <mxCell id="y-zoNaZJvGzwKs-KD9OO-63" value="" style="endArrow=none;html=1;rounded=0;entryX=0.5;entryY=1;entryDx=0;entryDy=0;" parent="1" source="y-zoNaZJvGzwKs-KD9OO-51" target="y-zoNaZJvGzwKs-KD9OO-42" edge="1">
          <mxGeometry width="50" height="50" relative="1" as="geometry">
            <mxPoint x="560" y="860" as="sourcePoint" />
            <mxPoint x="610" y="810" as="targetPoint" />
          </mxGeometry>
        </mxCell>
        <mxCell id="y-zoNaZJvGzwKs-KD9OO-64" value="" style="endArrow=classic;html=1;rounded=0;exitX=0.75;exitY=0.1;exitDx=0;exitDy=0;exitPerimeter=0;entryX=0.297;entryY=0.954;entryDx=0;entryDy=0;entryPerimeter=0;endFill=1;" parent="1" source="y-zoNaZJvGzwKs-KD9OO-50" target="y-zoNaZJvGzwKs-KD9OO-42" edge="1">
          <mxGeometry width="50" height="50" relative="1" as="geometry">
            <mxPoint x="536.25" y="870" as="sourcePoint" />
            <mxPoint x="586.25" y="820" as="targetPoint" />
          </mxGeometry>
        </mxCell>
        <mxCell id="y-zoNaZJvGzwKs-KD9OO-65" value="Спортсмены" style="shape=umlActor;verticalLabelPosition=bottom;verticalAlign=top;html=1;" parent="1" vertex="1">
          <mxGeometry x="698.5" y="930" width="30" height="60" as="geometry" />
        </mxCell>
        <mxCell id="y-zoNaZJvGzwKs-KD9OO-66" value="" style="endArrow=none;html=1;rounded=0;entryX=0.636;entryY=1.052;entryDx=0;entryDy=0;entryPerimeter=0;" parent="1" source="y-zoNaZJvGzwKs-KD9OO-65" target="y-zoNaZJvGzwKs-KD9OO-42" edge="1">
          <mxGeometry width="50" height="50" relative="1" as="geometry">
            <mxPoint x="676.25" y="950" as="sourcePoint" />
            <mxPoint x="586.25" y="730" as="targetPoint" />
          </mxGeometry>
        </mxCell>
        <mxCell id="y-zoNaZJvGzwKs-KD9OO-70" value="Медицинские&lt;div&gt;&amp;nbsp;работники&amp;nbsp;&lt;/div&gt;&lt;div&gt;диспансера&lt;/div&gt;" style="shape=umlActor;verticalLabelPosition=bottom;verticalAlign=top;html=1;" parent="1" vertex="1">
          <mxGeometry x="447.75" y="570" width="30" height="60" as="geometry" />
        </mxCell>
        <mxCell id="y-zoNaZJvGzwKs-KD9OO-72" value="" style="endArrow=classic;html=1;rounded=0;entryX=0.313;entryY=1;entryDx=0;entryDy=0;entryPerimeter=0;endFill=1;" parent="1" source="y-zoNaZJvGzwKs-KD9OO-65" target="y-zoNaZJvGzwKs-KD9OO-43" edge="1">
          <mxGeometry width="50" height="50" relative="1" as="geometry">
            <mxPoint x="586.25" y="850" as="sourcePoint" />
            <mxPoint x="636.25" y="800" as="targetPoint" />
          </mxGeometry>
        </mxCell>
        <mxCell id="y-zoNaZJvGzwKs-KD9OO-73" value="" style="endArrow=none;html=1;rounded=0;exitX=0.359;exitY=-0.037;exitDx=0;exitDy=0;exitPerimeter=0;startArrow=classic;startFill=1;" parent="1" source="y-zoNaZJvGzwKs-KD9OO-42" target="y-zoNaZJvGzwKs-KD9OO-70" edge="1">
          <mxGeometry width="50" height="50" relative="1" as="geometry">
            <mxPoint x="586.25" y="800" as="sourcePoint" />
            <mxPoint x="636.25" y="750" as="targetPoint" />
          </mxGeometry>
        </mxCell>
        <mxCell id="y-zoNaZJvGzwKs-KD9OO-74" value="" style="endArrow=classic;html=1;rounded=0;entryX=0;entryY=1;entryDx=0;entryDy=0;endFill=1;" parent="1" source="y-zoNaZJvGzwKs-KD9OO-51" target="y-zoNaZJvGzwKs-KD9OO-43" edge="1">
          <mxGeometry width="50" height="50" relative="1" as="geometry">
            <mxPoint x="606.25" y="870" as="sourcePoint" />
            <mxPoint x="646.25" y="810" as="targetPoint" />
          </mxGeometry>
        </mxCell>
        <mxCell id="y-zoNaZJvGzwKs-KD9OO-75" value="&amp;nbsp; &amp;nbsp; &amp;nbsp;Медицинские&lt;div&gt;&amp;nbsp;работники&amp;nbsp;&lt;/div&gt;&lt;div&gt;&amp;nbsp; &amp;nbsp;спортшколы&lt;/div&gt;" style="shape=umlActor;verticalLabelPosition=bottom;verticalAlign=top;html=1;" parent="1" vertex="1">
          <mxGeometry x="808.75" y="900" width="30" height="60" as="geometry" />
        </mxCell>
        <mxCell id="y-zoNaZJvGzwKs-KD9OO-78" value="" style="endArrow=none;html=1;rounded=0;exitX=0.346;exitY=1.053;exitDx=0;exitDy=0;exitPerimeter=0;entryX=0.788;entryY=0.018;entryDx=0;entryDy=0;entryPerimeter=0;" parent="1" source="y-zoNaZJvGzwKs-KD9OO-44" target="y-zoNaZJvGzwKs-KD9OO-75" edge="1">
          <mxGeometry width="50" height="50" relative="1" as="geometry">
            <mxPoint x="900" y="850" as="sourcePoint" />
            <mxPoint x="966.25" y="712" as="targetPoint" />
          </mxGeometry>
        </mxCell>
        <mxCell id="y-zoNaZJvGzwKs-KD9OO-79" value="Организаторы&amp;nbsp;&lt;div&gt;соревнований&lt;/div&gt;" style="shape=umlActor;verticalLabelPosition=bottom;verticalAlign=top;html=1;" parent="1" vertex="1">
          <mxGeometry x="920" y="900" width="30" height="60" as="geometry" />
        </mxCell>
        <mxCell id="y-zoNaZJvGzwKs-KD9OO-80" value="" style="endArrow=classic;html=1;rounded=0;entryX=0.561;entryY=1.004;entryDx=0;entryDy=0;entryPerimeter=0;endFill=1;" parent="1" source="y-zoNaZJvGzwKs-KD9OO-79" target="y-zoNaZJvGzwKs-KD9OO-44" edge="1">
          <mxGeometry width="50" height="50" relative="1" as="geometry">
            <mxPoint x="586.25" y="900" as="sourcePoint" />
            <mxPoint x="636.25" y="850" as="targetPoint" />
          </mxGeometry>
        </mxCell>
        <mxCell id="y-zoNaZJvGzwKs-KD9OO-81" value="" style="endArrow=none;html=1;rounded=0;entryX=0.217;entryY=0.936;entryDx=0;entryDy=0;entryPerimeter=0;" parent="1" source="y-zoNaZJvGzwKs-KD9OO-65" target="y-zoNaZJvGzwKs-KD9OO-44" edge="1">
          <mxGeometry width="50" height="50" relative="1" as="geometry">
            <mxPoint x="586.25" y="890" as="sourcePoint" />
            <mxPoint x="636.25" y="840" as="targetPoint" />
          </mxGeometry>
        </mxCell>
        <mxCell id="y-zoNaZJvGzwKs-KD9OO-85" value="" style="endArrow=none;html=1;rounded=0;entryX=0.034;entryY=0.687;entryDx=0;entryDy=0;entryPerimeter=0;" parent="1" target="y-zoNaZJvGzwKs-KD9OO-44" edge="1">
          <mxGeometry width="50" height="50" relative="1" as="geometry">
            <mxPoint x="610" y="920" as="sourcePoint" />
            <mxPoint x="676.25" y="900" as="targetPoint" />
          </mxGeometry>
        </mxCell>
        <mxCell id="y-zoNaZJvGzwKs-KD9OO-86" value="" style="endArrow=none;html=1;rounded=0;entryX=0;entryY=1;entryDx=0;entryDy=0;" parent="1" source="y-zoNaZJvGzwKs-KD9OO-49" target="y-zoNaZJvGzwKs-KD9OO-42" edge="1">
          <mxGeometry width="50" height="50" relative="1" as="geometry">
            <mxPoint x="626.25" y="980" as="sourcePoint" />
            <mxPoint x="676.25" y="930" as="targetPoint" />
          </mxGeometry>
        </mxCell>
        <mxCell id="y-zoNaZJvGzwKs-KD9OO-87" value="Комитет по физической&lt;div&gt;&amp;nbsp;культуре и спорту&lt;/div&gt;" style="shape=umlActor;verticalLabelPosition=bottom;verticalAlign=top;html=1;" parent="1" vertex="1">
          <mxGeometry x="150" y="1150" width="30" height="60" as="geometry" />
        </mxCell>
        <mxCell id="y-zoNaZJvGzwKs-KD9OO-96" value="" style="endArrow=none;html=1;rounded=0;entryX=0.5;entryY=0;entryDx=0;entryDy=0;" parent="1" source="y-zoNaZJvGzwKs-KD9OO-50" target="y-zoNaZJvGzwKs-KD9OO-45" edge="1">
          <mxGeometry width="50" height="50" relative="1" as="geometry">
            <mxPoint x="410" y="1020" as="sourcePoint" />
            <mxPoint x="830" y="1180" as="targetPoint" />
          </mxGeometry>
        </mxCell>
        <mxCell id="y-zoNaZJvGzwKs-KD9OO-100" value="" style="endArrow=none;html=1;rounded=0;entryX=0.295;entryY=0.037;entryDx=0;entryDy=0;entryPerimeter=0;" parent="1" target="y-zoNaZJvGzwKs-KD9OO-46" edge="1">
          <mxGeometry width="50" height="50" relative="1" as="geometry">
            <mxPoint x="430" y="1000" as="sourcePoint" />
            <mxPoint x="540" y="1200" as="targetPoint" />
          </mxGeometry>
        </mxCell>
        <mxCell id="y-zoNaZJvGzwKs-KD9OO-101" value="" style="endArrow=none;html=1;rounded=0;exitX=0.557;exitY=-0.029;exitDx=0;exitDy=0;exitPerimeter=0;startArrow=classic;startFill=1;" parent="1" source="y-zoNaZJvGzwKs-KD9OO-46" edge="1">
          <mxGeometry width="50" height="50" relative="1" as="geometry">
            <mxPoint x="530" y="1180" as="sourcePoint" />
            <mxPoint x="570" y="990" as="targetPoint" />
          </mxGeometry>
        </mxCell>
        <mxCell id="y-zoNaZJvGzwKs-KD9OO-102" value="" style="endArrow=none;html=1;rounded=0;exitX=1;exitY=0;exitDx=0;exitDy=0;startArrow=classic;startFill=1;" parent="1" source="y-zoNaZJvGzwKs-KD9OO-46" edge="1">
          <mxGeometry width="50" height="50" relative="1" as="geometry">
            <mxPoint x="510" y="1227" as="sourcePoint" />
            <mxPoint x="700" y="1010" as="targetPoint" />
          </mxGeometry>
        </mxCell>
        <mxCell id="y-zoNaZJvGzwKs-KD9OO-103" value="" style="endArrow=none;html=1;rounded=0;exitX=0.5;exitY=0;exitDx=0;exitDy=0;" parent="1" source="y-zoNaZJvGzwKs-KD9OO-47" edge="1">
          <mxGeometry width="50" height="50" relative="1" as="geometry">
            <mxPoint x="710" y="1240" as="sourcePoint" />
            <mxPoint x="714" y="1020" as="targetPoint" />
          </mxGeometry>
        </mxCell>
        <mxCell id="y-zoNaZJvGzwKs-KD9OO-104" value="" style="endArrow=none;html=1;rounded=0;exitX=0.313;exitY=0;exitDx=0;exitDy=0;exitPerimeter=0;startArrow=classic;startFill=1;" parent="1" source="y-zoNaZJvGzwKs-KD9OO-47" edge="1">
          <mxGeometry width="50" height="50" relative="1" as="geometry">
            <mxPoint x="630" y="1120" as="sourcePoint" />
            <mxPoint x="590" y="990" as="targetPoint" />
          </mxGeometry>
        </mxCell>
        <mxCell id="y-zoNaZJvGzwKs-KD9OO-105" value="" style="endArrow=none;html=1;rounded=0;exitX=0.097;exitY=0.271;exitDx=0;exitDy=0;exitPerimeter=0;startArrow=classic;startFill=1;" parent="1" source="y-zoNaZJvGzwKs-KD9OO-47" edge="1">
          <mxGeometry width="50" height="50" relative="1" as="geometry">
            <mxPoint x="680" y="950" as="sourcePoint" />
            <mxPoint x="450" y="1000" as="targetPoint" />
          </mxGeometry>
        </mxCell>
        <mxCell id="y-zoNaZJvGzwKs-KD9OO-106" value="" style="endArrow=none;html=1;rounded=0;exitX=0.5;exitY=0;exitDx=0;exitDy=0;" parent="1" source="y-zoNaZJvGzwKs-KD9OO-48" edge="1">
          <mxGeometry width="50" height="50" relative="1" as="geometry">
            <mxPoint x="680" y="950" as="sourcePoint" />
            <mxPoint x="740" y="970" as="targetPoint" />
          </mxGeometry>
        </mxCell>
        <mxCell id="y-zoNaZJvGzwKs-KD9OO-114" value="" style="endArrow=classic;html=1;rounded=0;entryX=0;entryY=0.5;entryDx=0;entryDy=0;endFill=1;" parent="1" source="y-zoNaZJvGzwKs-KD9OO-50" target="y-zoNaZJvGzwKs-KD9OO-44" edge="1">
          <mxGeometry width="50" height="50" relative="1" as="geometry">
            <mxPoint x="570" y="980" as="sourcePoint" />
            <mxPoint x="850" y="780" as="targetPoint" />
          </mxGeometry>
        </mxCell>
        <mxCell id="y-zoNaZJvGzwKs-KD9OO-116" value="" style="endArrow=none;html=1;rounded=0;exitX=0;exitY=0;exitDx=0;exitDy=0;startArrow=classic;startFill=1;" parent="1" source="y-zoNaZJvGzwKs-KD9OO-48" edge="1">
          <mxGeometry width="50" height="50" relative="1" as="geometry">
            <mxPoint x="690" y="1110" as="sourcePoint" />
            <mxPoint x="600" y="940" as="targetPoint" />
          </mxGeometry>
        </mxCell>
        <mxCell id="y-zoNaZJvGzwKs-KD9OO-119" value="" style="endArrow=none;html=1;rounded=0;entryX=0.5;entryY=1;entryDx=0;entryDy=0;" parent="1" source="y-zoNaZJvGzwKs-KD9OO-75" target="y-zoNaZJvGzwKs-KD9OO-43" edge="1">
          <mxGeometry width="50" height="50" relative="1" as="geometry">
            <mxPoint x="610" y="920" as="sourcePoint" />
            <mxPoint x="660" y="870" as="targetPoint" />
          </mxGeometry>
        </mxCell>
        <mxCell id="y-zoNaZJvGzwKs-KD9OO-120" value="1.6 Отбор в сборную" style="ellipse;whiteSpace=wrap;html=1;" parent="1" vertex="1">
          <mxGeometry x="254" y="1200" width="130" height="60" as="geometry" />
        </mxCell>
        <mxCell id="y-zoNaZJvGzwKs-KD9OO-121" value="" style="endArrow=none;html=1;rounded=0;exitX=0.977;exitY=0.278;exitDx=0;exitDy=0;exitPerimeter=0;" parent="1" source="y-zoNaZJvGzwKs-KD9OO-45" edge="1">
          <mxGeometry width="50" height="50" relative="1" as="geometry">
            <mxPoint x="520" y="1030" as="sourcePoint" />
            <mxPoint x="560" y="940" as="targetPoint" />
          </mxGeometry>
        </mxCell>
        <mxCell id="y-zoNaZJvGzwKs-KD9OO-122" value="" style="endArrow=none;html=1;rounded=0;exitX=0.787;exitY=-0.007;exitDx=0;exitDy=0;exitPerimeter=0;entryX=0.099;entryY=0.8;entryDx=0;entryDy=0;entryPerimeter=0;" parent="1" source="y-zoNaZJvGzwKs-KD9OO-87" target="y-zoNaZJvGzwKs-KD9OO-45" edge="1">
          <mxGeometry width="50" height="50" relative="1" as="geometry">
            <mxPoint x="460" y="1190" as="sourcePoint" />
            <mxPoint x="510" y="1140" as="targetPoint" />
          </mxGeometry>
        </mxCell>
        <mxCell id="y-zoNaZJvGzwKs-KD9OO-123" value="" style="endArrow=none;html=1;rounded=0;startArrow=classic;startFill=1;" parent="1" source="y-zoNaZJvGzwKs-KD9OO-120" target="y-zoNaZJvGzwKs-KD9OO-87" edge="1">
          <mxGeometry width="50" height="50" relative="1" as="geometry">
            <mxPoint x="420" y="1170" as="sourcePoint" />
            <mxPoint x="470" y="1120" as="targetPoint" />
          </mxGeometry>
        </mxCell>
        <mxCell id="y-zoNaZJvGzwKs-KD9OO-124" value="" style="endArrow=none;html=1;rounded=0;" parent="1" source="y-zoNaZJvGzwKs-KD9OO-120" edge="1">
          <mxGeometry width="50" height="50" relative="1" as="geometry">
            <mxPoint x="550" y="1080" as="sourcePoint" />
            <mxPoint x="550" y="980" as="targetPoint" />
          </mxGeometry>
        </mxCell>
        <mxCell id="y-zoNaZJvGzwKs-KD9OO-125" value="" style="endArrow=none;html=1;rounded=0;exitX=0.5;exitY=0;exitDx=0;exitDy=0;startArrow=classic;startFill=1;" parent="1" source="y-zoNaZJvGzwKs-KD9OO-120" edge="1">
          <mxGeometry width="50" height="50" relative="1" as="geometry">
            <mxPoint x="550" y="1080" as="sourcePoint" />
            <mxPoint x="400" y="1000" as="targetPoint" />
          </mxGeometry>
        </mxCell>
        <mxCell id="y-zoNaZJvGzwKs-KD9OO-126" value="" style="endArrow=none;html=1;rounded=0;exitX=1;exitY=0;exitDx=0;exitDy=0;" parent="1" source="y-zoNaZJvGzwKs-KD9OO-120" target="y-zoNaZJvGzwKs-KD9OO-65" edge="1">
          <mxGeometry width="50" height="50" relative="1" as="geometry">
            <mxPoint x="550" y="1060" as="sourcePoint" />
            <mxPoint x="600" y="1010" as="targetPoint" />
          </mxGeometry>
        </mxCell>
        <mxCell id="y-zoNaZJvGzwKs-KD9OO-130" value="" style="endArrow=none;html=1;rounded=0;exitX=1;exitY=0.5;exitDx=0;exitDy=0;" parent="1" source="y-zoNaZJvGzwKs-KD9OO-45" edge="1">
          <mxGeometry width="50" height="50" relative="1" as="geometry">
            <mxPoint x="550" y="1000" as="sourcePoint" />
            <mxPoint x="700" y="960" as="targetPoint" />
          </mxGeometry>
        </mxCell>
        <mxCell id="y-zoNaZJvGzwKs-KD9OO-132" value="Поступающие&amp;nbsp;&lt;div&gt;дети&lt;/div&gt;" style="shape=umlActor;verticalLabelPosition=bottom;verticalAlign=top;html=1;" parent="1" vertex="1">
          <mxGeometry x="1153.5" y="1505" width="30" height="60" as="geometry" />
        </mxCell>
        <mxCell id="y-zoNaZJvGzwKs-KD9OO-133" value="Родители" style="shape=umlActor;verticalLabelPosition=bottom;verticalAlign=top;html=1;" parent="1" vertex="1">
          <mxGeometry x="718.75" y="1500" width="30" height="60" as="geometry" />
        </mxCell>
        <mxCell id="y-zoNaZJvGzwKs-KD9OO-134" value="&amp;nbsp; &amp;nbsp; &amp;nbsp;Администрация&amp;nbsp;&lt;div&gt;&amp;nbsp; &amp;nbsp;спортшколы&lt;/div&gt;" style="shape=umlActor;verticalLabelPosition=bottom;verticalAlign=top;html=1;" parent="1" vertex="1">
          <mxGeometry x="718.75" y="1820" width="30" height="60" as="geometry" />
        </mxCell>
        <mxCell id="y-zoNaZJvGzwKs-KD9OO-135" value="Тренеры" style="shape=umlActor;verticalLabelPosition=bottom;verticalAlign=top;html=1;" parent="1" vertex="1">
          <mxGeometry x="1153.5" y="1820" width="30" height="60" as="geometry" />
        </mxCell>
        <mxCell id="y-zoNaZJvGzwKs-KD9OO-136" value="1.1.1 Подача заявок на зачисление" style="ellipse;whiteSpace=wrap;html=1;" parent="1" vertex="1">
          <mxGeometry x="658.75" y="1680" width="151.25" height="60" as="geometry" />
        </mxCell>
        <mxCell id="y-zoNaZJvGzwKs-KD9OO-137" value="1.1.2 Проверка наличия свободных мест в группах" style="ellipse;whiteSpace=wrap;html=1;" parent="1" vertex="1">
          <mxGeometry x="387.75" y="1810" width="176" height="75" as="geometry" />
        </mxCell>
        <mxCell id="y-zoNaZJvGzwKs-KD9OO-138" value="1.1.3 Уведомление о проведении индивидуального отбора" style="ellipse;whiteSpace=wrap;html=1;" parent="1" vertex="1">
          <mxGeometry x="447.75" y="1657.5" width="165.25" height="82.5" as="geometry" />
        </mxCell>
        <mxCell id="y-zoNaZJvGzwKs-KD9OO-139" value="1.1.4 Проведение индивидуального отбора" style="ellipse;whiteSpace=wrap;html=1;" parent="1" vertex="1">
          <mxGeometry x="1098.5" y="1680" width="140" height="70" as="geometry" />
        </mxCell>
        <mxCell id="y-zoNaZJvGzwKs-KD9OO-140" value="1.1.5 Формирование списков групп" style="ellipse;whiteSpace=wrap;html=1;" parent="1" vertex="1">
          <mxGeometry x="890" y="1815" width="141.5" height="70" as="geometry" />
        </mxCell>
        <mxCell id="y-zoNaZJvGzwKs-KD9OO-142" value="1.1.6 Уведомление о зачислении" style="ellipse;whiteSpace=wrap;html=1;" parent="1" vertex="1">
          <mxGeometry x="885.75" y="1680" width="150" height="60" as="geometry" />
        </mxCell>
        <mxCell id="y-zoNaZJvGzwKs-KD9OO-143" value="" style="endArrow=none;html=1;rounded=0;" parent="1" edge="1">
          <mxGeometry width="50" height="50" relative="1" as="geometry">
            <mxPoint x="733.75" y="1590" as="sourcePoint" />
            <mxPoint x="733.75" y="1670" as="targetPoint" />
          </mxGeometry>
        </mxCell>
        <mxCell id="y-zoNaZJvGzwKs-KD9OO-144" value="" style="endArrow=none;html=1;rounded=0;entryX=1;entryY=0.5;entryDx=0;entryDy=0;" parent="1" source="y-zoNaZJvGzwKs-KD9OO-134" target="y-zoNaZJvGzwKs-KD9OO-137" edge="1">
          <mxGeometry width="50" height="50" relative="1" as="geometry">
            <mxPoint x="529.5" y="1860" as="sourcePoint" />
            <mxPoint x="593.75" y="1850" as="targetPoint" />
          </mxGeometry>
        </mxCell>
        <mxCell id="y-zoNaZJvGzwKs-KD9OO-146" value="" style="endArrow=none;html=1;rounded=0;" parent="1" source="y-zoNaZJvGzwKs-KD9OO-134" target="y-zoNaZJvGzwKs-KD9OO-138" edge="1">
          <mxGeometry width="50" height="50" relative="1" as="geometry">
            <mxPoint x="661.25" y="1770" as="sourcePoint" />
            <mxPoint x="579.5" y="1810" as="targetPoint" />
          </mxGeometry>
        </mxCell>
        <mxCell id="y-zoNaZJvGzwKs-KD9OO-147" value="" style="endArrow=none;html=1;rounded=0;entryX=1;entryY=0;entryDx=0;entryDy=0;" parent="1" source="y-zoNaZJvGzwKs-KD9OO-133" target="y-zoNaZJvGzwKs-KD9OO-138" edge="1">
          <mxGeometry width="50" height="50" relative="1" as="geometry">
            <mxPoint x="529.5" y="1860" as="sourcePoint" />
            <mxPoint x="399.5" y="1700" as="targetPoint" />
          </mxGeometry>
        </mxCell>
        <mxCell id="y-zoNaZJvGzwKs-KD9OO-148" value="" style="endArrow=none;html=1;rounded=0;exitX=0.5;exitY=0;exitDx=0;exitDy=0;" parent="1" source="y-zoNaZJvGzwKs-KD9OO-139" edge="1">
          <mxGeometry width="50" height="50" relative="1" as="geometry">
            <mxPoint x="1168.5" y="1660" as="sourcePoint" />
            <mxPoint x="1168.5" y="1610" as="targetPoint" />
          </mxGeometry>
        </mxCell>
        <mxCell id="y-zoNaZJvGzwKs-KD9OO-149" value="" style="endArrow=none;html=1;rounded=0;entryX=1;entryY=0.5;entryDx=0;entryDy=0;" parent="1" source="y-zoNaZJvGzwKs-KD9OO-135" target="y-zoNaZJvGzwKs-KD9OO-140" edge="1">
          <mxGeometry width="50" height="50" relative="1" as="geometry">
            <mxPoint x="1120" y="1850" as="sourcePoint" />
            <mxPoint x="1080.0000000000005" y="1860" as="targetPoint" />
          </mxGeometry>
        </mxCell>
        <mxCell id="y-zoNaZJvGzwKs-KD9OO-153" value="" style="endArrow=none;html=1;rounded=0;entryX=0;entryY=0.5;entryDx=0;entryDy=0;" parent="1" source="y-zoNaZJvGzwKs-KD9OO-134" target="y-zoNaZJvGzwKs-KD9OO-140" edge="1">
          <mxGeometry width="50" height="50" relative="1" as="geometry">
            <mxPoint x="990" y="1700" as="sourcePoint" />
            <mxPoint x="1040" y="1650" as="targetPoint" />
          </mxGeometry>
        </mxCell>
        <mxCell id="y-zoNaZJvGzwKs-KD9OO-157" value="" style="endArrow=none;html=1;rounded=0;entryX=0.104;entryY=0.181;entryDx=0;entryDy=0;entryPerimeter=0;" parent="1" source="y-zoNaZJvGzwKs-KD9OO-133" target="y-zoNaZJvGzwKs-KD9OO-142" edge="1">
          <mxGeometry width="50" height="50" relative="1" as="geometry">
            <mxPoint x="920" y="1800" as="sourcePoint" />
            <mxPoint x="880" y="1650" as="targetPoint" />
          </mxGeometry>
        </mxCell>
        <mxCell id="y-zoNaZJvGzwKs-KD9OO-158" value="" style="endArrow=none;html=1;rounded=0;entryX=0;entryY=1;entryDx=0;entryDy=0;" parent="1" source="y-zoNaZJvGzwKs-KD9OO-134" target="y-zoNaZJvGzwKs-KD9OO-142" edge="1">
          <mxGeometry width="50" height="50" relative="1" as="geometry">
            <mxPoint x="920" y="1800" as="sourcePoint" />
            <mxPoint x="970" y="1750" as="targetPoint" />
          </mxGeometry>
        </mxCell>
        <mxCell id="y-zoNaZJvGzwKs-KD9OO-159" value="" style="endArrow=none;html=1;rounded=0;entryX=0.5;entryY=1;entryDx=0;entryDy=0;" parent="1" source="y-zoNaZJvGzwKs-KD9OO-135" target="y-zoNaZJvGzwKs-KD9OO-139" edge="1">
          <mxGeometry width="50" height="50" relative="1" as="geometry">
            <mxPoint x="898.5" y="1780" as="sourcePoint" />
            <mxPoint x="1268.5" y="1810" as="targetPoint" />
          </mxGeometry>
        </mxCell>
        <mxCell id="y-zoNaZJvGzwKs-KD9OO-160" value="Уведомление об отсутствии свободных мест" style="ellipse;whiteSpace=wrap;html=1;fillColor=#fff2cc;strokeColor=#d6b656;" parent="1" vertex="1">
          <mxGeometry x="205" y="1661.25" width="120" height="75" as="geometry" />
        </mxCell>
        <mxCell id="y-zoNaZJvGzwKs-KD9OO-161" value="" style="endArrow=none;dashed=1;html=1;rounded=0;entryX=1;entryY=0.5;entryDx=0;entryDy=0;exitX=0;exitY=0.5;exitDx=0;exitDy=0;" parent="1" source="y-zoNaZJvGzwKs-KD9OO-138" target="y-zoNaZJvGzwKs-KD9OO-160" edge="1">
          <mxGeometry width="50" height="50" relative="1" as="geometry">
            <mxPoint x="743.75" y="1790" as="sourcePoint" />
            <mxPoint x="793.75" y="1740" as="targetPoint" />
          </mxGeometry>
        </mxCell>
        <mxCell id="y-zoNaZJvGzwKs-KD9OO-166" value="&lt;font style=&quot;font-size: 17px;&quot;&gt;extends&lt;/font&gt;" style="edgeLabel;html=1;align=center;verticalAlign=middle;resizable=0;points=[];" parent="y-zoNaZJvGzwKs-KD9OO-161" vertex="1" connectable="0">
          <mxGeometry x="-0.0103" y="2" relative="1" as="geometry">
            <mxPoint x="-1" as="offset" />
          </mxGeometry>
        </mxCell>
        <mxCell id="y-zoNaZJvGzwKs-KD9OO-162" value="" style="endArrow=none;dashed=1;html=1;rounded=0;exitX=0.583;exitY=-0.033;exitDx=0;exitDy=0;exitPerimeter=0;" parent="1" source="y-zoNaZJvGzwKs-KD9OO-160" target="y-zoNaZJvGzwKs-KD9OO-133" edge="1">
          <mxGeometry width="50" height="50" relative="1" as="geometry">
            <mxPoint x="343.75" y="1640" as="sourcePoint" />
            <mxPoint x="693.75" y="1630" as="targetPoint" />
          </mxGeometry>
        </mxCell>
        <mxCell id="y-zoNaZJvGzwKs-KD9OO-164" value="" style="endArrow=none;dashed=1;html=1;rounded=0;entryX=0.5;entryY=1;entryDx=0;entryDy=0;" parent="1" source="y-zoNaZJvGzwKs-KD9OO-134" target="y-zoNaZJvGzwKs-KD9OO-160" edge="1">
          <mxGeometry width="50" height="50" relative="1" as="geometry">
            <mxPoint x="633.75" y="1790" as="sourcePoint" />
            <mxPoint x="793.75" y="1740" as="targetPoint" />
          </mxGeometry>
        </mxCell>
        <mxCell id="y-zoNaZJvGzwKs-KD9OO-167" value="" style="endArrow=none;html=1;rounded=0;entryX=0.5;entryY=1;entryDx=0;entryDy=0;exitX=0.5;exitY=0;exitDx=0;exitDy=0;exitPerimeter=0;" parent="1" source="y-zoNaZJvGzwKs-KD9OO-134" target="y-zoNaZJvGzwKs-KD9OO-136" edge="1">
          <mxGeometry width="50" height="50" relative="1" as="geometry">
            <mxPoint x="743.75" y="1790" as="sourcePoint" />
            <mxPoint x="783.75" y="1770" as="targetPoint" />
          </mxGeometry>
        </mxCell>
        <mxCell id="y-zoNaZJvGzwKs-KD9OO-169" value="Отказ в зачислении" style="ellipse;whiteSpace=wrap;html=1;fillColor=#fff2cc;strokeColor=#d6b656;" parent="1" vertex="1">
          <mxGeometry x="896.5" y="1505" width="128.5" height="50" as="geometry" />
        </mxCell>
        <mxCell id="y-zoNaZJvGzwKs-KD9OO-170" value="" style="endArrow=none;dashed=1;html=1;rounded=0;exitX=0.5;exitY=0;exitDx=0;exitDy=0;entryX=0.5;entryY=1;entryDx=0;entryDy=0;" parent="1" source="y-zoNaZJvGzwKs-KD9OO-142" target="y-zoNaZJvGzwKs-KD9OO-169" edge="1">
          <mxGeometry width="50" height="50" relative="1" as="geometry">
            <mxPoint x="740" y="1720" as="sourcePoint" />
            <mxPoint x="790" y="1670" as="targetPoint" />
          </mxGeometry>
        </mxCell>
        <mxCell id="y-zoNaZJvGzwKs-KD9OO-171" value="&lt;font style=&quot;font-size: 17px;&quot;&gt;extends&lt;/font&gt;" style="edgeLabel;html=1;align=center;verticalAlign=middle;resizable=0;points=[];" parent="y-zoNaZJvGzwKs-KD9OO-170" vertex="1" connectable="0">
          <mxGeometry x="0.069" relative="1" as="geometry">
            <mxPoint as="offset" />
          </mxGeometry>
        </mxCell>
        <mxCell id="y-zoNaZJvGzwKs-KD9OO-172" value="" style="endArrow=none;dashed=1;html=1;rounded=0;entryX=0;entryY=0.5;entryDx=0;entryDy=0;" parent="1" source="y-zoNaZJvGzwKs-KD9OO-133" target="y-zoNaZJvGzwKs-KD9OO-169" edge="1">
          <mxGeometry width="50" height="50" relative="1" as="geometry">
            <mxPoint x="740" y="1710" as="sourcePoint" />
            <mxPoint x="790" y="1660" as="targetPoint" />
          </mxGeometry>
        </mxCell>
        <mxCell id="y-zoNaZJvGzwKs-KD9OO-174" value="" style="endArrow=none;dashed=1;html=1;rounded=0;entryX=0.32;entryY=0.967;entryDx=0;entryDy=0;entryPerimeter=0;" parent="1" target="y-zoNaZJvGzwKs-KD9OO-169" edge="1">
          <mxGeometry width="50" height="50" relative="1" as="geometry">
            <mxPoint x="741" y="1826" as="sourcePoint" />
            <mxPoint x="790" y="1660" as="targetPoint" />
          </mxGeometry>
        </mxCell>
        <mxCell id="y-zoNaZJvGzwKs-KD9OO-178" value="1.2.1 Согласование графика диспансеризации" style="ellipse;whiteSpace=wrap;html=1;" parent="1" vertex="1">
          <mxGeometry x="1456" y="1794.38" width="193" height="59" as="geometry" />
        </mxCell>
        <mxCell id="y-zoNaZJvGzwKs-KD9OO-179" value="Спортсмены" style="shape=umlActor;verticalLabelPosition=bottom;verticalAlign=top;html=1;" parent="1" vertex="1">
          <mxGeometry x="1966" y="1624.38" width="30" height="60" as="geometry" />
        </mxCell>
        <mxCell id="y-zoNaZJvGzwKs-KD9OO-180" value="&amp;nbsp; &amp;nbsp; &amp;nbsp;Администрация&amp;nbsp;&lt;div&gt;&amp;nbsp; &amp;nbsp;спортшколы&lt;/div&gt;" style="shape=umlActor;verticalLabelPosition=bottom;verticalAlign=top;html=1;" parent="1" vertex="1">
          <mxGeometry x="1537.5" y="1890" width="30" height="60" as="geometry" />
        </mxCell>
        <mxCell id="y-zoNaZJvGzwKs-KD9OO-182" value="Тренеры" style="shape=umlActor;verticalLabelPosition=bottom;verticalAlign=top;html=1;" parent="1" vertex="1">
          <mxGeometry x="1805.5" y="1890" width="30" height="60" as="geometry" />
        </mxCell>
        <mxCell id="y-zoNaZJvGzwKs-KD9OO-183" value="Родители" style="shape=umlActor;verticalLabelPosition=bottom;verticalAlign=top;html=1;" parent="1" vertex="1">
          <mxGeometry x="1976" y="1795.5" width="30" height="60" as="geometry" />
        </mxCell>
        <mxCell id="y-zoNaZJvGzwKs-KD9OO-184" value="Медицинские&lt;div&gt;&amp;nbsp;работники&amp;nbsp;&lt;/div&gt;&lt;div&gt;диспансера&lt;/div&gt;" style="shape=umlActor;verticalLabelPosition=bottom;verticalAlign=top;html=1;" parent="1" vertex="1">
          <mxGeometry x="1537.5" y="1624.38" width="30" height="60" as="geometry" />
        </mxCell>
        <mxCell id="y-zoNaZJvGzwKs-KD9OO-185" value="1.2.2 Уведомление о дате диспансеризации" style="ellipse;whiteSpace=wrap;html=1;" parent="1" vertex="1">
          <mxGeometry x="1734" y="1795.5" width="173" height="67" as="geometry" />
        </mxCell>
        <mxCell id="y-zoNaZJvGzwKs-KD9OO-186" value="1.2.3 Прохождение медицинского обследования" style="ellipse;whiteSpace=wrap;html=1;" parent="1" vertex="1">
          <mxGeometry x="1680" y="1680" width="155.5" height="70" as="geometry" />
        </mxCell>
        <mxCell id="y-zoNaZJvGzwKs-KD9OO-187" value="1.2.4 Получение допуска" style="ellipse;whiteSpace=wrap;html=1;" parent="1" vertex="1">
          <mxGeometry x="1691.25" y="1590" width="133" height="61" as="geometry" />
        </mxCell>
        <mxCell id="y-zoNaZJvGzwKs-KD9OO-188" value="" style="endArrow=none;html=1;rounded=0;entryX=0.5;entryY=1;entryDx=0;entryDy=0;" parent="1" source="y-zoNaZJvGzwKs-KD9OO-180" target="y-zoNaZJvGzwKs-KD9OO-178" edge="1">
          <mxGeometry width="50" height="50" relative="1" as="geometry">
            <mxPoint x="1355.5" y="1830.38" as="sourcePoint" />
            <mxPoint x="1405.5" y="1780.38" as="targetPoint" />
          </mxGeometry>
        </mxCell>
        <mxCell id="y-zoNaZJvGzwKs-KD9OO-189" value="" style="endArrow=none;html=1;rounded=0;exitX=0.5;exitY=0;exitDx=0;exitDy=0;" parent="1" source="y-zoNaZJvGzwKs-KD9OO-178" edge="1">
          <mxGeometry width="50" height="50" relative="1" as="geometry">
            <mxPoint x="1593.5" y="1804.38" as="sourcePoint" />
            <mxPoint x="1552.5" y="1734.38" as="targetPoint" />
          </mxGeometry>
        </mxCell>
        <mxCell id="y-zoNaZJvGzwKs-KD9OO-191" value="" style="endArrow=none;html=1;rounded=0;exitX=1;exitY=0.448;exitDx=0;exitDy=0;exitPerimeter=0;" parent="1" source="y-zoNaZJvGzwKs-KD9OO-185" target="y-zoNaZJvGzwKs-KD9OO-183" edge="1">
          <mxGeometry width="50" height="50" relative="1" as="geometry">
            <mxPoint x="1936" y="1810" as="sourcePoint" />
            <mxPoint x="1716" y="1800" as="targetPoint" />
          </mxGeometry>
        </mxCell>
        <mxCell id="y-zoNaZJvGzwKs-KD9OO-192" value="" style="endArrow=none;html=1;rounded=0;exitX=0.5;exitY=0;exitDx=0;exitDy=0;exitPerimeter=0;entryX=0.5;entryY=1;entryDx=0;entryDy=0;" parent="1" source="y-zoNaZJvGzwKs-KD9OO-182" target="y-zoNaZJvGzwKs-KD9OO-185" edge="1">
          <mxGeometry width="50" height="50" relative="1" as="geometry">
            <mxPoint x="1666" y="1850" as="sourcePoint" />
            <mxPoint x="1816" y="1870" as="targetPoint" />
          </mxGeometry>
        </mxCell>
        <mxCell id="y-zoNaZJvGzwKs-KD9OO-194" value="" style="endArrow=none;html=1;rounded=0;exitX=0.576;exitY=0.017;exitDx=0;exitDy=0;exitPerimeter=0;" parent="1" source="y-zoNaZJvGzwKs-KD9OO-185" target="y-zoNaZJvGzwKs-KD9OO-179" edge="1">
          <mxGeometry width="50" height="50" relative="1" as="geometry">
            <mxPoint x="1886" y="1770" as="sourcePoint" />
            <mxPoint x="1976" y="1680" as="targetPoint" />
          </mxGeometry>
        </mxCell>
        <mxCell id="y-zoNaZJvGzwKs-KD9OO-195" value="" style="endArrow=none;html=1;rounded=0;exitX=1;exitY=0.5;exitDx=0;exitDy=0;" parent="1" source="y-zoNaZJvGzwKs-KD9OO-187" target="y-zoNaZJvGzwKs-KD9OO-179" edge="1">
          <mxGeometry width="50" height="50" relative="1" as="geometry">
            <mxPoint x="1846" y="1660" as="sourcePoint" />
            <mxPoint x="1576" y="1770" as="targetPoint" />
          </mxGeometry>
        </mxCell>
        <mxCell id="y-zoNaZJvGzwKs-KD9OO-196" value="" style="endArrow=none;html=1;rounded=0;entryX=0;entryY=0.5;entryDx=0;entryDy=0;" parent="1" source="y-zoNaZJvGzwKs-KD9OO-184" target="y-zoNaZJvGzwKs-KD9OO-187" edge="1">
          <mxGeometry width="50" height="50" relative="1" as="geometry">
            <mxPoint x="1666" y="1800" as="sourcePoint" />
            <mxPoint x="1716" y="1750" as="targetPoint" />
          </mxGeometry>
        </mxCell>
        <mxCell id="y-zoNaZJvGzwKs-KD9OO-197" value="" style="endArrow=none;html=1;rounded=0;exitX=1;exitY=0.5;exitDx=0;exitDy=0;" parent="1" source="y-zoNaZJvGzwKs-KD9OO-186" target="y-zoNaZJvGzwKs-KD9OO-179" edge="1">
          <mxGeometry width="50" height="50" relative="1" as="geometry">
            <mxPoint x="1686" y="1760" as="sourcePoint" />
            <mxPoint x="1736" y="1710" as="targetPoint" />
          </mxGeometry>
        </mxCell>
        <mxCell id="y-zoNaZJvGzwKs-KD9OO-198" value="" style="endArrow=none;html=1;rounded=0;exitX=0;exitY=0.5;exitDx=0;exitDy=0;" parent="1" source="y-zoNaZJvGzwKs-KD9OO-186" target="y-zoNaZJvGzwKs-KD9OO-184" edge="1">
          <mxGeometry width="50" height="50" relative="1" as="geometry">
            <mxPoint x="1656" y="1700" as="sourcePoint" />
            <mxPoint x="1713.5" y="1704.38" as="targetPoint" />
          </mxGeometry>
        </mxCell>
        <mxCell id="y-zoNaZJvGzwKs-KD9OO-200" value="Постоянный отвод от тренировок" style="ellipse;whiteSpace=wrap;html=1;fillColor=#fff2cc;strokeColor=#d6b656;" parent="1" vertex="1">
          <mxGeometry x="1606" y="1480" width="120" height="60" as="geometry" />
        </mxCell>
        <mxCell id="y-zoNaZJvGzwKs-KD9OO-201" value="Временный отвод от тренировок" style="ellipse;whiteSpace=wrap;html=1;fillColor=#fff2cc;strokeColor=#d6b656;" parent="1" vertex="1">
          <mxGeometry x="1786" y="1480" width="130" height="60" as="geometry" />
        </mxCell>
        <mxCell id="y-zoNaZJvGzwKs-KD9OO-202" value="" style="endArrow=none;dashed=1;html=1;rounded=0;entryX=0.5;entryY=1;entryDx=0;entryDy=0;" parent="1" source="y-zoNaZJvGzwKs-KD9OO-187" target="y-zoNaZJvGzwKs-KD9OO-200" edge="1">
          <mxGeometry width="50" height="50" relative="1" as="geometry">
            <mxPoint x="1736" y="1720" as="sourcePoint" />
            <mxPoint x="1786" y="1670" as="targetPoint" />
          </mxGeometry>
        </mxCell>
        <mxCell id="y-zoNaZJvGzwKs-KD9OO-205" value="&lt;font style=&quot;font-size: 17px;&quot;&gt;extends&lt;/font&gt;" style="edgeLabel;html=1;align=center;verticalAlign=middle;resizable=0;points=[];" parent="y-zoNaZJvGzwKs-KD9OO-202" vertex="1" connectable="0">
          <mxGeometry x="0.0203" y="3" relative="1" as="geometry">
            <mxPoint as="offset" />
          </mxGeometry>
        </mxCell>
        <mxCell id="y-zoNaZJvGzwKs-KD9OO-204" value="" style="endArrow=none;dashed=1;html=1;rounded=0;entryX=0.5;entryY=1;entryDx=0;entryDy=0;exitX=0.768;exitY=0.031;exitDx=0;exitDy=0;exitPerimeter=0;" parent="1" source="y-zoNaZJvGzwKs-KD9OO-187" target="y-zoNaZJvGzwKs-KD9OO-201" edge="1">
          <mxGeometry width="50" height="50" relative="1" as="geometry">
            <mxPoint x="1736" y="1720" as="sourcePoint" />
            <mxPoint x="1786" y="1670" as="targetPoint" />
          </mxGeometry>
        </mxCell>
        <mxCell id="y-zoNaZJvGzwKs-KD9OO-206" value="&lt;font style=&quot;font-size: 17px;&quot;&gt;extends&lt;/font&gt;" style="edgeLabel;html=1;align=center;verticalAlign=middle;resizable=0;points=[];" parent="y-zoNaZJvGzwKs-KD9OO-204" vertex="1" connectable="0">
          <mxGeometry x="-0.053" relative="1" as="geometry">
            <mxPoint as="offset" />
          </mxGeometry>
        </mxCell>
        <mxCell id="y-zoNaZJvGzwKs-KD9OO-208" value="" style="endArrow=none;dashed=1;html=1;rounded=0;entryX=0;entryY=1;entryDx=0;entryDy=0;exitX=0.5;exitY=0;exitDx=0;exitDy=0;exitPerimeter=0;" parent="1" source="y-zoNaZJvGzwKs-KD9OO-184" target="y-zoNaZJvGzwKs-KD9OO-200" edge="1">
          <mxGeometry width="50" height="50" relative="1" as="geometry">
            <mxPoint x="1636" y="1800" as="sourcePoint" />
            <mxPoint x="1686" y="1750" as="targetPoint" />
          </mxGeometry>
        </mxCell>
        <mxCell id="y-zoNaZJvGzwKs-KD9OO-209" value="" style="endArrow=none;dashed=1;html=1;rounded=0;entryX=0;entryY=0.667;entryDx=0;entryDy=0;entryPerimeter=0;exitX=0.75;exitY=0.1;exitDx=0;exitDy=0;exitPerimeter=0;" parent="1" source="y-zoNaZJvGzwKs-KD9OO-184" target="y-zoNaZJvGzwKs-KD9OO-201" edge="1">
          <mxGeometry width="50" height="50" relative="1" as="geometry">
            <mxPoint x="1636" y="1800" as="sourcePoint" />
            <mxPoint x="1686" y="1750" as="targetPoint" />
          </mxGeometry>
        </mxCell>
        <mxCell id="y-zoNaZJvGzwKs-KD9OO-210" value="" style="endArrow=none;dashed=1;html=1;rounded=0;entryX=1;entryY=1;entryDx=0;entryDy=0;exitX=0.25;exitY=0.1;exitDx=0;exitDy=0;exitPerimeter=0;" parent="1" source="y-zoNaZJvGzwKs-KD9OO-179" target="y-zoNaZJvGzwKs-KD9OO-201" edge="1">
          <mxGeometry width="50" height="50" relative="1" as="geometry">
            <mxPoint x="1946" y="1660" as="sourcePoint" />
            <mxPoint x="2578.5264699835525" y="1540" as="targetPoint" />
          </mxGeometry>
        </mxCell>
        <mxCell id="y-zoNaZJvGzwKs-KD9OO-212" value="" style="endArrow=none;dashed=1;html=1;rounded=0;entryX=0.947;entryY=0.747;entryDx=0;entryDy=0;entryPerimeter=0;" parent="1" source="y-zoNaZJvGzwKs-KD9OO-179" target="y-zoNaZJvGzwKs-KD9OO-200" edge="1">
          <mxGeometry width="50" height="50" relative="1" as="geometry">
            <mxPoint x="1806" y="1710" as="sourcePoint" />
            <mxPoint x="1856" y="1660" as="targetPoint" />
          </mxGeometry>
        </mxCell>
        <mxCell id="y-zoNaZJvGzwKs-KD9OO-214" value="Тренеры" style="shape=umlActor;verticalLabelPosition=bottom;verticalAlign=top;html=1;" parent="1" vertex="1">
          <mxGeometry x="408.25" y="2296" width="30" height="60" as="geometry" />
        </mxCell>
        <mxCell id="y-zoNaZJvGzwKs-KD9OO-215" value="Спортсмены" style="shape=umlActor;verticalLabelPosition=bottom;verticalAlign=top;html=1;" parent="1" vertex="1">
          <mxGeometry x="811.5" y="2296" width="30" height="60" as="geometry" />
        </mxCell>
        <mxCell id="y-zoNaZJvGzwKs-KD9OO-216" value="&amp;nbsp; &amp;nbsp; &amp;nbsp;Медицинские&lt;div&gt;&amp;nbsp;работники&amp;nbsp;&lt;/div&gt;&lt;div&gt;&amp;nbsp; &amp;nbsp;спортшколы&lt;/div&gt;" style="shape=umlActor;verticalLabelPosition=bottom;verticalAlign=top;html=1;" parent="1" vertex="1">
          <mxGeometry x="906.5" y="2296" width="30" height="60" as="geometry" />
        </mxCell>
        <mxCell id="y-zoNaZJvGzwKs-KD9OO-217" value="1.3.1 Прибытие на тренировку" style="ellipse;whiteSpace=wrap;html=1;" parent="1" vertex="1">
          <mxGeometry x="554.75" y="2185" width="128" height="63" as="geometry" />
        </mxCell>
        <mxCell id="y-zoNaZJvGzwKs-KD9OO-218" value="1.3.2 Проведение разминки" style="ellipse;whiteSpace=wrap;html=1;" parent="1" vertex="1">
          <mxGeometry x="554.75" y="2265" width="127" height="64" as="geometry" />
        </mxCell>
        <mxCell id="y-zoNaZJvGzwKs-KD9OO-219" value="1.3.3 Выполнение элементов, упражнений" style="ellipse;whiteSpace=wrap;html=1;" parent="1" vertex="1">
          <mxGeometry x="536.25" y="2115" width="159" height="60" as="geometry" />
        </mxCell>
        <mxCell id="y-zoNaZJvGzwKs-KD9OO-220" value="1.3.4 Корректировка техники выполнения элементов" style="ellipse;whiteSpace=wrap;html=1;" parent="1" vertex="1">
          <mxGeometry x="537.75" y="2345" width="160" height="70" as="geometry" />
        </mxCell>
        <mxCell id="y-zoNaZJvGzwKs-KD9OO-221" value="1.3.5 Проведение подкачки и растяжки" style="ellipse;whiteSpace=wrap;html=1;" parent="1" vertex="1">
          <mxGeometry x="547.75" y="2426" width="142" height="69" as="geometry" />
        </mxCell>
        <mxCell id="y-zoNaZJvGzwKs-KD9OO-222" value="1.3.6 Отметка посещаемости" style="ellipse;whiteSpace=wrap;html=1;" parent="1" vertex="1">
          <mxGeometry x="358.75" y="2438.5" width="129" height="62" as="geometry" />
        </mxCell>
        <mxCell id="y-zoNaZJvGzwKs-KD9OO-223" value="" style="endArrow=none;html=1;rounded=0;entryX=0.009;entryY=0.66;entryDx=0;entryDy=0;entryPerimeter=0;" parent="1" source="y-zoNaZJvGzwKs-KD9OO-214" target="y-zoNaZJvGzwKs-KD9OO-217" edge="1">
          <mxGeometry width="50" height="50" relative="1" as="geometry">
            <mxPoint x="763.25" y="2423" as="sourcePoint" />
            <mxPoint x="813.25" y="2373" as="targetPoint" />
          </mxGeometry>
        </mxCell>
        <mxCell id="y-zoNaZJvGzwKs-KD9OO-224" value="" style="endArrow=none;html=1;rounded=0;entryX=1.027;entryY=0.635;entryDx=0;entryDy=0;entryPerimeter=0;" parent="1" source="y-zoNaZJvGzwKs-KD9OO-215" target="y-zoNaZJvGzwKs-KD9OO-217" edge="1">
          <mxGeometry width="50" height="50" relative="1" as="geometry">
            <mxPoint x="763.25" y="2423" as="sourcePoint" />
            <mxPoint x="813.25" y="2373" as="targetPoint" />
          </mxGeometry>
        </mxCell>
        <mxCell id="y-zoNaZJvGzwKs-KD9OO-225" value="" style="endArrow=none;html=1;rounded=0;exitX=0;exitY=0.5;exitDx=0;exitDy=0;" parent="1" source="y-zoNaZJvGzwKs-KD9OO-218" target="y-zoNaZJvGzwKs-KD9OO-214" edge="1">
          <mxGeometry width="50" height="50" relative="1" as="geometry">
            <mxPoint x="553.25" y="2401" as="sourcePoint" />
            <mxPoint x="813.25" y="2463" as="targetPoint" />
          </mxGeometry>
        </mxCell>
        <mxCell id="y-zoNaZJvGzwKs-KD9OO-226" value="" style="endArrow=none;html=1;rounded=0;exitX=1;exitY=0.5;exitDx=0;exitDy=0;" parent="1" source="y-zoNaZJvGzwKs-KD9OO-218" target="y-zoNaZJvGzwKs-KD9OO-215" edge="1">
          <mxGeometry width="50" height="50" relative="1" as="geometry">
            <mxPoint x="763.25" y="2513" as="sourcePoint" />
            <mxPoint x="813.25" y="2463" as="targetPoint" />
          </mxGeometry>
        </mxCell>
        <mxCell id="y-zoNaZJvGzwKs-KD9OO-227" value="" style="endArrow=none;html=1;rounded=0;entryX=1;entryY=1;entryDx=0;entryDy=0;exitX=0.25;exitY=0.1;exitDx=0;exitDy=0;exitPerimeter=0;" parent="1" source="y-zoNaZJvGzwKs-KD9OO-215" target="y-zoNaZJvGzwKs-KD9OO-219" edge="1">
          <mxGeometry width="50" height="50" relative="1" as="geometry">
            <mxPoint x="816.5" y="2295" as="sourcePoint" />
            <mxPoint x="813.25" y="2463" as="targetPoint" />
          </mxGeometry>
        </mxCell>
        <mxCell id="y-zoNaZJvGzwKs-KD9OO-228" value="Получение травмы" style="ellipse;whiteSpace=wrap;html=1;fillColor=#fff2cc;strokeColor=#d6b656;" parent="1" vertex="1">
          <mxGeometry x="811.5" y="2121.5" width="138.5" height="47" as="geometry" />
        </mxCell>
        <mxCell id="y-zoNaZJvGzwKs-KD9OO-229" value="" style="endArrow=none;html=1;rounded=0;exitX=0.93;exitY=0.219;exitDx=0;exitDy=0;exitPerimeter=0;" parent="1" source="y-zoNaZJvGzwKs-KD9OO-220" target="y-zoNaZJvGzwKs-KD9OO-215" edge="1">
          <mxGeometry width="50" height="50" relative="1" as="geometry">
            <mxPoint x="763.25" y="2532" as="sourcePoint" />
            <mxPoint x="800.25" y="2388" as="targetPoint" />
          </mxGeometry>
        </mxCell>
        <mxCell id="y-zoNaZJvGzwKs-KD9OO-230" value="" style="endArrow=none;html=1;rounded=0;exitX=0.097;exitY=0.206;exitDx=0;exitDy=0;exitPerimeter=0;" parent="1" source="y-zoNaZJvGzwKs-KD9OO-220" target="y-zoNaZJvGzwKs-KD9OO-214" edge="1">
          <mxGeometry width="50" height="50" relative="1" as="geometry">
            <mxPoint x="516.25" y="2418" as="sourcePoint" />
            <mxPoint x="441.25" y="2387" as="targetPoint" />
          </mxGeometry>
        </mxCell>
        <mxCell id="y-zoNaZJvGzwKs-KD9OO-232" value="" style="endArrow=none;html=1;rounded=0;exitX=0.5;exitY=0;exitDx=0;exitDy=0;" parent="1" source="y-zoNaZJvGzwKs-KD9OO-222" edge="1">
          <mxGeometry width="50" height="50" relative="1" as="geometry">
            <mxPoint x="614.25" y="2380" as="sourcePoint" />
            <mxPoint x="423.25" y="2386" as="targetPoint" />
          </mxGeometry>
        </mxCell>
        <mxCell id="y-zoNaZJvGzwKs-KD9OO-234" value="" style="endArrow=none;html=1;rounded=0;exitX=0.946;exitY=0.267;exitDx=0;exitDy=0;exitPerimeter=0;" parent="1" source="y-zoNaZJvGzwKs-KD9OO-221" edge="1">
          <mxGeometry width="50" height="50" relative="1" as="geometry">
            <mxPoint x="705.25" y="2455" as="sourcePoint" />
            <mxPoint x="805.25" y="2385" as="targetPoint" />
          </mxGeometry>
        </mxCell>
        <mxCell id="y-zoNaZJvGzwKs-KD9OO-235" value="" style="endArrow=none;html=1;rounded=0;exitX=0.064;exitY=0.242;exitDx=0;exitDy=0;exitPerimeter=0;" parent="1" source="y-zoNaZJvGzwKs-KD9OO-221" edge="1">
          <mxGeometry width="50" height="50" relative="1" as="geometry">
            <mxPoint x="615.25" y="2385" as="sourcePoint" />
            <mxPoint x="455.25" y="2365" as="targetPoint" />
          </mxGeometry>
        </mxCell>
        <mxCell id="y-zoNaZJvGzwKs-KD9OO-236" value="" style="endArrow=none;dashed=1;html=1;rounded=0;entryX=0;entryY=0.5;entryDx=0;entryDy=0;exitX=1;exitY=0.5;exitDx=0;exitDy=0;" parent="1" source="y-zoNaZJvGzwKs-KD9OO-219" target="y-zoNaZJvGzwKs-KD9OO-228" edge="1">
          <mxGeometry width="50" height="50" relative="1" as="geometry">
            <mxPoint x="646.5" y="2325" as="sourcePoint" />
            <mxPoint x="696.5" y="2275" as="targetPoint" />
          </mxGeometry>
        </mxCell>
        <mxCell id="y-zoNaZJvGzwKs-KD9OO-239" value="&lt;font style=&quot;font-size: 17px;&quot;&gt;extends&lt;/font&gt;" style="edgeLabel;html=1;align=center;verticalAlign=middle;resizable=0;points=[];" parent="y-zoNaZJvGzwKs-KD9OO-236" vertex="1" connectable="0">
          <mxGeometry x="0.0591" y="-1" relative="1" as="geometry">
            <mxPoint as="offset" />
          </mxGeometry>
        </mxCell>
        <mxCell id="y-zoNaZJvGzwKs-KD9OO-237" value="" style="endArrow=none;dashed=1;html=1;rounded=0;entryX=0.693;entryY=0.996;entryDx=0;entryDy=0;entryPerimeter=0;exitX=0.5;exitY=0;exitDx=0;exitDy=0;exitPerimeter=0;" parent="1" source="y-zoNaZJvGzwKs-KD9OO-216" target="y-zoNaZJvGzwKs-KD9OO-228" edge="1">
          <mxGeometry width="50" height="50" relative="1" as="geometry">
            <mxPoint x="646.5" y="2325" as="sourcePoint" />
            <mxPoint x="696.5" y="2275" as="targetPoint" />
          </mxGeometry>
        </mxCell>
        <mxCell id="y-zoNaZJvGzwKs-KD9OO-238" value="" style="endArrow=none;dashed=1;html=1;rounded=0;entryX=0.361;entryY=0.926;entryDx=0;entryDy=0;entryPerimeter=0;exitX=0.5;exitY=0;exitDx=0;exitDy=0;exitPerimeter=0;" parent="1" source="y-zoNaZJvGzwKs-KD9OO-215" target="y-zoNaZJvGzwKs-KD9OO-228" edge="1">
          <mxGeometry width="50" height="50" relative="1" as="geometry">
            <mxPoint x="646.5" y="2325" as="sourcePoint" />
            <mxPoint x="696.5" y="2275" as="targetPoint" />
          </mxGeometry>
        </mxCell>
        <mxCell id="GtyvLnqHbMBnXzFNtUdm-1" value="Тренеры" style="shape=umlActor;verticalLabelPosition=bottom;verticalAlign=top;html=1;" parent="1" vertex="1">
          <mxGeometry x="1696" y="2200" width="30" height="60" as="geometry" />
        </mxCell>
        <mxCell id="GtyvLnqHbMBnXzFNtUdm-2" value="Спортсмены" style="shape=umlActor;verticalLabelPosition=bottom;verticalAlign=top;html=1;" parent="1" vertex="1">
          <mxGeometry x="1696" y="2110" width="30" height="60" as="geometry" />
        </mxCell>
        <mxCell id="GtyvLnqHbMBnXzFNtUdm-3" value="&amp;nbsp; &amp;nbsp; &amp;nbsp;Администрация&amp;nbsp;&lt;div&gt;&amp;nbsp; &amp;nbsp;спортшколы&lt;/div&gt;" style="shape=umlActor;verticalLabelPosition=bottom;verticalAlign=top;html=1;" parent="1" vertex="1">
          <mxGeometry x="1696" y="2290" width="30" height="60" as="geometry" />
        </mxCell>
        <mxCell id="GtyvLnqHbMBnXzFNtUdm-4" value="Комитет по физической&lt;div&gt;&amp;nbsp;культуре и спорту&lt;/div&gt;" style="shape=umlActor;verticalLabelPosition=bottom;verticalAlign=top;html=1;" parent="1" vertex="1">
          <mxGeometry x="1966" y="2281" width="30" height="60" as="geometry" />
        </mxCell>
        <mxCell id="GtyvLnqHbMBnXzFNtUdm-5" value="1.5.1 Подготовка заявок" style="ellipse;whiteSpace=wrap;html=1;" parent="1" vertex="1">
          <mxGeometry x="1495.5" y="2150" width="114" height="60" as="geometry" />
        </mxCell>
        <mxCell id="GtyvLnqHbMBnXzFNtUdm-6" value="1.5.2 Проверка заявок" style="ellipse;whiteSpace=wrap;html=1;" parent="1" vertex="1">
          <mxGeometry x="1462" y="2330" width="112" height="60" as="geometry" />
        </mxCell>
        <mxCell id="GtyvLnqHbMBnXzFNtUdm-7" value="1.5.3 Передача заявок в комитет" style="ellipse;whiteSpace=wrap;html=1;" parent="1" vertex="1">
          <mxGeometry x="1770" y="2410" width="123" height="60" as="geometry" />
        </mxCell>
        <mxCell id="GtyvLnqHbMBnXzFNtUdm-8" value="1.5.4 Утверждение разрядов" style="ellipse;whiteSpace=wrap;html=1;" parent="1" vertex="1">
          <mxGeometry x="1794" y="2281" width="114" height="60" as="geometry" />
        </mxCell>
        <mxCell id="GtyvLnqHbMBnXzFNtUdm-9" value="1.5.5 Внесение данных о разрядах в зачетки" style="ellipse;whiteSpace=wrap;html=1;" parent="1" vertex="1">
          <mxGeometry x="1537.5" y="2410" width="126" height="60" as="geometry" />
        </mxCell>
        <mxCell id="GtyvLnqHbMBnXzFNtUdm-10" value="" style="endArrow=none;html=1;rounded=0;entryX=1;entryY=1;entryDx=0;entryDy=0;" parent="1" source="GtyvLnqHbMBnXzFNtUdm-1" target="GtyvLnqHbMBnXzFNtUdm-5" edge="1">
          <mxGeometry width="50" height="50" relative="1" as="geometry">
            <mxPoint x="1780" y="2370" as="sourcePoint" />
            <mxPoint x="1830" y="2320" as="targetPoint" />
          </mxGeometry>
        </mxCell>
        <mxCell id="GtyvLnqHbMBnXzFNtUdm-11" value="" style="endArrow=none;html=1;rounded=0;exitX=1;exitY=0.5;exitDx=0;exitDy=0;" parent="1" source="GtyvLnqHbMBnXzFNtUdm-6" target="GtyvLnqHbMBnXzFNtUdm-3" edge="1">
          <mxGeometry width="50" height="50" relative="1" as="geometry">
            <mxPoint x="1640" y="2320" as="sourcePoint" />
            <mxPoint x="1790" y="2360" as="targetPoint" />
          </mxGeometry>
        </mxCell>
        <mxCell id="GtyvLnqHbMBnXzFNtUdm-12" value="" style="endArrow=none;html=1;rounded=0;entryX=0.5;entryY=0;entryDx=0;entryDy=0;" parent="1" source="GtyvLnqHbMBnXzFNtUdm-3" target="GtyvLnqHbMBnXzFNtUdm-9" edge="1">
          <mxGeometry width="50" height="50" relative="1" as="geometry">
            <mxPoint x="1740" y="2410" as="sourcePoint" />
            <mxPoint x="1800" y="2320" as="targetPoint" />
          </mxGeometry>
        </mxCell>
        <mxCell id="GtyvLnqHbMBnXzFNtUdm-15" value="" style="endArrow=none;html=1;rounded=0;exitX=1;exitY=0;exitDx=0;exitDy=0;" parent="1" source="GtyvLnqHbMBnXzFNtUdm-5" target="GtyvLnqHbMBnXzFNtUdm-2" edge="1">
          <mxGeometry width="50" height="50" relative="1" as="geometry">
            <mxPoint x="1590" y="2180" as="sourcePoint" />
            <mxPoint x="1920" y="2280" as="targetPoint" />
          </mxGeometry>
        </mxCell>
        <mxCell id="GtyvLnqHbMBnXzFNtUdm-16" value="" style="endArrow=none;html=1;rounded=0;exitX=0.359;exitY=-0.016;exitDx=0;exitDy=0;exitPerimeter=0;" parent="1" source="GtyvLnqHbMBnXzFNtUdm-7" edge="1">
          <mxGeometry width="50" height="50" relative="1" as="geometry">
            <mxPoint x="1870" y="2330" as="sourcePoint" />
            <mxPoint x="1730" y="2320" as="targetPoint" />
          </mxGeometry>
        </mxCell>
        <mxCell id="GtyvLnqHbMBnXzFNtUdm-20" value="Обнаружение ошибки в заявке" style="ellipse;whiteSpace=wrap;html=1;fillColor=#fff2cc;strokeColor=#d6b656;" parent="1" vertex="1">
          <mxGeometry x="1458" y="2232" width="120" height="49" as="geometry" />
        </mxCell>
        <mxCell id="GtyvLnqHbMBnXzFNtUdm-21" value="Отказ в утверждении заявок" style="ellipse;whiteSpace=wrap;html=1;fillColor=#fff2cc;strokeColor=#d6b656;" parent="1" vertex="1">
          <mxGeometry x="1798.25" y="2120" width="105.5" height="50" as="geometry" />
        </mxCell>
        <mxCell id="GtyvLnqHbMBnXzFNtUdm-23" value="" style="endArrow=none;html=1;rounded=0;" parent="1" source="GtyvLnqHbMBnXzFNtUdm-7" edge="1">
          <mxGeometry width="50" height="50" relative="1" as="geometry">
            <mxPoint x="1670" y="2330" as="sourcePoint" />
            <mxPoint x="1920" y="2370" as="targetPoint" />
          </mxGeometry>
        </mxCell>
        <mxCell id="GtyvLnqHbMBnXzFNtUdm-24" value="" style="endArrow=none;html=1;rounded=0;exitX=1;exitY=0.5;exitDx=0;exitDy=0;" parent="1" source="GtyvLnqHbMBnXzFNtUdm-8" target="GtyvLnqHbMBnXzFNtUdm-4" edge="1">
          <mxGeometry width="50" height="50" relative="1" as="geometry">
            <mxPoint x="1910" y="2300" as="sourcePoint" />
            <mxPoint x="1720" y="2280" as="targetPoint" />
          </mxGeometry>
        </mxCell>
        <mxCell id="GtyvLnqHbMBnXzFNtUdm-26" value="" style="endArrow=none;dashed=1;html=1;rounded=0;exitX=0.5;exitY=0;exitDx=0;exitDy=0;entryX=0.5;entryY=1;entryDx=0;entryDy=0;" parent="1" source="GtyvLnqHbMBnXzFNtUdm-8" target="GtyvLnqHbMBnXzFNtUdm-21" edge="1">
          <mxGeometry width="50" height="50" relative="1" as="geometry">
            <mxPoint x="1810" y="2220" as="sourcePoint" />
            <mxPoint x="1860" y="2170" as="targetPoint" />
          </mxGeometry>
        </mxCell>
        <mxCell id="GtyvLnqHbMBnXzFNtUdm-37" value="&lt;font style=&quot;font-size: 13px;&quot;&gt;extends&lt;/font&gt;" style="edgeLabel;html=1;align=center;verticalAlign=middle;resizable=0;points=[];" parent="GtyvLnqHbMBnXzFNtUdm-26" vertex="1" connectable="0">
          <mxGeometry x="-0.1291" relative="1" as="geometry">
            <mxPoint as="offset" />
          </mxGeometry>
        </mxCell>
        <mxCell id="GtyvLnqHbMBnXzFNtUdm-28" value="" style="endArrow=none;dashed=1;html=1;rounded=0;entryX=0.229;entryY=0.883;entryDx=0;entryDy=0;entryPerimeter=0;" parent="1" target="GtyvLnqHbMBnXzFNtUdm-21" edge="1">
          <mxGeometry width="50" height="50" relative="1" as="geometry">
            <mxPoint x="1732.75" y="2300" as="sourcePoint" />
            <mxPoint x="1782.75" y="2250" as="targetPoint" />
          </mxGeometry>
        </mxCell>
        <mxCell id="GtyvLnqHbMBnXzFNtUdm-29" value="" style="endArrow=none;dashed=1;html=1;rounded=0;entryX=0.804;entryY=0.883;entryDx=0;entryDy=0;entryPerimeter=0;" parent="1" source="GtyvLnqHbMBnXzFNtUdm-4" target="GtyvLnqHbMBnXzFNtUdm-21" edge="1">
          <mxGeometry width="50" height="50" relative="1" as="geometry">
            <mxPoint x="1670" y="2330" as="sourcePoint" />
            <mxPoint x="1720" y="2280" as="targetPoint" />
          </mxGeometry>
        </mxCell>
        <mxCell id="GtyvLnqHbMBnXzFNtUdm-31" value="" style="endArrow=none;html=1;rounded=0;entryX=0;entryY=0.5;entryDx=0;entryDy=0;" parent="1" target="GtyvLnqHbMBnXzFNtUdm-8" edge="1">
          <mxGeometry width="50" height="50" relative="1" as="geometry">
            <mxPoint x="1730" y="2310" as="sourcePoint" />
            <mxPoint x="1720" y="2280" as="targetPoint" />
          </mxGeometry>
        </mxCell>
        <mxCell id="GtyvLnqHbMBnXzFNtUdm-33" value="" style="endArrow=none;dashed=1;html=1;rounded=0;exitX=0.5;exitY=0;exitDx=0;exitDy=0;entryX=0.5;entryY=1;entryDx=0;entryDy=0;" parent="1" source="GtyvLnqHbMBnXzFNtUdm-6" target="GtyvLnqHbMBnXzFNtUdm-20" edge="1">
          <mxGeometry width="50" height="50" relative="1" as="geometry">
            <mxPoint x="1740" y="2270" as="sourcePoint" />
            <mxPoint x="1790" y="2220" as="targetPoint" />
          </mxGeometry>
        </mxCell>
        <mxCell id="GtyvLnqHbMBnXzFNtUdm-36" value="&lt;font style=&quot;font-size: 13px;&quot;&gt;extends&lt;/font&gt;" style="edgeLabel;html=1;align=center;verticalAlign=middle;resizable=0;points=[];" parent="GtyvLnqHbMBnXzFNtUdm-33" vertex="1" connectable="0">
          <mxGeometry x="0.1957" y="-1" relative="1" as="geometry">
            <mxPoint as="offset" />
          </mxGeometry>
        </mxCell>
        <mxCell id="GtyvLnqHbMBnXzFNtUdm-34" value="" style="endArrow=none;dashed=1;html=1;rounded=0;entryX=0.931;entryY=0.813;entryDx=0;entryDy=0;entryPerimeter=0;" parent="1" target="GtyvLnqHbMBnXzFNtUdm-20" edge="1">
          <mxGeometry width="50" height="50" relative="1" as="geometry">
            <mxPoint x="1690" y="2310" as="sourcePoint" />
            <mxPoint x="1790" y="2220" as="targetPoint" />
          </mxGeometry>
        </mxCell>
        <mxCell id="GtyvLnqHbMBnXzFNtUdm-35" value="" style="endArrow=none;dashed=1;html=1;rounded=0;exitX=1;exitY=0;exitDx=0;exitDy=0;" parent="1" source="GtyvLnqHbMBnXzFNtUdm-20" edge="1">
          <mxGeometry width="50" height="50" relative="1" as="geometry">
            <mxPoint x="1740" y="2270" as="sourcePoint" />
            <mxPoint x="1690" y="2240" as="targetPoint" />
          </mxGeometry>
        </mxCell>
        <mxCell id="AmgyhVJ9fYsk1LewkEg5-1" value="" style="endArrow=classic;html=1;rounded=0;entryX=0.011;entryY=0.336;entryDx=0;entryDy=0;entryPerimeter=0;endFill=1;" edge="1" parent="1" target="y-zoNaZJvGzwKs-KD9OO-48">
          <mxGeometry width="50" height="50" relative="1" as="geometry">
            <mxPoint x="460" y="950" as="sourcePoint" />
            <mxPoint x="640" y="1010" as="targetPoint" />
          </mxGeometry>
        </mxCell>
        <mxCell id="AmgyhVJ9fYsk1LewkEg5-2" value="Поступающие&amp;nbsp;&lt;div&gt;дети&lt;/div&gt;" style="shape=umlActor;verticalLabelPosition=bottom;verticalAlign=top;html=1;" vertex="1" parent="1">
          <mxGeometry x="487.75" y="2680" width="30" height="60" as="geometry" />
        </mxCell>
        <mxCell id="AmgyhVJ9fYsk1LewkEg5-3" value="Родители" style="shape=umlActor;verticalLabelPosition=bottom;verticalAlign=top;html=1;" vertex="1" parent="1">
          <mxGeometry x="868.5" y="2690" width="30" height="60" as="geometry" />
        </mxCell>
        <mxCell id="AmgyhVJ9fYsk1LewkEg5-4" value="&amp;nbsp; &amp;nbsp; &amp;nbsp;Администрация&amp;nbsp;&lt;div&gt;&amp;nbsp; &amp;nbsp;спортшколы&lt;/div&gt;" style="shape=umlActor;verticalLabelPosition=bottom;verticalAlign=top;html=1;" vertex="1" parent="1">
          <mxGeometry x="683.75" y="2860" width="30" height="60" as="geometry" />
        </mxCell>
        <mxCell id="AmgyhVJ9fYsk1LewkEg5-6" value="1.1.1.1 Публикация информации о начале набора" style="ellipse;whiteSpace=wrap;html=1;" vertex="1" parent="1">
          <mxGeometry x="475.63" y="2850" width="151.25" height="60" as="geometry" />
        </mxCell>
        <mxCell id="AmgyhVJ9fYsk1LewkEg5-8" value="1.1.1.2 Получение информации о наборе из объявлений" style="ellipse;whiteSpace=wrap;html=1;" vertex="1" parent="1">
          <mxGeometry x="621.13" y="2770" width="155.25" height="62.5" as="geometry" />
        </mxCell>
        <mxCell id="AmgyhVJ9fYsk1LewkEg5-15" value="" style="endArrow=none;html=1;rounded=0;entryX=0.948;entryY=0.318;entryDx=0;entryDy=0;entryPerimeter=0;" edge="1" parent="1" source="AmgyhVJ9fYsk1LewkEg5-3" target="AmgyhVJ9fYsk1LewkEg5-8">
          <mxGeometry width="50" height="50" relative="1" as="geometry">
            <mxPoint x="506.5" y="3040" as="sourcePoint" />
            <mxPoint x="376.5" y="2880" as="targetPoint" />
          </mxGeometry>
        </mxCell>
        <mxCell id="AmgyhVJ9fYsk1LewkEg5-16" value="" style="endArrow=none;html=1;rounded=0;entryX=0.033;entryY=0.288;entryDx=0;entryDy=0;entryPerimeter=0;" edge="1" parent="1" target="AmgyhVJ9fYsk1LewkEg5-8">
          <mxGeometry width="50" height="50" relative="1" as="geometry">
            <mxPoint x="530" y="2730" as="sourcePoint" />
            <mxPoint x="502.75" y="3105" as="targetPoint" />
          </mxGeometry>
        </mxCell>
        <mxCell id="AmgyhVJ9fYsk1LewkEg5-19" value="" style="endArrow=none;html=1;rounded=0;entryX=1;entryY=0.5;entryDx=0;entryDy=0;exitX=0.5;exitY=0;exitDx=0;exitDy=0;exitPerimeter=0;" edge="1" parent="1" source="AmgyhVJ9fYsk1LewkEg5-3" target="AmgyhVJ9fYsk1LewkEg5-35">
          <mxGeometry width="50" height="50" relative="1" as="geometry">
            <mxPoint x="897" y="2980" as="sourcePoint" />
            <mxPoint x="878.3499999999999" y="2870.86" as="targetPoint" />
          </mxGeometry>
        </mxCell>
        <mxCell id="AmgyhVJ9fYsk1LewkEg5-22" value="Уведомление о необходимости исправить заявку" style="ellipse;whiteSpace=wrap;html=1;fillColor=#fff2cc;strokeColor=#d6b656;" vertex="1" parent="1">
          <mxGeometry x="861.5" y="3000" width="120" height="75" as="geometry" />
        </mxCell>
        <mxCell id="AmgyhVJ9fYsk1LewkEg5-23" value="" style="endArrow=none;dashed=1;html=1;rounded=0;entryX=0.086;entryY=0.26;entryDx=0;entryDy=0;entryPerimeter=0;" edge="1" parent="1" source="AmgyhVJ9fYsk1LewkEg5-4" target="AmgyhVJ9fYsk1LewkEg5-22">
          <mxGeometry width="50" height="50" relative="1" as="geometry">
            <mxPoint x="280" y="3060" as="sourcePoint" />
            <mxPoint x="770.75" y="2920" as="targetPoint" />
          </mxGeometry>
        </mxCell>
        <mxCell id="AmgyhVJ9fYsk1LewkEg5-24" value="&lt;font style=&quot;font-size: 17px;&quot;&gt;extends&lt;/font&gt;" style="edgeLabel;html=1;align=center;verticalAlign=middle;resizable=0;points=[];" vertex="1" connectable="0" parent="AmgyhVJ9fYsk1LewkEg5-23">
          <mxGeometry x="-0.0103" y="2" relative="1" as="geometry">
            <mxPoint x="-1" as="offset" />
          </mxGeometry>
        </mxCell>
        <mxCell id="AmgyhVJ9fYsk1LewkEg5-27" value="" style="endArrow=none;html=1;rounded=0;exitX=0;exitY=0.3333333333333333;exitDx=0;exitDy=0;exitPerimeter=0;entryX=1;entryY=0.5;entryDx=0;entryDy=0;" edge="1" parent="1" source="AmgyhVJ9fYsk1LewkEg5-4" target="AmgyhVJ9fYsk1LewkEg5-6">
          <mxGeometry width="50" height="50" relative="1" as="geometry">
            <mxPoint x="582.56" y="3123.75" as="sourcePoint" />
            <mxPoint x="640" y="2884" as="targetPoint" />
          </mxGeometry>
        </mxCell>
        <mxCell id="AmgyhVJ9fYsk1LewkEg5-28" value="Отказ в приеме заявки" style="ellipse;whiteSpace=wrap;html=1;fillColor=#fff2cc;strokeColor=#d6b656;" vertex="1" parent="1">
          <mxGeometry x="740" y="3075" width="128.5" height="50" as="geometry" />
        </mxCell>
        <mxCell id="AmgyhVJ9fYsk1LewkEg5-29" value="" style="endArrow=none;dashed=1;html=1;rounded=0;entryX=0.439;entryY=0.027;entryDx=0;entryDy=0;entryPerimeter=0;" edge="1" parent="1" target="AmgyhVJ9fYsk1LewkEg5-28">
          <mxGeometry width="50" height="50" relative="1" as="geometry">
            <mxPoint x="710" y="2960" as="sourcePoint" />
            <mxPoint x="767" y="2850" as="targetPoint" />
          </mxGeometry>
        </mxCell>
        <mxCell id="AmgyhVJ9fYsk1LewkEg5-30" value="&lt;font style=&quot;font-size: 17px;&quot;&gt;extends&lt;/font&gt;" style="edgeLabel;html=1;align=center;verticalAlign=middle;resizable=0;points=[];" vertex="1" connectable="0" parent="AmgyhVJ9fYsk1LewkEg5-29">
          <mxGeometry x="0.069" relative="1" as="geometry">
            <mxPoint as="offset" />
          </mxGeometry>
        </mxCell>
        <mxCell id="AmgyhVJ9fYsk1LewkEg5-35" value="1.1.1.3 Заполнение заявки" style="ellipse;whiteSpace=wrap;html=1;" vertex="1" parent="1">
          <mxGeometry x="618.75" y="2630" width="157.25" height="50" as="geometry" />
        </mxCell>
        <mxCell id="AmgyhVJ9fYsk1LewkEg5-36" value="1.1.1.4 Предоставление необходимых документов" style="ellipse;whiteSpace=wrap;html=1;" vertex="1" parent="1">
          <mxGeometry x="618.75" y="2690" width="157.25" height="50" as="geometry" />
        </mxCell>
        <mxCell id="AmgyhVJ9fYsk1LewkEg5-38" value="" style="endArrow=none;html=1;rounded=0;entryX=0;entryY=0.5;entryDx=0;entryDy=0;" edge="1" parent="1" source="AmgyhVJ9fYsk1LewkEg5-2" target="AmgyhVJ9fYsk1LewkEg5-35">
          <mxGeometry width="50" height="50" relative="1" as="geometry">
            <mxPoint x="710" y="2890" as="sourcePoint" />
            <mxPoint x="760" y="2840" as="targetPoint" />
          </mxGeometry>
        </mxCell>
        <mxCell id="AmgyhVJ9fYsk1LewkEg5-39" value="" style="endArrow=none;html=1;rounded=0;entryX=0;entryY=0.5;entryDx=0;entryDy=0;" edge="1" parent="1" source="AmgyhVJ9fYsk1LewkEg5-2" target="AmgyhVJ9fYsk1LewkEg5-36">
          <mxGeometry width="50" height="50" relative="1" as="geometry">
            <mxPoint x="710" y="2890" as="sourcePoint" />
            <mxPoint x="760" y="2840" as="targetPoint" />
          </mxGeometry>
        </mxCell>
        <mxCell id="AmgyhVJ9fYsk1LewkEg5-40" value="" style="endArrow=none;html=1;rounded=0;entryX=0;entryY=0.3333333333333333;entryDx=0;entryDy=0;entryPerimeter=0;exitX=1;exitY=0.5;exitDx=0;exitDy=0;" edge="1" parent="1" source="AmgyhVJ9fYsk1LewkEg5-36" target="AmgyhVJ9fYsk1LewkEg5-3">
          <mxGeometry width="50" height="50" relative="1" as="geometry">
            <mxPoint x="710" y="2890" as="sourcePoint" />
            <mxPoint x="760" y="2840" as="targetPoint" />
          </mxGeometry>
        </mxCell>
        <mxCell id="AmgyhVJ9fYsk1LewkEg5-41" value="1.1.1.5 Проверка полученных заявок" style="ellipse;whiteSpace=wrap;html=1;" vertex="1" parent="1">
          <mxGeometry x="804.88" y="2820" width="157.25" height="50" as="geometry" />
        </mxCell>
        <mxCell id="AmgyhVJ9fYsk1LewkEg5-42" value="" style="endArrow=none;html=1;rounded=0;entryX=0;entryY=0.5;entryDx=0;entryDy=0;" edge="1" parent="1" target="AmgyhVJ9fYsk1LewkEg5-41">
          <mxGeometry width="50" height="50" relative="1" as="geometry">
            <mxPoint x="720" y="2879" as="sourcePoint" />
            <mxPoint x="760" y="2840" as="targetPoint" />
          </mxGeometry>
        </mxCell>
        <mxCell id="AmgyhVJ9fYsk1LewkEg5-43" value="" style="endArrow=none;html=1;rounded=0;exitX=0.5;exitY=0;exitDx=0;exitDy=0;" edge="1" parent="1" source="AmgyhVJ9fYsk1LewkEg5-41">
          <mxGeometry width="50" height="50" relative="1" as="geometry">
            <mxPoint x="710" y="2890" as="sourcePoint" />
            <mxPoint x="884" y="2780" as="targetPoint" />
          </mxGeometry>
        </mxCell>
        <mxCell id="AmgyhVJ9fYsk1LewkEg5-44" value="1.1.1.6 Прием заявки" style="ellipse;whiteSpace=wrap;html=1;" vertex="1" parent="1">
          <mxGeometry x="813.5" y="2910" width="140" height="50" as="geometry" />
        </mxCell>
        <mxCell id="AmgyhVJ9fYsk1LewkEg5-45" value="" style="endArrow=none;html=1;rounded=0;entryX=0.02;entryY=0.344;entryDx=0;entryDy=0;entryPerimeter=0;" edge="1" parent="1" target="AmgyhVJ9fYsk1LewkEg5-44">
          <mxGeometry width="50" height="50" relative="1" as="geometry">
            <mxPoint x="720" y="2890" as="sourcePoint" />
            <mxPoint x="760" y="2840" as="targetPoint" />
          </mxGeometry>
        </mxCell>
        <mxCell id="AmgyhVJ9fYsk1LewkEg5-46" value="" style="endArrow=none;html=1;rounded=0;exitX=0.974;exitY=0.306;exitDx=0;exitDy=0;exitPerimeter=0;curved=1;" edge="1" parent="1" source="AmgyhVJ9fYsk1LewkEg5-44" target="AmgyhVJ9fYsk1LewkEg5-3">
          <mxGeometry width="50" height="50" relative="1" as="geometry">
            <mxPoint x="710" y="2890" as="sourcePoint" />
            <mxPoint x="760" y="2840" as="targetPoint" />
            <Array as="points">
              <mxPoint x="1050" y="2810" />
            </Array>
          </mxGeometry>
        </mxCell>
        <mxCell id="AmgyhVJ9fYsk1LewkEg5-50" value="" style="endArrow=none;dashed=1;html=1;rounded=0;exitX=0.948;exitY=0.322;exitDx=0;exitDy=0;exitPerimeter=0;curved=1;" edge="1" parent="1" source="AmgyhVJ9fYsk1LewkEg5-22">
          <mxGeometry width="50" height="50" relative="1" as="geometry">
            <mxPoint x="890" y="2890" as="sourcePoint" />
            <mxPoint x="910" y="2720" as="targetPoint" />
            <Array as="points">
              <mxPoint x="1110" y="2810" />
            </Array>
          </mxGeometry>
        </mxCell>
        <mxCell id="AmgyhVJ9fYsk1LewkEg5-52" value="" style="endArrow=none;dashed=1;html=1;rounded=0;exitX=1;exitY=0.5;exitDx=0;exitDy=0;curved=1;" edge="1" parent="1" source="AmgyhVJ9fYsk1LewkEg5-28">
          <mxGeometry width="50" height="50" relative="1" as="geometry">
            <mxPoint x="890" y="2890" as="sourcePoint" />
            <mxPoint x="910" y="2710" as="targetPoint" />
            <Array as="points">
              <mxPoint x="1030" y="3100" />
              <mxPoint x="1150" y="2820" />
            </Array>
          </mxGeometry>
        </mxCell>
        <mxCell id="AmgyhVJ9fYsk1LewkEg5-53" value="" style="endArrow=none;html=1;rounded=0;" edge="1" parent="1" source="AmgyhVJ9fYsk1LewkEg5-6">
          <mxGeometry width="50" height="50" relative="1" as="geometry">
            <mxPoint x="890" y="2890" as="sourcePoint" />
            <mxPoint x="500" y="2780" as="targetPoint" />
          </mxGeometry>
        </mxCell>
        <mxCell id="AmgyhVJ9fYsk1LewkEg5-54" value="" style="endArrow=none;html=1;rounded=0;exitX=1;exitY=1;exitDx=0;exitDy=0;curved=1;" edge="1" parent="1" source="y-zoNaZJvGzwKs-KD9OO-222">
          <mxGeometry width="50" height="50" relative="1" as="geometry">
            <mxPoint x="623" y="2334" as="sourcePoint" />
            <mxPoint x="832" y="2381" as="targetPoint" />
            <Array as="points">
              <mxPoint x="716" y="2568" />
            </Array>
          </mxGeometry>
        </mxCell>
        <mxCell id="AmgyhVJ9fYsk1LewkEg5-55" value="" style="endArrow=none;html=1;rounded=0;exitX=0.605;exitY=0.981;exitDx=0;exitDy=0;exitPerimeter=0;curved=1;" edge="1" parent="1" source="y-zoNaZJvGzwKs-KD9OO-137">
          <mxGeometry width="50" height="50" relative="1" as="geometry">
            <mxPoint x="813" y="1607" as="sourcePoint" />
            <mxPoint x="1138" y="1876" as="targetPoint" />
            <Array as="points">
              <mxPoint x="766" y="1978" />
            </Array>
          </mxGeometry>
        </mxCell>
      </root>
    </mxGraphModel>
  </diagram>
  <diagram id="Zp1wWpMWhrbmSsYYhTyO" name="Страница — 2">
    <mxGraphModel dx="498" dy="322" grid="1" gridSize="10" guides="1" tooltips="1" connect="1" arrows="1" fold="1" page="1" pageScale="1" pageWidth="4681" pageHeight="3300" math="0" shadow="0">
      <root>
        <mxCell id="0" />
        <mxCell id="1" parent="0" />
        <mxCell id="RadHtaIhii_mX8Y8OVP0-1" value="Поступающие&amp;nbsp;&lt;div&gt;дети&lt;/div&gt;" style="shape=umlActor;verticalLabelPosition=bottom;verticalAlign=top;html=1;" parent="1" vertex="1">
          <mxGeometry x="2898.5" y="515" width="30" height="60" as="geometry" />
        </mxCell>
        <mxCell id="RadHtaIhii_mX8Y8OVP0-2" value="Родители" style="shape=umlActor;verticalLabelPosition=bottom;verticalAlign=top;html=1;" parent="1" vertex="1">
          <mxGeometry x="2463.75" y="510" width="30" height="60" as="geometry" />
        </mxCell>
        <mxCell id="RadHtaIhii_mX8Y8OVP0-3" value="&amp;nbsp; &amp;nbsp; &amp;nbsp;Администрация&amp;nbsp;&lt;div&gt;&amp;nbsp; &amp;nbsp;спортшколы&lt;/div&gt;" style="shape=umlActor;verticalLabelPosition=bottom;verticalAlign=top;html=1;" parent="1" vertex="1">
          <mxGeometry x="2463.75" y="830" width="30" height="60" as="geometry" />
        </mxCell>
        <mxCell id="RadHtaIhii_mX8Y8OVP0-4" value="Тренеры" style="shape=umlActor;verticalLabelPosition=bottom;verticalAlign=top;html=1;" parent="1" vertex="1">
          <mxGeometry x="2898.5" y="830" width="30" height="60" as="geometry" />
        </mxCell>
        <mxCell id="RadHtaIhii_mX8Y8OVP0-5" value="1.1.1 Подача заявок на зачисление" style="ellipse;whiteSpace=wrap;html=1;" parent="1" vertex="1">
          <mxGeometry x="2403.75" y="690" width="151.25" height="60" as="geometry" />
        </mxCell>
        <mxCell id="RadHtaIhii_mX8Y8OVP0-6" value="1.1.2 Проверка наличия свободных мест в группах" style="ellipse;whiteSpace=wrap;html=1;" parent="1" vertex="1">
          <mxGeometry x="2132.75" y="820" width="176" height="75" as="geometry" />
        </mxCell>
        <mxCell id="RadHtaIhii_mX8Y8OVP0-7" value="1.1.3 Уведомление о проведении индивидуального отбора" style="ellipse;whiteSpace=wrap;html=1;" parent="1" vertex="1">
          <mxGeometry x="2192.75" y="667.5" width="165.25" height="82.5" as="geometry" />
        </mxCell>
        <mxCell id="RadHtaIhii_mX8Y8OVP0-8" value="1.1.4 Проведение индивидуального отбора" style="ellipse;whiteSpace=wrap;html=1;" parent="1" vertex="1">
          <mxGeometry x="2843.5" y="690" width="140" height="70" as="geometry" />
        </mxCell>
        <mxCell id="RadHtaIhii_mX8Y8OVP0-9" value="1.1.5 Формирование списков групп" style="ellipse;whiteSpace=wrap;html=1;" parent="1" vertex="1">
          <mxGeometry x="2635" y="825" width="141.5" height="70" as="geometry" />
        </mxCell>
        <mxCell id="RadHtaIhii_mX8Y8OVP0-10" value="1.1.6 Уведомление о зачислении" style="ellipse;whiteSpace=wrap;html=1;" parent="1" vertex="1">
          <mxGeometry x="2630.75" y="690" width="150" height="60" as="geometry" />
        </mxCell>
        <mxCell id="RadHtaIhii_mX8Y8OVP0-11" value="" style="endArrow=none;html=1;rounded=0;" parent="1" edge="1">
          <mxGeometry width="50" height="50" relative="1" as="geometry">
            <mxPoint x="2478.75" y="600" as="sourcePoint" />
            <mxPoint x="2478.75" y="680" as="targetPoint" />
          </mxGeometry>
        </mxCell>
        <mxCell id="RadHtaIhii_mX8Y8OVP0-12" value="" style="endArrow=none;html=1;rounded=0;entryX=1;entryY=0.5;entryDx=0;entryDy=0;" parent="1" source="RadHtaIhii_mX8Y8OVP0-3" target="RadHtaIhii_mX8Y8OVP0-6" edge="1">
          <mxGeometry width="50" height="50" relative="1" as="geometry">
            <mxPoint x="2274.5" y="870" as="sourcePoint" />
            <mxPoint x="2338.75" y="860" as="targetPoint" />
          </mxGeometry>
        </mxCell>
        <mxCell id="RadHtaIhii_mX8Y8OVP0-13" value="" style="endArrow=none;html=1;rounded=0;" parent="1" source="RadHtaIhii_mX8Y8OVP0-3" target="RadHtaIhii_mX8Y8OVP0-7" edge="1">
          <mxGeometry width="50" height="50" relative="1" as="geometry">
            <mxPoint x="2406.25" y="780" as="sourcePoint" />
            <mxPoint x="2324.5" y="820" as="targetPoint" />
          </mxGeometry>
        </mxCell>
        <mxCell id="RadHtaIhii_mX8Y8OVP0-14" value="" style="endArrow=none;html=1;rounded=0;entryX=1;entryY=0;entryDx=0;entryDy=0;" parent="1" source="RadHtaIhii_mX8Y8OVP0-2" target="RadHtaIhii_mX8Y8OVP0-7" edge="1">
          <mxGeometry width="50" height="50" relative="1" as="geometry">
            <mxPoint x="2274.5" y="870" as="sourcePoint" />
            <mxPoint x="2144.5" y="710" as="targetPoint" />
          </mxGeometry>
        </mxCell>
        <mxCell id="RadHtaIhii_mX8Y8OVP0-15" value="" style="endArrow=none;html=1;rounded=0;exitX=0.5;exitY=0;exitDx=0;exitDy=0;" parent="1" source="RadHtaIhii_mX8Y8OVP0-8" edge="1">
          <mxGeometry width="50" height="50" relative="1" as="geometry">
            <mxPoint x="2913.5" y="670" as="sourcePoint" />
            <mxPoint x="2913.5" y="620" as="targetPoint" />
          </mxGeometry>
        </mxCell>
        <mxCell id="RadHtaIhii_mX8Y8OVP0-16" value="" style="endArrow=none;html=1;rounded=0;entryX=1;entryY=0.5;entryDx=0;entryDy=0;" parent="1" source="RadHtaIhii_mX8Y8OVP0-4" target="RadHtaIhii_mX8Y8OVP0-9" edge="1">
          <mxGeometry width="50" height="50" relative="1" as="geometry">
            <mxPoint x="2865" y="860" as="sourcePoint" />
            <mxPoint x="2825" y="870" as="targetPoint" />
          </mxGeometry>
        </mxCell>
        <mxCell id="RadHtaIhii_mX8Y8OVP0-17" value="" style="endArrow=none;html=1;rounded=0;entryX=0;entryY=0.5;entryDx=0;entryDy=0;" parent="1" source="RadHtaIhii_mX8Y8OVP0-3" target="RadHtaIhii_mX8Y8OVP0-9" edge="1">
          <mxGeometry width="50" height="50" relative="1" as="geometry">
            <mxPoint x="2735" y="710" as="sourcePoint" />
            <mxPoint x="2785" y="660" as="targetPoint" />
          </mxGeometry>
        </mxCell>
        <mxCell id="RadHtaIhii_mX8Y8OVP0-18" value="" style="endArrow=none;html=1;rounded=0;entryX=0.104;entryY=0.181;entryDx=0;entryDy=0;entryPerimeter=0;" parent="1" source="RadHtaIhii_mX8Y8OVP0-2" target="RadHtaIhii_mX8Y8OVP0-10" edge="1">
          <mxGeometry width="50" height="50" relative="1" as="geometry">
            <mxPoint x="2665" y="810" as="sourcePoint" />
            <mxPoint x="2625" y="660" as="targetPoint" />
          </mxGeometry>
        </mxCell>
        <mxCell id="RadHtaIhii_mX8Y8OVP0-19" value="" style="endArrow=none;html=1;rounded=0;entryX=0;entryY=1;entryDx=0;entryDy=0;" parent="1" source="RadHtaIhii_mX8Y8OVP0-3" target="RadHtaIhii_mX8Y8OVP0-10" edge="1">
          <mxGeometry width="50" height="50" relative="1" as="geometry">
            <mxPoint x="2665" y="810" as="sourcePoint" />
            <mxPoint x="2715" y="760" as="targetPoint" />
          </mxGeometry>
        </mxCell>
        <mxCell id="RadHtaIhii_mX8Y8OVP0-20" value="" style="endArrow=none;html=1;rounded=0;entryX=0.5;entryY=1;entryDx=0;entryDy=0;" parent="1" source="RadHtaIhii_mX8Y8OVP0-4" target="RadHtaIhii_mX8Y8OVP0-8" edge="1">
          <mxGeometry width="50" height="50" relative="1" as="geometry">
            <mxPoint x="2643.5" y="790" as="sourcePoint" />
            <mxPoint x="3013.5" y="820" as="targetPoint" />
          </mxGeometry>
        </mxCell>
        <mxCell id="RadHtaIhii_mX8Y8OVP0-21" value="Уведомление об отсутствии свободных мест" style="ellipse;whiteSpace=wrap;html=1;fillColor=#fff2cc;strokeColor=#d6b656;" parent="1" vertex="1">
          <mxGeometry x="1950" y="671.25" width="120" height="75" as="geometry" />
        </mxCell>
        <mxCell id="RadHtaIhii_mX8Y8OVP0-22" value="" style="endArrow=none;dashed=1;html=1;rounded=0;entryX=1;entryY=0.5;entryDx=0;entryDy=0;exitX=0;exitY=0.5;exitDx=0;exitDy=0;" parent="1" source="RadHtaIhii_mX8Y8OVP0-7" target="RadHtaIhii_mX8Y8OVP0-21" edge="1">
          <mxGeometry width="50" height="50" relative="1" as="geometry">
            <mxPoint x="2488.75" y="800" as="sourcePoint" />
            <mxPoint x="2538.75" y="750" as="targetPoint" />
          </mxGeometry>
        </mxCell>
        <mxCell id="RadHtaIhii_mX8Y8OVP0-23" value="&lt;font style=&quot;font-size: 17px;&quot;&gt;extends&lt;/font&gt;" style="edgeLabel;html=1;align=center;verticalAlign=middle;resizable=0;points=[];" parent="RadHtaIhii_mX8Y8OVP0-22" vertex="1" connectable="0">
          <mxGeometry x="-0.0103" y="2" relative="1" as="geometry">
            <mxPoint x="-1" as="offset" />
          </mxGeometry>
        </mxCell>
        <mxCell id="RadHtaIhii_mX8Y8OVP0-24" value="" style="endArrow=none;dashed=1;html=1;rounded=0;exitX=0.583;exitY=-0.033;exitDx=0;exitDy=0;exitPerimeter=0;" parent="1" source="RadHtaIhii_mX8Y8OVP0-21" target="RadHtaIhii_mX8Y8OVP0-2" edge="1">
          <mxGeometry width="50" height="50" relative="1" as="geometry">
            <mxPoint x="2088.75" y="650" as="sourcePoint" />
            <mxPoint x="2438.75" y="640" as="targetPoint" />
          </mxGeometry>
        </mxCell>
        <mxCell id="RadHtaIhii_mX8Y8OVP0-25" value="" style="endArrow=none;dashed=1;html=1;rounded=0;entryX=0.5;entryY=1;entryDx=0;entryDy=0;" parent="1" source="RadHtaIhii_mX8Y8OVP0-3" target="RadHtaIhii_mX8Y8OVP0-21" edge="1">
          <mxGeometry width="50" height="50" relative="1" as="geometry">
            <mxPoint x="2378.75" y="800" as="sourcePoint" />
            <mxPoint x="2538.75" y="750" as="targetPoint" />
          </mxGeometry>
        </mxCell>
        <mxCell id="RadHtaIhii_mX8Y8OVP0-26" value="" style="endArrow=none;html=1;rounded=0;entryX=0.5;entryY=1;entryDx=0;entryDy=0;exitX=0.5;exitY=0;exitDx=0;exitDy=0;exitPerimeter=0;" parent="1" source="RadHtaIhii_mX8Y8OVP0-3" target="RadHtaIhii_mX8Y8OVP0-5" edge="1">
          <mxGeometry width="50" height="50" relative="1" as="geometry">
            <mxPoint x="2488.75" y="800" as="sourcePoint" />
            <mxPoint x="2528.75" y="780" as="targetPoint" />
          </mxGeometry>
        </mxCell>
        <mxCell id="RadHtaIhii_mX8Y8OVP0-27" value="Отказ в зачислении" style="ellipse;whiteSpace=wrap;html=1;fillColor=#fff2cc;strokeColor=#d6b656;" parent="1" vertex="1">
          <mxGeometry x="2641.5" y="515" width="128.5" height="50" as="geometry" />
        </mxCell>
        <mxCell id="RadHtaIhii_mX8Y8OVP0-28" value="" style="endArrow=none;dashed=1;html=1;rounded=0;exitX=0.5;exitY=0;exitDx=0;exitDy=0;entryX=0.5;entryY=1;entryDx=0;entryDy=0;" parent="1" source="RadHtaIhii_mX8Y8OVP0-10" target="RadHtaIhii_mX8Y8OVP0-27" edge="1">
          <mxGeometry width="50" height="50" relative="1" as="geometry">
            <mxPoint x="2485" y="730" as="sourcePoint" />
            <mxPoint x="2535" y="680" as="targetPoint" />
          </mxGeometry>
        </mxCell>
        <mxCell id="RadHtaIhii_mX8Y8OVP0-29" value="&lt;font style=&quot;font-size: 17px;&quot;&gt;extends&lt;/font&gt;" style="edgeLabel;html=1;align=center;verticalAlign=middle;resizable=0;points=[];" parent="RadHtaIhii_mX8Y8OVP0-28" vertex="1" connectable="0">
          <mxGeometry x="0.069" relative="1" as="geometry">
            <mxPoint as="offset" />
          </mxGeometry>
        </mxCell>
        <mxCell id="RadHtaIhii_mX8Y8OVP0-30" value="" style="endArrow=none;dashed=1;html=1;rounded=0;entryX=0;entryY=0.5;entryDx=0;entryDy=0;" parent="1" source="RadHtaIhii_mX8Y8OVP0-2" target="RadHtaIhii_mX8Y8OVP0-27" edge="1">
          <mxGeometry width="50" height="50" relative="1" as="geometry">
            <mxPoint x="2485" y="720" as="sourcePoint" />
            <mxPoint x="2535" y="670" as="targetPoint" />
          </mxGeometry>
        </mxCell>
        <mxCell id="RadHtaIhii_mX8Y8OVP0-31" value="" style="endArrow=none;dashed=1;html=1;rounded=0;entryX=0.32;entryY=0.967;entryDx=0;entryDy=0;entryPerimeter=0;" parent="1" target="RadHtaIhii_mX8Y8OVP0-27" edge="1">
          <mxGeometry width="50" height="50" relative="1" as="geometry">
            <mxPoint x="2486" y="836" as="sourcePoint" />
            <mxPoint x="2535" y="670" as="targetPoint" />
          </mxGeometry>
        </mxCell>
        <mxCell id="RadHtaIhii_mX8Y8OVP0-32" value="" style="endArrow=none;html=1;rounded=0;exitX=0.605;exitY=0.981;exitDx=0;exitDy=0;exitPerimeter=0;curved=1;" parent="1" source="RadHtaIhii_mX8Y8OVP0-6" edge="1">
          <mxGeometry width="50" height="50" relative="1" as="geometry">
            <mxPoint x="2558" y="617" as="sourcePoint" />
            <mxPoint x="2883" y="886" as="targetPoint" />
            <Array as="points">
              <mxPoint x="2511" y="988" />
            </Array>
          </mxGeometry>
        </mxCell>
        <mxCell id="4WzS-DmeEoyS4PaNG3hT-209" value="Набор детей в спортшколу" style="swimlane;html=1;childLayout=stackLayout;resizeParent=1;resizeParentMax=0;horizontal=0;startSize=20;horizontalStack=0;whiteSpace=wrap;" parent="1" vertex="1">
          <mxGeometry x="880" y="1200" width="2960" height="999.8900000000004" as="geometry" />
        </mxCell>
        <mxCell id="4WzS-DmeEoyS4PaNG3hT-210" value="Родители" style="swimlane;html=1;startSize=20;horizontal=0;" parent="4WzS-DmeEoyS4PaNG3hT-209" vertex="1">
          <mxGeometry x="20" width="2940" height="263" as="geometry" />
        </mxCell>
        <mxCell id="RadHtaIhii_mX8Y8OVP0-35" value="" style="endArrow=blockThin;html=1;labelPosition=left;verticalLabelPosition=middle;align=right;verticalAlign=middle;dashed=1;dashPattern=8 4;endFill=0;startArrow=oval;startFill=0;rounded=0;exitX=0.5;exitY=0;exitDx=0;exitDy=0;exitPerimeter=0;" parent="4WzS-DmeEoyS4PaNG3hT-210" source="RadHtaIhii_mX8Y8OVP0-33" edge="1">
          <mxGeometry relative="1" as="geometry">
            <mxPoint x="221" y="310" as="sourcePoint" />
            <mxPoint x="220.52" y="170" as="targetPoint" />
          </mxGeometry>
        </mxCell>
        <mxCell id="RadHtaIhii_mX8Y8OVP0-36" value="Объявление&lt;div&gt;о наборе&lt;/div&gt;" style="shape=message;html=1;outlineConnect=0;labelPosition=left;verticalLabelPosition=middle;align=right;verticalAlign=middle;spacingRight=5;labelBackgroundColor=#ffffff;" parent="RadHtaIhii_mX8Y8OVP0-35" vertex="1">
          <mxGeometry width="24" height="16" relative="1" as="geometry">
            <mxPoint x="3" y="10" as="offset" />
          </mxGeometry>
        </mxCell>
        <mxCell id="C4s28Tt9ezzEZOHLFZrq-1" value="Ознакомление с информацией" style="points=[[0.25,0,0],[0.5,0,0],[0.75,0,0],[1,0.25,0],[1,0.5,0],[1,0.75,0],[0.75,1,0],[0.5,1,0],[0.25,1,0],[0,0.75,0],[0,0.5,0],[0,0.25,0]];shape=mxgraph.bpmn.task2;whiteSpace=wrap;rectStyle=rounded;size=10;html=1;container=1;expand=0;collapsible=0;taskMarker=abstract;" parent="4WzS-DmeEoyS4PaNG3hT-210" vertex="1">
          <mxGeometry x="160" y="110" width="122" height="81" as="geometry" />
        </mxCell>
        <mxCell id="C4s28Tt9ezzEZOHLFZrq-7" value="Есть ли желание записать&lt;div&gt;&lt;span style=&quot;background-color: light-dark(rgb(255, 255, 255), rgb(18, 18, 18)); color: light-dark(rgb(0, 0, 0), rgb(255, 255, 255));&quot;&gt;ребенка в спортшколу?&lt;/span&gt;&lt;/div&gt;" style="points=[[0.25,0.25,0],[0.5,0,0],[0.75,0.25,0],[1,0.5,0],[0.75,0.75,0],[0.5,1,0],[0.25,0.75,0],[0,0.5,0]];shape=mxgraph.bpmn.gateway2;html=1;verticalLabelPosition=bottom;labelBackgroundColor=#ffffff;verticalAlign=top;align=center;perimeter=rhombusPerimeter;outlineConnect=0;outline=none;symbol=none;gwType=exclusive;" parent="4WzS-DmeEoyS4PaNG3hT-210" vertex="1">
          <mxGeometry x="363" y="127" width="50" height="50" as="geometry" />
        </mxCell>
        <mxCell id="C4s28Tt9ezzEZOHLFZrq-8" value="" style="edgeStyle=elbowEdgeStyle;fontSize=12;html=1;endArrow=blockThin;endFill=1;rounded=0;exitX=1;exitY=0.5;exitDx=0;exitDy=0;exitPerimeter=0;entryX=0;entryY=0.5;entryDx=0;entryDy=0;entryPerimeter=0;" parent="4WzS-DmeEoyS4PaNG3hT-210" target="C4s28Tt9ezzEZOHLFZrq-7" edge="1">
          <mxGeometry width="160" relative="1" as="geometry">
            <mxPoint x="282" y="152" as="sourcePoint" />
            <mxPoint x="319" y="188" as="targetPoint" />
          </mxGeometry>
        </mxCell>
        <mxCell id="C4s28Tt9ezzEZOHLFZrq-9" value="" style="points=[[0.145,0.145,0],[0.5,0,0],[0.855,0.145,0],[1,0.5,0],[0.855,0.855,0],[0.5,1,0],[0.145,0.855,0],[0,0.5,0]];shape=mxgraph.bpmn.event;html=1;verticalLabelPosition=bottom;labelBackgroundColor=#ffffff;verticalAlign=top;align=center;perimeter=ellipsePerimeter;outlineConnect=0;aspect=fixed;outline=end;symbol=terminate2;" parent="4WzS-DmeEoyS4PaNG3hT-210" vertex="1">
          <mxGeometry x="488" y="50" width="43" height="43" as="geometry" />
        </mxCell>
        <mxCell id="C4s28Tt9ezzEZOHLFZrq-10" value="" style="edgeStyle=elbowEdgeStyle;fontSize=12;html=1;endArrow=blockThin;endFill=1;rounded=0;exitX=0.5;exitY=0;exitDx=0;exitDy=0;exitPerimeter=0;entryX=0;entryY=0.5;entryDx=0;entryDy=0;entryPerimeter=0;" parent="4WzS-DmeEoyS4PaNG3hT-210" source="C4s28Tt9ezzEZOHLFZrq-7" target="C4s28Tt9ezzEZOHLFZrq-9" edge="1">
          <mxGeometry width="160" relative="1" as="geometry">
            <mxPoint x="159" y="188" as="sourcePoint" />
            <mxPoint x="487" y="62.00000000000001" as="targetPoint" />
          </mxGeometry>
        </mxCell>
        <mxCell id="C4s28Tt9ezzEZOHLFZrq-11" value="Нет" style="edgeLabel;html=1;align=center;verticalAlign=middle;resizable=0;points=[];" parent="C4s28Tt9ezzEZOHLFZrq-10" vertex="1" connectable="0">
          <mxGeometry x="-0.407" y="2" relative="1" as="geometry">
            <mxPoint as="offset" />
          </mxGeometry>
        </mxCell>
        <mxCell id="C4s28Tt9ezzEZOHLFZrq-53" value="Подготовить заявку" style="points=[[0.25,0,0],[0.5,0,0],[0.75,0,0],[1,0.25,0],[1,0.5,0],[1,0.75,0],[0.75,1,0],[0.5,1,0],[0.25,1,0],[0,0.75,0],[0,0.5,0],[0,0.25,0]];shape=mxgraph.bpmn.task2;whiteSpace=wrap;rectStyle=rounded;size=10;html=1;container=1;expand=0;collapsible=0;taskMarker=abstract;" parent="4WzS-DmeEoyS4PaNG3hT-210" vertex="1">
          <mxGeometry x="560" y="106" width="122" height="81" as="geometry" />
        </mxCell>
        <mxCell id="C4s28Tt9ezzEZOHLFZrq-54" value="Отправить заявку администрации спортшколы" style="points=[[0.25,0,0],[0.5,0,0],[0.75,0,0],[1,0.25,0],[1,0.5,0],[1,0.75,0],[0.75,1,0],[0.5,1,0],[0.25,1,0],[0,0.75,0],[0,0.5,0],[0,0.25,0]];shape=mxgraph.bpmn.task2;whiteSpace=wrap;rectStyle=rounded;size=10;html=1;container=1;expand=0;collapsible=0;taskMarker=abstract;" parent="4WzS-DmeEoyS4PaNG3hT-210" vertex="1">
          <mxGeometry x="720" y="106" width="122" height="81" as="geometry" />
        </mxCell>
        <mxCell id="C4s28Tt9ezzEZOHLFZrq-55" value="" style="endArrow=classic;html=1;rounded=0;exitX=1;exitY=0.5;exitDx=0;exitDy=0;exitPerimeter=0;entryX=0;entryY=0.5;entryDx=0;entryDy=0;entryPerimeter=0;" parent="4WzS-DmeEoyS4PaNG3hT-210" source="C4s28Tt9ezzEZOHLFZrq-53" target="C4s28Tt9ezzEZOHLFZrq-54" edge="1">
          <mxGeometry width="50" height="50" relative="1" as="geometry">
            <mxPoint x="680" y="310" as="sourcePoint" />
            <mxPoint x="730" y="260" as="targetPoint" />
          </mxGeometry>
        </mxCell>
        <mxCell id="C4s28Tt9ezzEZOHLFZrq-34" value="Исправить заявку" style="points=[[0.25,0,0],[0.5,0,0],[0.75,0,0],[1,0.25,0],[1,0.5,0],[1,0.75,0],[0.75,1,0],[0.5,1,0],[0.25,1,0],[0,0.75,0],[0,0.5,0],[0,0.25,0]];shape=mxgraph.bpmn.task2;whiteSpace=wrap;rectStyle=rounded;size=10;html=1;container=1;expand=0;collapsible=0;taskMarker=abstract;" parent="4WzS-DmeEoyS4PaNG3hT-210" vertex="1">
          <mxGeometry x="1110" y="106" width="122" height="81" as="geometry" />
        </mxCell>
        <mxCell id="C4s28Tt9ezzEZOHLFZrq-79" value="Есть желание оставить&lt;div&gt;заявку в листе ожидания?&lt;/div&gt;" style="points=[[0.25,0.25,0],[0.5,0,0],[0.75,0.25,0],[1,0.5,0],[0.75,0.75,0],[0.5,1,0],[0.25,0.75,0],[0,0.5,0]];shape=mxgraph.bpmn.gateway2;html=1;verticalLabelPosition=bottom;labelBackgroundColor=#ffffff;verticalAlign=top;align=center;perimeter=rhombusPerimeter;outlineConnect=0;outline=none;symbol=none;gwType=exclusive;" parent="4WzS-DmeEoyS4PaNG3hT-210" vertex="1">
          <mxGeometry x="1450" y="125.5" width="50" height="50" as="geometry" />
        </mxCell>
        <mxCell id="C4s28Tt9ezzEZOHLFZrq-80" value="" style="points=[[0.145,0.145,0],[0.5,0,0],[0.855,0.145,0],[1,0.5,0],[0.855,0.855,0],[0.5,1,0],[0.145,0.855,0],[0,0.5,0]];shape=mxgraph.bpmn.event;html=1;verticalLabelPosition=bottom;labelBackgroundColor=#ffffff;verticalAlign=top;align=center;perimeter=ellipsePerimeter;outlineConnect=0;aspect=fixed;outline=end;symbol=terminate2;" parent="4WzS-DmeEoyS4PaNG3hT-210" vertex="1">
          <mxGeometry x="1640" y="50" width="43" height="43" as="geometry" />
        </mxCell>
        <mxCell id="C4s28Tt9ezzEZOHLFZrq-81" value="" style="edgeStyle=elbowEdgeStyle;fontSize=12;html=1;endArrow=blockThin;endFill=1;rounded=0;exitX=0.5;exitY=0;exitDx=0;exitDy=0;exitPerimeter=0;entryX=0;entryY=0.5;entryDx=0;entryDy=0;entryPerimeter=0;" parent="4WzS-DmeEoyS4PaNG3hT-210" source="C4s28Tt9ezzEZOHLFZrq-79" target="C4s28Tt9ezzEZOHLFZrq-80" edge="1">
          <mxGeometry width="160" relative="1" as="geometry">
            <mxPoint x="1480" y="125.5" as="sourcePoint" />
            <mxPoint x="1579" y="60.50000000000001" as="targetPoint" />
            <Array as="points">
              <mxPoint x="1520" y="94" />
            </Array>
          </mxGeometry>
        </mxCell>
        <mxCell id="C4s28Tt9ezzEZOHLFZrq-82" value="Нет" style="edgeLabel;html=1;align=center;verticalAlign=middle;resizable=0;points=[];" parent="C4s28Tt9ezzEZOHLFZrq-81" vertex="1" connectable="0">
          <mxGeometry x="-0.407" y="2" relative="1" as="geometry">
            <mxPoint as="offset" />
          </mxGeometry>
        </mxCell>
        <mxCell id="C4s28Tt9ezzEZOHLFZrq-86" value="Отправить администрации спортшколы уведомление о согласии добавить заявку в лист ожидания" style="points=[[0.25,0,0],[0.5,0,0],[0.75,0,0],[1,0.25,0],[1,0.5,0],[1,0.75,0],[0.75,1,0],[0.5,1,0],[0.25,1,0],[0,0.75,0],[0,0.5,0],[0,0.25,0]];shape=mxgraph.bpmn.task2;whiteSpace=wrap;rectStyle=rounded;size=10;html=1;container=1;expand=0;collapsible=0;taskMarker=abstract;" parent="4WzS-DmeEoyS4PaNG3hT-210" vertex="1">
          <mxGeometry x="1593" y="106" width="137" height="90" as="geometry" />
        </mxCell>
        <mxCell id="C4s28Tt9ezzEZOHLFZrq-87" value="" style="endArrow=classic;html=1;rounded=0;exitX=1;exitY=0.5;exitDx=0;exitDy=0;exitPerimeter=0;entryX=0;entryY=0.5;entryDx=0;entryDy=0;entryPerimeter=0;" parent="4WzS-DmeEoyS4PaNG3hT-210" source="C4s28Tt9ezzEZOHLFZrq-79" target="C4s28Tt9ezzEZOHLFZrq-86" edge="1">
          <mxGeometry width="50" height="50" relative="1" as="geometry">
            <mxPoint x="1750" y="334" as="sourcePoint" />
            <mxPoint x="1800" y="284" as="targetPoint" />
          </mxGeometry>
        </mxCell>
        <mxCell id="C4s28Tt9ezzEZOHLFZrq-119" value="Да" style="edgeLabel;html=1;align=center;verticalAlign=middle;resizable=0;points=[];" parent="C4s28Tt9ezzEZOHLFZrq-87" vertex="1" connectable="0">
          <mxGeometry x="0.0079" relative="1" as="geometry">
            <mxPoint as="offset" />
          </mxGeometry>
        </mxCell>
        <mxCell id="C4s28Tt9ezzEZOHLFZrq-116" value="" style="endArrow=blockThin;html=1;labelPosition=left;verticalLabelPosition=middle;align=right;verticalAlign=middle;dashed=1;dashPattern=8 4;endFill=0;startArrow=oval;startFill=0;endSize=6;startSize=4;rounded=0;entryX=0.5;entryY=0;entryDx=0;entryDy=0;entryPerimeter=0;" parent="4WzS-DmeEoyS4PaNG3hT-210" target="C4s28Tt9ezzEZOHLFZrq-88" edge="1">
          <mxGeometry relative="1" as="geometry">
            <mxPoint x="1660" y="200" as="sourcePoint" />
            <mxPoint x="1660" y="310" as="targetPoint" />
          </mxGeometry>
        </mxCell>
        <mxCell id="C4s28Tt9ezzEZOHLFZrq-117" value="Согласие на добавление&lt;div&gt;заявки в лист ожидания&lt;/div&gt;" style="shape=message;html=1;outlineConnect=0;labelPosition=left;verticalLabelPosition=middle;align=right;verticalAlign=middle;spacingRight=5;labelBackgroundColor=#ffffff;" parent="C4s28Tt9ezzEZOHLFZrq-116" vertex="1">
          <mxGeometry width="24" height="16" relative="1" as="geometry">
            <mxPoint x="10" y="37" as="offset" />
          </mxGeometry>
        </mxCell>
        <mxCell id="C4s28Tt9ezzEZOHLFZrq-125" value="Ознакомление с информацией о проведении индивидуального отбора" style="points=[[0.25,0,0],[0.5,0,0],[0.75,0,0],[1,0.25,0],[1,0.5,0],[1,0.75,0],[0.75,1,0],[0.5,1,0],[0.25,1,0],[0,0.75,0],[0,0.5,0],[0,0.25,0]];shape=mxgraph.bpmn.task2;whiteSpace=wrap;rectStyle=rounded;size=10;html=1;container=1;expand=0;collapsible=0;taskMarker=abstract;" parent="4WzS-DmeEoyS4PaNG3hT-210" vertex="1">
          <mxGeometry x="1800" y="106" width="130" height="80" as="geometry" />
        </mxCell>
        <mxCell id="C4s28Tt9ezzEZOHLFZrq-132" value="Сообщить ребенку об индивидуальном отборе" style="points=[[0.25,0,0],[0.5,0,0],[0.75,0,0],[1,0.25,0],[1,0.5,0],[1,0.75,0],[0.75,1,0],[0.5,1,0],[0.25,1,0],[0,0.75,0],[0,0.5,0],[0,0.25,0]];shape=mxgraph.bpmn.task2;whiteSpace=wrap;rectStyle=rounded;size=10;html=1;container=1;expand=0;collapsible=0;taskMarker=abstract;" parent="4WzS-DmeEoyS4PaNG3hT-210" vertex="1">
          <mxGeometry x="1981" y="106" width="130" height="80" as="geometry" />
        </mxCell>
        <mxCell id="C4s28Tt9ezzEZOHLFZrq-133" value="" style="endArrow=classic;html=1;rounded=0;entryX=0;entryY=0.5;entryDx=0;entryDy=0;entryPerimeter=0;exitX=1;exitY=0.5;exitDx=0;exitDy=0;exitPerimeter=0;" parent="4WzS-DmeEoyS4PaNG3hT-210" source="C4s28Tt9ezzEZOHLFZrq-125" target="C4s28Tt9ezzEZOHLFZrq-132" edge="1">
          <mxGeometry width="50" height="50" relative="1" as="geometry">
            <mxPoint x="1850" y="320" as="sourcePoint" />
            <mxPoint x="1900" y="270" as="targetPoint" />
          </mxGeometry>
        </mxCell>
        <mxCell id="C4s28Tt9ezzEZOHLFZrq-206" value="Ознакомление с принятым решением по зачислению ребенка" style="points=[[0.25,0,0],[0.5,0,0],[0.75,0,0],[1,0.25,0],[1,0.5,0],[1,0.75,0],[0.75,1,0],[0.5,1,0],[0.25,1,0],[0,0.75,0],[0,0.5,0],[0,0.25,0]];shape=mxgraph.bpmn.task2;whiteSpace=wrap;rectStyle=rounded;size=10;html=1;container=1;expand=0;collapsible=0;taskMarker=abstract;" parent="4WzS-DmeEoyS4PaNG3hT-210" vertex="1">
          <mxGeometry x="2520" y="107" width="130" height="80" as="geometry" />
        </mxCell>
        <mxCell id="C4s28Tt9ezzEZOHLFZrq-209" value="Решение&lt;div&gt;положительное?&lt;/div&gt;" style="points=[[0.25,0.25,0],[0.5,0,0],[0.75,0.25,0],[1,0.5,0],[0.75,0.75,0],[0.5,1,0],[0.25,0.75,0],[0,0.5,0]];shape=mxgraph.bpmn.gateway2;html=1;verticalLabelPosition=bottom;labelBackgroundColor=#ffffff;verticalAlign=top;align=center;perimeter=rhombusPerimeter;outlineConnect=0;outline=none;symbol=none;gwType=exclusive;" parent="4WzS-DmeEoyS4PaNG3hT-210" vertex="1">
          <mxGeometry x="2710" y="122.00000000000023" width="50" height="50" as="geometry" />
        </mxCell>
        <mxCell id="C4s28Tt9ezzEZOHLFZrq-210" value="" style="endArrow=classic;html=1;rounded=0;exitX=1;exitY=0.5;exitDx=0;exitDy=0;exitPerimeter=0;" parent="4WzS-DmeEoyS4PaNG3hT-210" source="C4s28Tt9ezzEZOHLFZrq-206" target="C4s28Tt9ezzEZOHLFZrq-209" edge="1">
          <mxGeometry width="50" height="50" relative="1" as="geometry">
            <mxPoint x="2660" y="290" as="sourcePoint" />
            <mxPoint x="2710" y="240" as="targetPoint" />
          </mxGeometry>
        </mxCell>
        <mxCell id="C4s28Tt9ezzEZOHLFZrq-211" value="" style="points=[[0.145,0.145,0],[0.5,0,0],[0.855,0.145,0],[1,0.5,0],[0.855,0.855,0],[0.5,1,0],[0.145,0.855,0],[0,0.5,0]];shape=mxgraph.bpmn.event;html=1;verticalLabelPosition=bottom;labelBackgroundColor=#ffffff;verticalAlign=top;align=center;perimeter=ellipsePerimeter;outlineConnect=0;aspect=fixed;outline=end;symbol=terminate2;" parent="4WzS-DmeEoyS4PaNG3hT-210" vertex="1">
          <mxGeometry x="2860" y="82.5" width="43" height="43" as="geometry" />
        </mxCell>
        <mxCell id="C4s28Tt9ezzEZOHLFZrq-214" value="" style="points=[[0.145,0.145,0],[0.5,0,0],[0.855,0.145,0],[1,0.5,0],[0.855,0.855,0],[0.5,1,0],[0.145,0.855,0],[0,0.5,0]];shape=mxgraph.bpmn.event;html=1;verticalLabelPosition=bottom;labelBackgroundColor=#ffffff;verticalAlign=top;align=center;perimeter=ellipsePerimeter;outlineConnect=0;aspect=fixed;outline=end;symbol=terminate2;" parent="4WzS-DmeEoyS4PaNG3hT-210" vertex="1">
          <mxGeometry x="2860" y="172" width="43" height="43" as="geometry" />
        </mxCell>
        <mxCell id="C4s28Tt9ezzEZOHLFZrq-215" value="" style="endArrow=classic;html=1;rounded=0;exitX=0.5;exitY=0;exitDx=0;exitDy=0;exitPerimeter=0;edgeStyle=elbowEdgeStyle;elbow=vertical;" parent="4WzS-DmeEoyS4PaNG3hT-210" source="C4s28Tt9ezzEZOHLFZrq-209" target="C4s28Tt9ezzEZOHLFZrq-211" edge="1">
          <mxGeometry width="50" height="50" relative="1" as="geometry">
            <mxPoint x="2650" y="210" as="sourcePoint" />
            <mxPoint x="2850" y="100" as="targetPoint" />
            <Array as="points">
              <mxPoint x="2800" y="100" />
            </Array>
          </mxGeometry>
        </mxCell>
        <mxCell id="C4s28Tt9ezzEZOHLFZrq-219" value="Да" style="edgeLabel;html=1;align=center;verticalAlign=middle;resizable=0;points=[];" parent="C4s28Tt9ezzEZOHLFZrq-215" vertex="1" connectable="0">
          <mxGeometry x="0.5061" relative="1" as="geometry">
            <mxPoint as="offset" />
          </mxGeometry>
        </mxCell>
        <mxCell id="C4s28Tt9ezzEZOHLFZrq-217" value="" style="endArrow=classic;html=1;rounded=0;exitX=0.5;exitY=1;exitDx=0;exitDy=0;exitPerimeter=0;edgeStyle=elbowEdgeStyle;" parent="4WzS-DmeEoyS4PaNG3hT-210" source="C4s28Tt9ezzEZOHLFZrq-209" target="C4s28Tt9ezzEZOHLFZrq-214" edge="1">
          <mxGeometry width="50" height="50" relative="1" as="geometry">
            <mxPoint x="2770" y="170" as="sourcePoint" />
            <mxPoint x="2850" y="170" as="targetPoint" />
            <Array as="points" />
          </mxGeometry>
        </mxCell>
        <mxCell id="C4s28Tt9ezzEZOHLFZrq-218" value="Нет" style="edgeLabel;html=1;align=center;verticalAlign=middle;resizable=0;points=[];" parent="C4s28Tt9ezzEZOHLFZrq-217" vertex="1" connectable="0">
          <mxGeometry x="0.5656" y="1" relative="1" as="geometry">
            <mxPoint as="offset" />
          </mxGeometry>
        </mxCell>
        <mxCell id="C4s28Tt9ezzEZOHLFZrq-220" value="Ребенок зачислен" style="text;html=1;align=center;verticalAlign=middle;whiteSpace=wrap;rounded=0;" parent="4WzS-DmeEoyS4PaNG3hT-210" vertex="1">
          <mxGeometry x="2842.25" y="46.5" width="78.5" height="30" as="geometry" />
        </mxCell>
        <mxCell id="C4s28Tt9ezzEZOHLFZrq-221" value="Получен отказ в зачислении" style="text;html=1;align=center;verticalAlign=middle;whiteSpace=wrap;rounded=0;" parent="4WzS-DmeEoyS4PaNG3hT-210" vertex="1">
          <mxGeometry x="2832.25" y="137" width="98.5" height="30" as="geometry" />
        </mxCell>
        <mxCell id="C4s28Tt9ezzEZOHLFZrq-224" value="Отзыв заявки" style="text;html=1;align=center;verticalAlign=middle;whiteSpace=wrap;rounded=0;" parent="4WzS-DmeEoyS4PaNG3hT-210" vertex="1">
          <mxGeometry x="1612.25" y="20" width="98.5" height="30" as="geometry" />
        </mxCell>
        <mxCell id="C4s28Tt9ezzEZOHLFZrq-225" value="Отказ родителя от подачи заявки" style="text;html=1;align=center;verticalAlign=middle;whiteSpace=wrap;rounded=0;" parent="4WzS-DmeEoyS4PaNG3hT-210" vertex="1">
          <mxGeometry x="461.5" y="16.5" width="98.5" height="30" as="geometry" />
        </mxCell>
        <mxCell id="4WzS-DmeEoyS4PaNG3hT-220" value="Администрация спортшколы" style="swimlane;html=1;startSize=20;horizontal=0;" parent="4WzS-DmeEoyS4PaNG3hT-209" vertex="1">
          <mxGeometry x="20" y="263" width="2940" height="423.89" as="geometry" />
        </mxCell>
        <mxCell id="4WzS-DmeEoyS4PaNG3hT-272" value="" style="points=[[0.145,0.145,0],[0.5,0,0],[0.855,0.145,0],[1,0.5,0],[0.855,0.855,0],[0.5,1,0],[0.145,0.855,0],[0,0.5,0]];shape=mxgraph.bpmn.event;html=1;verticalLabelPosition=bottom;labelBackgroundColor=#ffffff;verticalAlign=top;align=center;perimeter=ellipsePerimeter;outlineConnect=0;aspect=fixed;outline=standard;symbol=general;" parent="4WzS-DmeEoyS4PaNG3hT-220" vertex="1">
          <mxGeometry x="50" y="189.54999999999998" width="32" height="32" as="geometry" />
        </mxCell>
        <mxCell id="RadHtaIhii_mX8Y8OVP0-33" value="Публикация объявления о наборе детей в спортшколу" style="points=[[0.25,0,0],[0.5,0,0],[0.75,0,0],[1,0.25,0],[1,0.5,0],[1,0.75,0],[0.75,1,0],[0.5,1,0],[0.25,1,0],[0,0.75,0],[0,0.5,0],[0,0.25,0]];shape=mxgraph.bpmn.task2;whiteSpace=wrap;rectStyle=rounded;size=10;html=1;container=1;expand=0;collapsible=0;taskMarker=abstract;" parent="4WzS-DmeEoyS4PaNG3hT-220" vertex="1">
          <mxGeometry x="160" y="165.04999999999998" width="122" height="81" as="geometry" />
        </mxCell>
        <mxCell id="RadHtaIhii_mX8Y8OVP0-34" value="" style="edgeStyle=elbowEdgeStyle;fontSize=12;html=1;endArrow=blockThin;endFill=1;rounded=0;exitX=1;exitY=0.5;exitDx=0;exitDy=0;exitPerimeter=0;entryX=0;entryY=0.5;entryDx=0;entryDy=0;entryPerimeter=0;" parent="4WzS-DmeEoyS4PaNG3hT-220" source="4WzS-DmeEoyS4PaNG3hT-272" target="RadHtaIhii_mX8Y8OVP0-33" edge="1">
          <mxGeometry width="160" relative="1" as="geometry">
            <mxPoint x="82" y="99.55000000000001" as="sourcePoint" />
            <mxPoint x="316" y="-57.45" as="targetPoint" />
          </mxGeometry>
        </mxCell>
        <mxCell id="C4s28Tt9ezzEZOHLFZrq-17" value="Проверить данные&lt;div&gt;&amp;nbsp;в заявках&lt;/div&gt;" style="points=[[0.25,0,0],[0.5,0,0],[0.75,0,0],[1,0.25,0],[1,0.5,0],[1,0.75,0],[0.75,1,0],[0.5,1,0],[0.25,1,0],[0,0.75,0],[0,0.5,0],[0,0.25,0]];shape=mxgraph.bpmn.task2;whiteSpace=wrap;rectStyle=rounded;size=10;html=1;container=1;expand=0;collapsible=0;taskMarker=abstract;" parent="4WzS-DmeEoyS4PaNG3hT-220" vertex="1">
          <mxGeometry x="720" y="271.05" width="120" height="81" as="geometry" />
        </mxCell>
        <mxCell id="C4s28Tt9ezzEZOHLFZrq-35" value="Данные корректны?" style="points=[[0.25,0.25,0],[0.5,0,0],[0.75,0.25,0],[1,0.5,0],[0.75,0.75,0],[0.5,1,0],[0.25,0.75,0],[0,0.5,0]];shape=mxgraph.bpmn.gateway2;html=1;verticalLabelPosition=bottom;labelBackgroundColor=#ffffff;verticalAlign=top;align=center;perimeter=rhombusPerimeter;outlineConnect=0;outline=none;symbol=none;gwType=exclusive;" parent="4WzS-DmeEoyS4PaNG3hT-220" vertex="1">
          <mxGeometry x="910" y="285.94" width="50" height="50" as="geometry" />
        </mxCell>
        <mxCell id="C4s28Tt9ezzEZOHLFZrq-36" value="" style="edgeStyle=elbowEdgeStyle;fontSize=12;html=1;endArrow=blockThin;endFill=1;rounded=0;exitX=1;exitY=0.5;exitDx=0;exitDy=0;exitPerimeter=0;entryX=0;entryY=0.5;entryDx=0;entryDy=0;entryPerimeter=0;" parent="4WzS-DmeEoyS4PaNG3hT-220" source="C4s28Tt9ezzEZOHLFZrq-17" target="C4s28Tt9ezzEZOHLFZrq-35" edge="1">
          <mxGeometry width="160" relative="1" as="geometry">
            <mxPoint x="936" y="164.43999999999997" as="sourcePoint" />
            <mxPoint x="1067" y="-101.56" as="targetPoint" />
          </mxGeometry>
        </mxCell>
        <mxCell id="C4s28Tt9ezzEZOHLFZrq-38" value="" style="points=[[0.25,0.25,0],[0.5,0,0],[0.75,0.25,0],[1,0.5,0],[0.75,0.75,0],[0.5,1,0],[0.25,0.75,0],[0,0.5,0]];shape=mxgraph.bpmn.gateway2;html=1;verticalLabelPosition=bottom;labelBackgroundColor=#ffffff;verticalAlign=top;align=center;perimeter=rhombusPerimeter;outlineConnect=0;outline=none;symbol=none;gwType=exclusive;" parent="4WzS-DmeEoyS4PaNG3hT-220" vertex="1">
          <mxGeometry x="980" y="156.04999999999998" width="50" height="50" as="geometry" />
        </mxCell>
        <mxCell id="C4s28Tt9ezzEZOHLFZrq-39" value="Исправить ошибки" style="points=[[0.25,0,0],[0.5,0,0],[0.75,0,0],[1,0.25,0],[1,0.5,0],[1,0.75,0],[0.75,1,0],[0.5,1,0],[0.25,1,0],[0,0.75,0],[0,0.5,0],[0,0.25,0]];shape=mxgraph.bpmn.task2;whiteSpace=wrap;rectStyle=rounded;size=10;html=1;container=1;expand=0;collapsible=0;taskMarker=abstract;" parent="4WzS-DmeEoyS4PaNG3hT-220" vertex="1">
          <mxGeometry x="1110" y="140.54999999999998" width="122" height="81" as="geometry" />
        </mxCell>
        <mxCell id="C4s28Tt9ezzEZOHLFZrq-40" value="" style="edgeStyle=elbowEdgeStyle;fontSize=12;html=1;endArrow=blockThin;endFill=1;rounded=0;exitX=1;exitY=0.5;exitDx=0;exitDy=0;exitPerimeter=0;entryX=0;entryY=0.5;entryDx=0;entryDy=0;entryPerimeter=0;elbow=vertical;" parent="4WzS-DmeEoyS4PaNG3hT-220" source="C4s28Tt9ezzEZOHLFZrq-38" target="C4s28Tt9ezzEZOHLFZrq-39" edge="1">
          <mxGeometry width="160" relative="1" as="geometry">
            <mxPoint x="763" y="35.86000000000001" as="sourcePoint" />
            <mxPoint x="1130" y="182.04999999999998" as="targetPoint" />
          </mxGeometry>
        </mxCell>
        <mxCell id="C4s28Tt9ezzEZOHLFZrq-134" value="Да" style="edgeLabel;html=1;align=center;verticalAlign=middle;resizable=0;points=[];" parent="C4s28Tt9ezzEZOHLFZrq-40" vertex="1" connectable="0">
          <mxGeometry x="-0.2059" y="1" relative="1" as="geometry">
            <mxPoint as="offset" />
          </mxGeometry>
        </mxCell>
        <mxCell id="C4s28Tt9ezzEZOHLFZrq-42" value="" style="edgeStyle=orthogonalEdgeStyle;fontSize=12;html=1;endArrow=blockThin;endFill=1;rounded=0;exitX=0.5;exitY=0;exitDx=0;exitDy=0;exitPerimeter=0;entryX=0.5;entryY=1;entryDx=0;entryDy=0;entryPerimeter=0;" parent="4WzS-DmeEoyS4PaNG3hT-220" source="C4s28Tt9ezzEZOHLFZrq-35" target="C4s28Tt9ezzEZOHLFZrq-38" edge="1">
          <mxGeometry width="160" relative="1" as="geometry">
            <mxPoint x="930" y="302.86" as="sourcePoint" />
            <mxPoint x="999" y="63.86000000000001" as="targetPoint" />
          </mxGeometry>
        </mxCell>
        <mxCell id="C4s28Tt9ezzEZOHLFZrq-57" value="Нет" style="edgeLabel;html=1;align=center;verticalAlign=middle;resizable=0;points=[];" parent="C4s28Tt9ezzEZOHLFZrq-42" vertex="1" connectable="0">
          <mxGeometry x="-0.7892" y="1" relative="1" as="geometry">
            <mxPoint as="offset" />
          </mxGeometry>
        </mxCell>
        <mxCell id="C4s28Tt9ezzEZOHLFZrq-58" value="Text" style="edgeLabel;html=1;align=center;verticalAlign=middle;resizable=0;points=[];" parent="C4s28Tt9ezzEZOHLFZrq-42" vertex="1" connectable="0">
          <mxGeometry x="0.7508" y="1" relative="1" as="geometry">
            <mxPoint as="offset" />
          </mxGeometry>
        </mxCell>
        <mxCell id="C4s28Tt9ezzEZOHLFZrq-61" value="Данные можно исправить без&lt;div&gt;родителей поступающего ребенка?&lt;/div&gt;" style="edgeLabel;html=1;align=center;verticalAlign=middle;resizable=0;points=[];" parent="C4s28Tt9ezzEZOHLFZrq-42" vertex="1" connectable="0">
          <mxGeometry x="0.7508" relative="1" as="geometry">
            <mxPoint as="offset" />
          </mxGeometry>
        </mxCell>
        <mxCell id="C4s28Tt9ezzEZOHLFZrq-44" value="Отправить родителям уведомление о том, что нужно исправить" style="points=[[0.25,0,0],[0.5,0,0],[0.75,0,0],[1,0.25,0],[1,0.5,0],[1,0.75,0],[0.75,1,0],[0.5,1,0],[0.25,1,0],[0,0.75,0],[0,0.5,0],[0,0.25,0]];shape=mxgraph.bpmn.task2;whiteSpace=wrap;rectStyle=rounded;size=10;html=1;container=1;expand=0;collapsible=0;taskMarker=abstract;" parent="4WzS-DmeEoyS4PaNG3hT-220" vertex="1">
          <mxGeometry x="1110" y="18.550000000000004" width="122" height="81" as="geometry" />
        </mxCell>
        <mxCell id="pPfn_floGJB9x_BqIDNA-1" value="" style="ellipse;shape=doubleEllipse;whiteSpace=wrap;html=1;aspect=fixed;" vertex="1" parent="C4s28Tt9ezzEZOHLFZrq-44">
          <mxGeometry x="100" y="-11.550000000000068" width="40" height="40" as="geometry" />
        </mxCell>
        <mxCell id="pPfn_floGJB9x_BqIDNA-2" value="" style="edgeStyle=isometricEdgeStyle;endArrow=none;html=1;rounded=0;fontStyle=1" edge="1" parent="C4s28Tt9ezzEZOHLFZrq-44">
          <mxGeometry width="50" height="100" relative="1" as="geometry">
            <mxPoint x="107.09999999999991" y="22.170000000000044" as="sourcePoint" />
            <mxPoint x="132.9000000000001" y="-5.280000000000001" as="targetPoint" />
          </mxGeometry>
        </mxCell>
        <mxCell id="C4s28Tt9ezzEZOHLFZrq-45" value="" style="edgeStyle=elbowEdgeStyle;fontSize=12;html=1;endArrow=blockThin;endFill=1;rounded=0;exitX=0.5;exitY=0;exitDx=0;exitDy=0;exitPerimeter=0;elbow=vertical;entryX=0.5;entryY=1;entryDx=0;entryDy=0;entryPerimeter=0;" parent="4WzS-DmeEoyS4PaNG3hT-220" source="C4s28Tt9ezzEZOHLFZrq-38" target="C4s28Tt9ezzEZOHLFZrq-44" edge="1">
          <mxGeometry width="160" relative="1" as="geometry">
            <mxPoint x="1147" y="-150.45" as="sourcePoint" />
            <mxPoint x="1095" y="-252.45000000000002" as="targetPoint" />
          </mxGeometry>
        </mxCell>
        <mxCell id="C4s28Tt9ezzEZOHLFZrq-46" value="Нет" style="edgeLabel;html=1;align=center;verticalAlign=middle;resizable=0;points=[];" parent="C4s28Tt9ezzEZOHLFZrq-45" vertex="1" connectable="0">
          <mxGeometry x="-0.364" relative="1" as="geometry">
            <mxPoint as="offset" />
          </mxGeometry>
        </mxCell>
        <mxCell id="C4s28Tt9ezzEZOHLFZrq-64" value="Проверить наличие свободных мест в группах" style="points=[[0.25,0,0],[0.5,0,0],[0.75,0,0],[1,0.25,0],[1,0.5,0],[1,0.75,0],[0.75,1,0],[0.5,1,0],[0.25,1,0],[0,0.75,0],[0,0.5,0],[0,0.25,0]];shape=mxgraph.bpmn.task2;whiteSpace=wrap;rectStyle=rounded;size=10;html=1;container=1;expand=0;collapsible=0;taskMarker=abstract;" parent="4WzS-DmeEoyS4PaNG3hT-220" vertex="1">
          <mxGeometry x="1270" y="270.4399999999999" width="120" height="81" as="geometry" />
        </mxCell>
        <mxCell id="C4s28Tt9ezzEZOHLFZrq-65" value="" style="endArrow=classic;html=1;rounded=0;exitX=1;exitY=0.5;exitDx=0;exitDy=0;exitPerimeter=0;entryX=0;entryY=0.5;entryDx=0;entryDy=0;entryPerimeter=0;" parent="4WzS-DmeEoyS4PaNG3hT-220" source="C4s28Tt9ezzEZOHLFZrq-35" target="C4s28Tt9ezzEZOHLFZrq-64" edge="1">
          <mxGeometry width="50" height="50" relative="1" as="geometry">
            <mxPoint x="1180" y="298.05" as="sourcePoint" />
            <mxPoint x="1230" y="248.05" as="targetPoint" />
          </mxGeometry>
        </mxCell>
        <mxCell id="C4s28Tt9ezzEZOHLFZrq-66" value="Да" style="edgeLabel;html=1;align=center;verticalAlign=middle;resizable=0;points=[];" parent="C4s28Tt9ezzEZOHLFZrq-65" vertex="1" connectable="0">
          <mxGeometry x="0.1158" y="-2" relative="1" as="geometry">
            <mxPoint as="offset" />
          </mxGeometry>
        </mxCell>
        <mxCell id="C4s28Tt9ezzEZOHLFZrq-68" value="Места есть?" style="points=[[0.25,0.25,0],[0.5,0,0],[0.75,0.25,0],[1,0.5,0],[0.75,0.75,0],[0.5,1,0],[0.25,0.75,0],[0,0.5,0]];shape=mxgraph.bpmn.gateway2;html=1;verticalLabelPosition=bottom;labelBackgroundColor=#ffffff;verticalAlign=top;align=center;perimeter=rhombusPerimeter;outlineConnect=0;outline=none;symbol=none;gwType=exclusive;" parent="4WzS-DmeEoyS4PaNG3hT-220" vertex="1">
          <mxGeometry x="1450" y="285.9399999999998" width="50" height="50" as="geometry" />
        </mxCell>
        <mxCell id="C4s28Tt9ezzEZOHLFZrq-69" value="Нет" style="edgeLabel;html=1;align=center;verticalAlign=middle;resizable=0;points=[];" parent="4WzS-DmeEoyS4PaNG3hT-220" vertex="1" connectable="0">
          <mxGeometry x="1490.5" y="254.94052631578944" as="geometry" />
        </mxCell>
        <mxCell id="C4s28Tt9ezzEZOHLFZrq-70" value="" style="endArrow=classic;html=1;rounded=0;exitX=1;exitY=0.5;exitDx=0;exitDy=0;exitPerimeter=0;" parent="4WzS-DmeEoyS4PaNG3hT-220" source="C4s28Tt9ezzEZOHLFZrq-64" target="C4s28Tt9ezzEZOHLFZrq-68" edge="1">
          <mxGeometry width="50" height="50" relative="1" as="geometry">
            <mxPoint x="1320" y="258.05" as="sourcePoint" />
            <mxPoint x="1370" y="208.04999999999998" as="targetPoint" />
          </mxGeometry>
        </mxCell>
        <mxCell id="C4s28Tt9ezzEZOHLFZrq-72" value="" style="endArrow=classic;html=1;rounded=0;exitX=1;exitY=0.5;exitDx=0;exitDy=0;exitPerimeter=0;entryX=0;entryY=0.25;entryDx=0;entryDy=0;entryPerimeter=0;edgeStyle=elbowEdgeStyle;" parent="4WzS-DmeEoyS4PaNG3hT-220" source="C4s28Tt9ezzEZOHLFZrq-39" target="C4s28Tt9ezzEZOHLFZrq-64" edge="1">
          <mxGeometry width="50" height="50" relative="1" as="geometry">
            <mxPoint x="1260" y="217.54999999999998" as="sourcePoint" />
            <mxPoint x="1310" y="167.54999999999998" as="targetPoint" />
          </mxGeometry>
        </mxCell>
        <mxCell id="C4s28Tt9ezzEZOHLFZrq-76" value="Регистрация заявки" style="points=[[0.25,0,0],[0.5,0,0],[0.75,0,0],[1,0.25,0],[1,0.5,0],[1,0.75,0],[0.75,1,0],[0.5,1,0],[0.25,1,0],[0,0.75,0],[0,0.5,0],[0,0.25,0]];shape=mxgraph.bpmn.task2;whiteSpace=wrap;rectStyle=rounded;size=10;html=1;container=1;expand=0;collapsible=0;taskMarker=abstract;" parent="4WzS-DmeEoyS4PaNG3hT-220" vertex="1">
          <mxGeometry x="1600" y="270.4399999999999" width="120" height="81" as="geometry" />
        </mxCell>
        <mxCell id="C4s28Tt9ezzEZOHLFZrq-77" value="" style="endArrow=classic;html=1;rounded=0;entryX=0;entryY=0.5;entryDx=0;entryDy=0;entryPerimeter=0;exitX=1;exitY=0.5;exitDx=0;exitDy=0;exitPerimeter=0;" parent="4WzS-DmeEoyS4PaNG3hT-220" source="C4s28Tt9ezzEZOHLFZrq-68" target="C4s28Tt9ezzEZOHLFZrq-76" edge="1">
          <mxGeometry width="50" height="50" relative="1" as="geometry">
            <mxPoint x="1440" y="218.04999999999998" as="sourcePoint" />
            <mxPoint x="1490" y="168.04999999999998" as="targetPoint" />
          </mxGeometry>
        </mxCell>
        <mxCell id="C4s28Tt9ezzEZOHLFZrq-78" value="Да" style="edgeLabel;html=1;align=center;verticalAlign=middle;resizable=0;points=[];" parent="C4s28Tt9ezzEZOHLFZrq-77" vertex="1" connectable="0">
          <mxGeometry x="-0.2206" y="-1" relative="1" as="geometry">
            <mxPoint as="offset" />
          </mxGeometry>
        </mxCell>
        <mxCell id="C4s28Tt9ezzEZOHLFZrq-88" value="Добавить заявку в лист ожидания" style="points=[[0.25,0,0],[0.5,0,0],[0.75,0,0],[1,0.25,0],[1,0.5,0],[1,0.75,0],[0.75,1,0],[0.5,1,0],[0.25,1,0],[0,0.75,0],[0,0.5,0],[0,0.25,0]];shape=mxgraph.bpmn.task2;whiteSpace=wrap;rectStyle=rounded;size=10;html=1;container=1;expand=0;collapsible=0;taskMarker=abstract;" parent="4WzS-DmeEoyS4PaNG3hT-220" vertex="1">
          <mxGeometry x="1600" y="66.55000000000001" width="120" height="74" as="geometry" />
        </mxCell>
        <mxCell id="C4s28Tt9ezzEZOHLFZrq-123" value="Отправить&amp;nbsp; уведомление о проведении индивидуального отбора" style="points=[[0.25,0,0],[0.5,0,0],[0.75,0,0],[1,0.25,0],[1,0.5,0],[1,0.75,0],[0.75,1,0],[0.5,1,0],[0.25,1,0],[0,0.75,0],[0,0.5,0],[0,0.25,0]];shape=mxgraph.bpmn.task2;whiteSpace=wrap;rectStyle=rounded;size=10;html=1;container=1;expand=0;collapsible=0;taskMarker=abstract;" parent="4WzS-DmeEoyS4PaNG3hT-220" vertex="1">
          <mxGeometry x="1800" y="271.05" width="130" height="80" as="geometry" />
        </mxCell>
        <mxCell id="C4s28Tt9ezzEZOHLFZrq-124" value="" style="endArrow=classic;html=1;rounded=0;exitX=1;exitY=0.5;exitDx=0;exitDy=0;exitPerimeter=0;entryX=0;entryY=0.5;entryDx=0;entryDy=0;entryPerimeter=0;" parent="4WzS-DmeEoyS4PaNG3hT-220" source="C4s28Tt9ezzEZOHLFZrq-76" target="C4s28Tt9ezzEZOHLFZrq-123" edge="1">
          <mxGeometry width="50" height="50" relative="1" as="geometry">
            <mxPoint x="1770" y="358.05" as="sourcePoint" />
            <mxPoint x="1820" y="308.05" as="targetPoint" />
          </mxGeometry>
        </mxCell>
        <mxCell id="C4s28Tt9ezzEZOHLFZrq-152" value="Формирование списков групп" style="points=[[0.25,0,0],[0.5,0,0],[0.75,0,0],[1,0.25,0],[1,0.5,0],[1,0.75,0],[0.75,1,0],[0.5,1,0],[0.25,1,0],[0,0.75,0],[0,0.5,0],[0,0.25,0]];shape=mxgraph.bpmn.task2;whiteSpace=wrap;rectStyle=rounded;size=10;html=1;container=1;expand=0;collapsible=0;taskMarker=abstract;" parent="4WzS-DmeEoyS4PaNG3hT-220" vertex="1">
          <mxGeometry x="2350" y="254.9405263157899" width="122" height="81" as="geometry" />
        </mxCell>
        <mxCell id="C4s28Tt9ezzEZOHLFZrq-161" value="Уведомить родителей&amp;nbsp; о принятом решении по зачислению" style="points=[[0.25,0,0],[0.5,0,0],[0.75,0,0],[1,0.25,0],[1,0.5,0],[1,0.75,0],[0.75,1,0],[0.5,1,0],[0.25,1,0],[0,0.75,0],[0,0.5,0],[0,0.25,0]];shape=mxgraph.bpmn.task2;whiteSpace=wrap;rectStyle=rounded;size=10;html=1;container=1;expand=0;collapsible=0;taskMarker=abstract;" parent="4WzS-DmeEoyS4PaNG3hT-220" vertex="1">
          <mxGeometry x="2520" y="254.94" width="130" height="80" as="geometry" />
        </mxCell>
        <mxCell id="C4s28Tt9ezzEZOHLFZrq-166" value="" style="points=[[0.145,0.145,0],[0.5,0,0],[0.855,0.145,0],[1,0.5,0],[0.855,0.855,0],[0.5,1,0],[0.145,0.855,0],[0,0.5,0]];shape=mxgraph.bpmn.event;html=1;verticalLabelPosition=bottom;labelBackgroundColor=#ffffff;verticalAlign=top;align=center;perimeter=ellipsePerimeter;outlineConnect=0;aspect=fixed;outline=end;symbol=terminate2;" parent="4WzS-DmeEoyS4PaNG3hT-220" vertex="1">
          <mxGeometry x="2860" y="273.9399999999998" width="43" height="43" as="geometry" />
        </mxCell>
        <mxCell id="C4s28Tt9ezzEZOHLFZrq-182" value="" style="endArrow=classic;html=1;rounded=0;exitX=1;exitY=0.5;exitDx=0;exitDy=0;exitPerimeter=0;entryX=0;entryY=0.5;entryDx=0;entryDy=0;entryPerimeter=0;" parent="4WzS-DmeEoyS4PaNG3hT-220" source="C4s28Tt9ezzEZOHLFZrq-152" target="C4s28Tt9ezzEZOHLFZrq-161" edge="1">
          <mxGeometry width="50" height="50" relative="1" as="geometry">
            <mxPoint x="2520" y="318.05" as="sourcePoint" />
            <mxPoint x="2570" y="268.05" as="targetPoint" />
          </mxGeometry>
        </mxCell>
        <mxCell id="C4s28Tt9ezzEZOHLFZrq-183" value="Появились ли&lt;div&gt;свободные места?&lt;/div&gt;" style="points=[[0.25,0.25,0],[0.5,0,0],[0.75,0.25,0],[1,0.5,0],[0.75,0.75,0],[0.5,1,0],[0.25,0.75,0],[0,0.5,0]];shape=mxgraph.bpmn.gateway2;html=1;verticalLabelPosition=bottom;labelBackgroundColor=#ffffff;verticalAlign=top;align=center;perimeter=rhombusPerimeter;outlineConnect=0;outline=none;symbol=none;gwType=exclusive;" parent="4WzS-DmeEoyS4PaNG3hT-220" vertex="1">
          <mxGeometry x="2710" y="269.94" width="50" height="50" as="geometry" />
        </mxCell>
        <mxCell id="C4s28Tt9ezzEZOHLFZrq-184" value="" style="endArrow=classic;html=1;rounded=0;entryX=0;entryY=0.5;entryDx=0;entryDy=0;entryPerimeter=0;exitX=1;exitY=0.5;exitDx=0;exitDy=0;exitPerimeter=0;" parent="4WzS-DmeEoyS4PaNG3hT-220" source="C4s28Tt9ezzEZOHLFZrq-161" target="C4s28Tt9ezzEZOHLFZrq-183" edge="1">
          <mxGeometry width="50" height="50" relative="1" as="geometry">
            <mxPoint x="2480" y="338.05" as="sourcePoint" />
            <mxPoint x="2530" y="288.05" as="targetPoint" />
          </mxGeometry>
        </mxCell>
        <mxCell id="C4s28Tt9ezzEZOHLFZrq-185" value="" style="endArrow=classic;html=1;rounded=0;entryX=0;entryY=0.5;entryDx=0;entryDy=0;entryPerimeter=0;exitX=1;exitY=0.5;exitDx=0;exitDy=0;exitPerimeter=0;" parent="4WzS-DmeEoyS4PaNG3hT-220" source="C4s28Tt9ezzEZOHLFZrq-183" target="C4s28Tt9ezzEZOHLFZrq-166" edge="1">
          <mxGeometry width="50" height="50" relative="1" as="geometry">
            <mxPoint x="2480" y="338.05" as="sourcePoint" />
            <mxPoint x="2530" y="288.05" as="targetPoint" />
          </mxGeometry>
        </mxCell>
        <mxCell id="C4s28Tt9ezzEZOHLFZrq-186" value="Нет" style="edgeLabel;html=1;align=center;verticalAlign=middle;resizable=0;points=[];" parent="C4s28Tt9ezzEZOHLFZrq-185" vertex="1" connectable="0">
          <mxGeometry x="0.2599" y="2" relative="1" as="geometry">
            <mxPoint as="offset" />
          </mxGeometry>
        </mxCell>
        <mxCell id="C4s28Tt9ezzEZOHLFZrq-187" value="Есть ли заявки в&lt;div&gt;листе ожидания?&lt;/div&gt;" style="points=[[0.25,0.25,0],[0.5,0,0],[0.75,0.25,0],[1,0.5,0],[0.75,0.75,0],[0.5,1,0],[0.25,0.75,0],[0,0.5,0]];shape=mxgraph.bpmn.gateway2;html=1;verticalLabelPosition=bottom;labelBackgroundColor=#ffffff;verticalAlign=top;align=center;perimeter=rhombusPerimeter;outlineConnect=0;outline=none;symbol=none;gwType=exclusive;" parent="4WzS-DmeEoyS4PaNG3hT-220" vertex="1">
          <mxGeometry x="2710" y="139.54999999999998" width="50" height="50" as="geometry" />
        </mxCell>
        <mxCell id="C4s28Tt9ezzEZOHLFZrq-190" value="" style="points=[[0.145,0.145,0],[0.5,0,0],[0.855,0.145,0],[1,0.5,0],[0.855,0.855,0],[0.5,1,0],[0.145,0.855,0],[0,0.5,0]];shape=mxgraph.bpmn.event;html=1;verticalLabelPosition=bottom;labelBackgroundColor=#ffffff;verticalAlign=top;align=center;perimeter=ellipsePerimeter;outlineConnect=0;aspect=fixed;outline=end;symbol=terminate2;" parent="4WzS-DmeEoyS4PaNG3hT-220" vertex="1">
          <mxGeometry x="1638.5" y="170.93999999999983" width="43" height="43" as="geometry" />
        </mxCell>
        <mxCell id="C4s28Tt9ezzEZOHLFZrq-191" value="" style="endArrow=classic;html=1;rounded=0;exitX=0.5;exitY=1;exitDx=0;exitDy=0;exitPerimeter=0;entryX=0.5;entryY=0;entryDx=0;entryDy=0;entryPerimeter=0;" parent="4WzS-DmeEoyS4PaNG3hT-220" source="C4s28Tt9ezzEZOHLFZrq-88" target="C4s28Tt9ezzEZOHLFZrq-190" edge="1">
          <mxGeometry width="50" height="50" relative="1" as="geometry">
            <mxPoint x="1610" y="188.04999999999998" as="sourcePoint" />
            <mxPoint x="1660" y="138.04999999999998" as="targetPoint" />
          </mxGeometry>
        </mxCell>
        <mxCell id="C4s28Tt9ezzEZOHLFZrq-199" value="" style="endArrow=classic;html=1;rounded=0;exitX=0.5;exitY=0;exitDx=0;exitDy=0;exitPerimeter=0;entryX=0.75;entryY=0;entryDx=0;entryDy=0;entryPerimeter=0;edgeStyle=orthogonalEdgeStyle;" parent="4WzS-DmeEoyS4PaNG3hT-220" source="C4s28Tt9ezzEZOHLFZrq-187" target="C4s28Tt9ezzEZOHLFZrq-123" edge="1">
          <mxGeometry width="50" height="50" relative="1" as="geometry">
            <mxPoint x="2160" y="268.55" as="sourcePoint" />
            <mxPoint x="2210" y="218.54999999999998" as="targetPoint" />
            <Array as="points">
              <mxPoint x="2735" y="107" />
              <mxPoint x="1897" y="107" />
            </Array>
          </mxGeometry>
        </mxCell>
        <mxCell id="C4s28Tt9ezzEZOHLFZrq-204" value="Да" style="edgeLabel;html=1;align=center;verticalAlign=middle;resizable=0;points=[];" parent="C4s28Tt9ezzEZOHLFZrq-199" vertex="1" connectable="0">
          <mxGeometry x="-0.7804" relative="1" as="geometry">
            <mxPoint as="offset" />
          </mxGeometry>
        </mxCell>
        <mxCell id="C4s28Tt9ezzEZOHLFZrq-203" value="" style="endArrow=classic;html=1;rounded=0;exitX=0;exitY=0.5;exitDx=0;exitDy=0;exitPerimeter=0;entryX=0.5;entryY=1;entryDx=0;entryDy=0;entryPerimeter=0;edgeStyle=orthogonalEdgeStyle;" parent="4WzS-DmeEoyS4PaNG3hT-220" source="C4s28Tt9ezzEZOHLFZrq-187" target="RadHtaIhii_mX8Y8OVP0-33" edge="1">
          <mxGeometry width="50" height="50" relative="1" as="geometry">
            <mxPoint x="2390" y="297" as="sourcePoint" />
            <mxPoint x="2440" y="247" as="targetPoint" />
            <Array as="points">
              <mxPoint x="2250" y="165" />
              <mxPoint x="2250" y="397" />
              <mxPoint x="221" y="397" />
            </Array>
          </mxGeometry>
        </mxCell>
        <mxCell id="C4s28Tt9ezzEZOHLFZrq-205" value="Нет" style="edgeLabel;html=1;align=center;verticalAlign=middle;resizable=0;points=[];" parent="C4s28Tt9ezzEZOHLFZrq-203" vertex="1" connectable="0">
          <mxGeometry x="-0.9614" y="-1" relative="1" as="geometry">
            <mxPoint as="offset" />
          </mxGeometry>
        </mxCell>
        <mxCell id="C4s28Tt9ezzEZOHLFZrq-222" value="Набор окончен" style="text;html=1;align=center;verticalAlign=middle;whiteSpace=wrap;rounded=0;" parent="4WzS-DmeEoyS4PaNG3hT-220" vertex="1">
          <mxGeometry x="2832.25" y="243.94000000000005" width="98.5" height="30" as="geometry" />
        </mxCell>
        <mxCell id="C4s28Tt9ezzEZOHLFZrq-223" value="Заявка в&lt;div&gt;листе ожидания&lt;/div&gt;" style="text;html=1;align=center;verticalAlign=middle;whiteSpace=wrap;rounded=0;" parent="4WzS-DmeEoyS4PaNG3hT-220" vertex="1">
          <mxGeometry x="1610.75" y="213.94000000000005" width="98.5" height="30" as="geometry" />
        </mxCell>
        <mxCell id="4WzS-DmeEoyS4PaNG3hT-247" value="Тренеры" style="swimlane;html=1;startSize=20;horizontal=0;" parent="4WzS-DmeEoyS4PaNG3hT-209" vertex="1">
          <mxGeometry x="20" y="686.89" width="2940" height="170.00000000000045" as="geometry" />
        </mxCell>
        <mxCell id="C4s28Tt9ezzEZOHLFZrq-138" value="Ознакомление с информацией о проведении индивидуального отбора" style="points=[[0.25,0,0],[0.5,0,0],[0.75,0,0],[1,0.25,0],[1,0.5,0],[1,0.75,0],[0.75,1,0],[0.5,1,0],[0.25,1,0],[0,0.75,0],[0,0.5,0],[0,0.25,0]];shape=mxgraph.bpmn.task2;whiteSpace=wrap;rectStyle=rounded;size=10;html=1;container=1;expand=0;collapsible=0;taskMarker=abstract;" parent="4WzS-DmeEoyS4PaNG3hT-247" vertex="1">
          <mxGeometry x="1796" y="74" width="130" height="80" as="geometry" />
        </mxCell>
        <mxCell id="C4s28Tt9ezzEZOHLFZrq-139" value="" style="endArrow=blockThin;html=1;labelPosition=left;verticalLabelPosition=middle;align=right;verticalAlign=middle;dashed=1;dashPattern=8 4;endFill=0;startArrow=oval;startFill=0;endSize=6;startSize=4;rounded=0;exitX=0.462;exitY=1;exitDx=0;exitDy=0;exitPerimeter=0;" parent="C4s28Tt9ezzEZOHLFZrq-138" source="C4s28Tt9ezzEZOHLFZrq-123" edge="1">
          <mxGeometry relative="1" as="geometry">
            <mxPoint x="63.5" y="-87" as="sourcePoint" />
            <mxPoint x="64" as="targetPoint" />
          </mxGeometry>
        </mxCell>
        <mxCell id="C4s28Tt9ezzEZOHLFZrq-140" value="Уведомление&lt;div&gt;&lt;span style=&quot;background-color: light-dark(rgb(255, 255, 255), rgb(18, 18, 18)); color: light-dark(rgb(0, 0, 0), rgb(255, 255, 255));&quot;&gt;о&amp;nbsp;&lt;/span&gt;&lt;span style=&quot;color: light-dark(rgb(0, 0, 0), rgb(255, 255, 255)); background-color: light-dark(rgb(255, 255, 255), rgb(18, 18, 18));&quot;&gt;проведении&amp;nbsp;&lt;/span&gt;&lt;/div&gt;&lt;div&gt;&lt;span style=&quot;color: light-dark(rgb(0, 0, 0), rgb(255, 255, 255)); background-color: light-dark(rgb(255, 255, 255), rgb(18, 18, 18));&quot;&gt;отбора&lt;/span&gt;&lt;/div&gt;" style="shape=message;html=1;outlineConnect=0;labelPosition=left;verticalLabelPosition=middle;align=right;verticalAlign=middle;spacingRight=5;labelBackgroundColor=#ffffff;" parent="C4s28Tt9ezzEZOHLFZrq-139" vertex="1">
          <mxGeometry width="24" height="16" relative="1" as="geometry">
            <mxPoint x="5" y="23" as="offset" />
          </mxGeometry>
        </mxCell>
        <mxCell id="C4s28Tt9ezzEZOHLFZrq-141" value="Проведение индивидуального отбора" style="points=[[0.25,0,0],[0.5,0,0],[0.75,0,0],[1,0.25,0],[1,0.5,0],[1,0.75,0],[0.75,1,0],[0.5,1,0],[0.25,1,0],[0,0.75,0],[0,0.5,0],[0,0.25,0]];shape=mxgraph.bpmn.task2;whiteSpace=wrap;rectStyle=rounded;size=10;html=1;container=1;expand=0;collapsible=0;taskMarker=abstract;" parent="4WzS-DmeEoyS4PaNG3hT-247" vertex="1">
          <mxGeometry x="2160" y="73.00000000000045" width="122" height="81" as="geometry" />
        </mxCell>
        <mxCell id="C4s28Tt9ezzEZOHLFZrq-148" value="" style="endArrow=classic;html=1;rounded=0;entryX=0;entryY=0.5;entryDx=0;entryDy=0;entryPerimeter=0;exitX=1;exitY=0.5;exitDx=0;exitDy=0;exitPerimeter=0;" parent="4WzS-DmeEoyS4PaNG3hT-247" source="C4s28Tt9ezzEZOHLFZrq-138" target="C4s28Tt9ezzEZOHLFZrq-141" edge="1">
          <mxGeometry width="50" height="50" relative="1" as="geometry">
            <mxPoint x="1810" y="244" as="sourcePoint" />
            <mxPoint x="1860" y="194" as="targetPoint" />
          </mxGeometry>
        </mxCell>
        <mxCell id="C4s28Tt9ezzEZOHLFZrq-150" value="" style="endArrow=classic;html=1;rounded=0;exitX=1;exitY=0.5;exitDx=0;exitDy=0;exitPerimeter=0;entryX=0;entryY=0.5;entryDx=0;entryDy=0;entryPerimeter=0;" parent="4WzS-DmeEoyS4PaNG3hT-247" source="C4s28Tt9ezzEZOHLFZrq-141" edge="1">
          <mxGeometry width="50" height="50" relative="1" as="geometry">
            <mxPoint x="2270" y="34" as="sourcePoint" />
            <mxPoint x="2350" y="114.00000000000045" as="targetPoint" />
          </mxGeometry>
        </mxCell>
        <mxCell id="C4s28Tt9ezzEZOHLFZrq-157" value="Передача протокола с результатами отбора" style="points=[[0.25,0,0],[0.5,0,0],[0.75,0,0],[1,0.25,0],[1,0.5,0],[1,0.75,0],[0.75,1,0],[0.5,1,0],[0.25,1,0],[0,0.75,0],[0,0.5,0],[0,0.25,0]];shape=mxgraph.bpmn.task2;whiteSpace=wrap;rectStyle=rounded;size=10;html=1;container=1;expand=0;collapsible=0;taskMarker=abstract;" parent="4WzS-DmeEoyS4PaNG3hT-247" vertex="1">
          <mxGeometry x="2350" y="74.00000000000045" width="122" height="81" as="geometry" />
        </mxCell>
        <mxCell id="4WzS-DmeEoyS4PaNG3hT-270" value="Поступающие дети" style="swimlane;html=1;startSize=20;horizontal=0;" parent="4WzS-DmeEoyS4PaNG3hT-209" vertex="1">
          <mxGeometry x="20" y="856.8900000000004" width="2940" height="143" as="geometry" />
        </mxCell>
        <mxCell id="C4s28Tt9ezzEZOHLFZrq-20" value="Есть ли желание заниматься&lt;div&gt;&lt;span style=&quot;background-color: light-dark(rgb(255, 255, 255), rgb(18, 18, 18)); color: light-dark(rgb(0, 0, 0), rgb(255, 255, 255));&quot;&gt;спортивной акробатикой?&lt;/span&gt;&lt;/div&gt;" style="points=[[0.25,0.25,0],[0.5,0,0],[0.75,0.25,0],[1,0.5,0],[0.75,0.75,0],[0.5,1,0],[0.25,0.75,0],[0,0.5,0]];shape=mxgraph.bpmn.gateway2;html=1;verticalLabelPosition=bottom;labelBackgroundColor=#ffffff;verticalAlign=top;align=center;perimeter=rhombusPerimeter;outlineConnect=0;outline=none;symbol=none;gwType=exclusive;" parent="4WzS-DmeEoyS4PaNG3hT-270" vertex="1">
          <mxGeometry x="490" y="29" width="50" height="50" as="geometry" />
        </mxCell>
        <mxCell id="C4s28Tt9ezzEZOHLFZrq-26" value="" style="points=[[0.145,0.145,0],[0.5,0,0],[0.855,0.145,0],[1,0.5,0],[0.855,0.855,0],[0.5,1,0],[0.145,0.855,0],[0,0.5,0]];shape=mxgraph.bpmn.event;html=1;verticalLabelPosition=bottom;labelBackgroundColor=#ffffff;verticalAlign=top;align=center;perimeter=ellipsePerimeter;outlineConnect=0;aspect=fixed;outline=end;symbol=terminate2;" parent="4WzS-DmeEoyS4PaNG3hT-270" vertex="1">
          <mxGeometry x="600" y="89" width="43" height="43" as="geometry" />
        </mxCell>
        <mxCell id="C4s28Tt9ezzEZOHLFZrq-120" value="" style="endArrow=classic;html=1;rounded=0;exitX=0.75;exitY=0.75;exitDx=0;exitDy=0;exitPerimeter=0;entryX=0.5;entryY=0;entryDx=0;entryDy=0;entryPerimeter=0;edgeStyle=elbowEdgeStyle;elbow=vertical;" parent="4WzS-DmeEoyS4PaNG3hT-270" source="C4s28Tt9ezzEZOHLFZrq-20" target="C4s28Tt9ezzEZOHLFZrq-26" edge="1">
          <mxGeometry width="50" height="50" relative="1" as="geometry">
            <mxPoint x="670" y="44" as="sourcePoint" />
            <mxPoint x="720" y="-6" as="targetPoint" />
            <Array as="points">
              <mxPoint x="580" y="67" />
            </Array>
          </mxGeometry>
        </mxCell>
        <mxCell id="C4s28Tt9ezzEZOHLFZrq-135" value="Ознакомление с информацией о проведении отбора" style="points=[[0.25,0,0],[0.5,0,0],[0.75,0,0],[1,0.25,0],[1,0.5,0],[1,0.75,0],[0.75,1,0],[0.5,1,0],[0.25,1,0],[0,0.75,0],[0,0.5,0],[0,0.25,0]];shape=mxgraph.bpmn.task2;whiteSpace=wrap;rectStyle=rounded;size=10;html=1;container=1;expand=0;collapsible=0;taskMarker=abstract;" parent="4WzS-DmeEoyS4PaNG3hT-270" vertex="1">
          <mxGeometry x="1989" y="31.00000000000034" width="122" height="81" as="geometry" />
        </mxCell>
        <mxCell id="C4s28Tt9ezzEZOHLFZrq-146" value="Прохождение индивидуального отбора" style="points=[[0.25,0,0],[0.5,0,0],[0.75,0,0],[1,0.25,0],[1,0.5,0],[1,0.75,0],[0.75,1,0],[0.5,1,0],[0.25,1,0],[0,0.75,0],[0,0.5,0],[0,0.25,0]];shape=mxgraph.bpmn.task2;whiteSpace=wrap;rectStyle=rounded;size=10;html=1;container=1;expand=0;collapsible=0;taskMarker=abstract;" parent="4WzS-DmeEoyS4PaNG3hT-270" vertex="1">
          <mxGeometry x="2160" y="31.000000000000455" width="122" height="81" as="geometry" />
        </mxCell>
        <mxCell id="C4s28Tt9ezzEZOHLFZrq-147" value="" style="endArrow=classic;html=1;rounded=0;exitX=1;exitY=0.5;exitDx=0;exitDy=0;exitPerimeter=0;entryX=0;entryY=0.5;entryDx=0;entryDy=0;entryPerimeter=0;" parent="4WzS-DmeEoyS4PaNG3hT-270" source="C4s28Tt9ezzEZOHLFZrq-135" target="C4s28Tt9ezzEZOHLFZrq-146" edge="1">
          <mxGeometry width="50" height="50" relative="1" as="geometry">
            <mxPoint x="1980" y="44" as="sourcePoint" />
            <mxPoint x="2030" y="-6" as="targetPoint" />
          </mxGeometry>
        </mxCell>
        <mxCell id="C4s28Tt9ezzEZOHLFZrq-226" value="&lt;div style=&quot;&quot;&gt;&lt;span style=&quot;background-color: transparent; color: light-dark(rgb(0, 0, 0), rgb(255, 255, 255));&quot;&gt;Отказ ребенка&amp;nbsp;&lt;/span&gt;&lt;/div&gt;&lt;div style=&quot;&quot;&gt;&lt;span style=&quot;background-color: transparent; color: light-dark(rgb(0, 0, 0), rgb(255, 255, 255));&quot;&gt;от&amp;nbsp;&lt;/span&gt;&lt;span style=&quot;background-color: transparent; color: light-dark(rgb(0, 0, 0), rgb(255, 255, 255));&quot;&gt;подачи заявки&lt;/span&gt;&lt;/div&gt;" style="text;html=1;align=left;verticalAlign=middle;whiteSpace=wrap;rounded=0;" parent="4WzS-DmeEoyS4PaNG3hT-270" vertex="1">
          <mxGeometry x="630" y="63.109999999999545" width="98.5" height="30" as="geometry" />
        </mxCell>
        <mxCell id="C4s28Tt9ezzEZOHLFZrq-21" value="" style="endArrow=blockThin;html=1;labelPosition=left;verticalLabelPosition=middle;align=right;verticalAlign=middle;dashed=1;dashPattern=8 4;endFill=0;startArrow=oval;startFill=0;endSize=6;startSize=4;rounded=0;exitX=1;exitY=0.5;exitDx=0;exitDy=0;exitPerimeter=0;entryX=0.5;entryY=0;entryDx=0;entryDy=0;entryPerimeter=0;edgeStyle=orthogonalEdgeStyle;" parent="4WzS-DmeEoyS4PaNG3hT-209" source="C4s28Tt9ezzEZOHLFZrq-7" target="C4s28Tt9ezzEZOHLFZrq-20" edge="1">
          <mxGeometry relative="1" as="geometry">
            <mxPoint x="830" y="141" as="sourcePoint" />
            <mxPoint x="833" y="468" as="targetPoint" />
          </mxGeometry>
        </mxCell>
        <mxCell id="C4s28Tt9ezzEZOHLFZrq-22" value="Предложение о записи&lt;div&gt;в спортшколу&lt;/div&gt;" style="shape=message;html=1;outlineConnect=0;labelPosition=left;verticalLabelPosition=middle;align=right;verticalAlign=middle;spacingRight=5;labelBackgroundColor=#ffffff;" parent="C4s28Tt9ezzEZOHLFZrq-21" vertex="1">
          <mxGeometry width="24" height="16" relative="1" as="geometry">
            <mxPoint x="8" y="-6" as="offset" />
          </mxGeometry>
        </mxCell>
        <mxCell id="C4s28Tt9ezzEZOHLFZrq-131" value="Да" style="edgeLabel;html=1;align=center;verticalAlign=middle;resizable=0;points=[];" parent="C4s28Tt9ezzEZOHLFZrq-21" vertex="1" connectable="0">
          <mxGeometry x="-0.744" relative="1" as="geometry">
            <mxPoint as="offset" />
          </mxGeometry>
        </mxCell>
        <mxCell id="C4s28Tt9ezzEZOHLFZrq-32" value="" style="endArrow=blockThin;html=1;labelPosition=left;verticalLabelPosition=middle;align=right;verticalAlign=middle;dashed=1;dashPattern=8 4;endFill=0;startArrow=oval;startFill=0;endSize=6;startSize=4;rounded=0;exitX=1;exitY=0.5;exitDx=0;exitDy=0;exitPerimeter=0;edgeStyle=orthogonalEdgeStyle;entryX=0.5;entryY=1;entryDx=0;entryDy=0;entryPerimeter=0;" parent="4WzS-DmeEoyS4PaNG3hT-209" source="C4s28Tt9ezzEZOHLFZrq-20" target="C4s28Tt9ezzEZOHLFZrq-53" edge="1">
          <mxGeometry relative="1" as="geometry">
            <mxPoint x="530" y="725" as="sourcePoint" />
            <mxPoint x="640" y="190" as="targetPoint" />
          </mxGeometry>
        </mxCell>
        <mxCell id="C4s28Tt9ezzEZOHLFZrq-33" value="Согласие на&amp;nbsp;&lt;div&gt;занятие спортом&lt;/div&gt;" style="shape=message;html=1;outlineConnect=0;labelPosition=left;verticalLabelPosition=middle;align=right;verticalAlign=middle;spacingRight=5;labelBackgroundColor=#ffffff;" parent="C4s28Tt9ezzEZOHLFZrq-32" vertex="1">
          <mxGeometry width="24" height="16" relative="1" as="geometry">
            <mxPoint x="8" y="-6" as="offset" />
          </mxGeometry>
        </mxCell>
        <mxCell id="C4s28Tt9ezzEZOHLFZrq-49" value="" style="endArrow=blockThin;html=1;labelPosition=left;verticalLabelPosition=middle;align=right;verticalAlign=middle;dashed=1;dashPattern=8 4;endFill=0;startArrow=oval;startFill=0;endSize=6;startSize=4;rounded=0;exitX=0.5;exitY=0;exitDx=0;exitDy=0;exitPerimeter=0;entryX=0.5;entryY=1;entryDx=0;entryDy=0;entryPerimeter=0;" parent="4WzS-DmeEoyS4PaNG3hT-209" source="C4s28Tt9ezzEZOHLFZrq-44" target="C4s28Tt9ezzEZOHLFZrq-34" edge="1">
          <mxGeometry relative="1" as="geometry">
            <mxPoint x="1068" y="425.5" as="sourcePoint" />
            <mxPoint x="1210" y="41.5" as="targetPoint" />
          </mxGeometry>
        </mxCell>
        <mxCell id="C4s28Tt9ezzEZOHLFZrq-50" value="Уведомление об&lt;div&gt;исправлении заявки&lt;/div&gt;" style="shape=message;html=1;outlineConnect=0;labelPosition=left;verticalLabelPosition=middle;align=right;verticalAlign=middle;spacingRight=5;labelBackgroundColor=#ffffff;" parent="C4s28Tt9ezzEZOHLFZrq-49" vertex="1">
          <mxGeometry width="24" height="16" relative="1" as="geometry">
            <mxPoint x="8" y="-29" as="offset" />
          </mxGeometry>
        </mxCell>
        <mxCell id="C4s28Tt9ezzEZOHLFZrq-51" value="" style="endArrow=blockThin;html=1;labelPosition=left;verticalLabelPosition=middle;align=right;verticalAlign=middle;dashed=1;dashPattern=8 4;endFill=0;startArrow=oval;startFill=0;endSize=6;startSize=4;rounded=0;entryX=0.75;entryY=0;entryDx=0;entryDy=0;entryPerimeter=0;exitX=1;exitY=0.5;exitDx=0;exitDy=0;exitPerimeter=0;" parent="4WzS-DmeEoyS4PaNG3hT-209" source="C4s28Tt9ezzEZOHLFZrq-34" target="C4s28Tt9ezzEZOHLFZrq-17" edge="1">
          <mxGeometry relative="1" as="geometry">
            <mxPoint x="1205" y="-104" as="sourcePoint" />
            <mxPoint x="923" y="237" as="targetPoint" />
            <Array as="points">
              <mxPoint x="1290" y="147" />
              <mxPoint x="1290" y="80" />
              <mxPoint x="1290" y="40" />
              <mxPoint x="970" y="40" />
              <mxPoint x="970" y="360" />
              <mxPoint x="830" y="360" />
            </Array>
          </mxGeometry>
        </mxCell>
        <mxCell id="C4s28Tt9ezzEZOHLFZrq-52" value="Заявка&amp;nbsp;&lt;div&gt;на зачисление&lt;/div&gt;&lt;div&gt;ребенка&lt;/div&gt;" style="shape=message;html=1;outlineConnect=0;labelPosition=left;verticalLabelPosition=middle;align=right;verticalAlign=middle;spacingRight=5;labelBackgroundColor=#ffffff;" parent="C4s28Tt9ezzEZOHLFZrq-51" vertex="1">
          <mxGeometry width="24" height="16" relative="1" as="geometry">
            <mxPoint x="6" y="171" as="offset" />
          </mxGeometry>
        </mxCell>
        <mxCell id="C4s28Tt9ezzEZOHLFZrq-18" value="" style="endArrow=blockThin;html=1;labelPosition=left;verticalLabelPosition=middle;align=right;verticalAlign=middle;dashed=1;dashPattern=8 4;endFill=0;startArrow=oval;startFill=0;endSize=6;startSize=4;rounded=0;entryX=0.319;entryY=0.003;entryDx=0;entryDy=0;entryPerimeter=0;exitX=0.335;exitY=1.002;exitDx=0;exitDy=0;exitPerimeter=0;" parent="4WzS-DmeEoyS4PaNG3hT-209" source="C4s28Tt9ezzEZOHLFZrq-54" target="C4s28Tt9ezzEZOHLFZrq-17" edge="1">
          <mxGeometry relative="1" as="geometry">
            <mxPoint x="800" y="170" as="sourcePoint" />
            <mxPoint x="720" y="9" as="targetPoint" />
          </mxGeometry>
        </mxCell>
        <mxCell id="C4s28Tt9ezzEZOHLFZrq-19" value="Заявка&amp;nbsp;&lt;div&gt;&lt;span style=&quot;background-color: light-dark(rgb(255, 255, 255), rgb(18, 18, 18)); color: light-dark(rgb(0, 0, 0), rgb(255, 255, 255));&quot;&gt;на&amp;nbsp;&lt;/span&gt;&lt;span style=&quot;background-color: light-dark(rgb(255, 255, 255), rgb(18, 18, 18)); color: light-dark(rgb(0, 0, 0), rgb(255, 255, 255));&quot;&gt;зачисление&lt;/span&gt;&lt;div&gt;&lt;div&gt;&lt;span style=&quot;background-color: light-dark(rgb(255, 255, 255), rgb(18, 18, 18)); color: light-dark(rgb(0, 0, 0), rgb(255, 255, 255));&quot;&gt;&amp;nbsp;ребенка&lt;/span&gt;&lt;/div&gt;&lt;/div&gt;&lt;/div&gt;" style="shape=message;html=1;outlineConnect=0;labelPosition=left;verticalLabelPosition=middle;align=right;verticalAlign=middle;spacingRight=5;labelBackgroundColor=#ffffff;" parent="C4s28Tt9ezzEZOHLFZrq-18" vertex="1">
          <mxGeometry width="24" height="16" relative="1" as="geometry">
            <mxPoint x="7" y="13" as="offset" />
          </mxGeometry>
        </mxCell>
        <mxCell id="C4s28Tt9ezzEZOHLFZrq-74" value="" style="endArrow=blockThin;html=1;labelPosition=left;verticalLabelPosition=middle;align=right;verticalAlign=middle;dashed=1;dashPattern=8 4;endFill=0;startArrow=oval;startFill=0;endSize=6;startSize=4;rounded=0;exitX=0.5;exitY=0;exitDx=0;exitDy=0;exitPerimeter=0;" parent="4WzS-DmeEoyS4PaNG3hT-209" source="C4s28Tt9ezzEZOHLFZrq-68" edge="1">
          <mxGeometry relative="1" as="geometry">
            <mxPoint x="1495" y="531" as="sourcePoint" />
            <mxPoint x="1494" y="210" as="targetPoint" />
          </mxGeometry>
        </mxCell>
        <mxCell id="C4s28Tt9ezzEZOHLFZrq-75" value="Уведомление&lt;div&gt;&amp;nbsp;об&amp;nbsp;&lt;span style=&quot;background-color: light-dark(rgb(255, 255, 255), rgb(18, 18, 18)); color: light-dark(rgb(0, 0, 0), rgb(255, 255, 255));&quot;&gt;отсутствии&amp;nbsp;&lt;/span&gt;&lt;/div&gt;&lt;div&gt;&lt;span style=&quot;background-color: light-dark(rgb(255, 255, 255), rgb(18, 18, 18)); color: light-dark(rgb(0, 0, 0), rgb(255, 255, 255));&quot;&gt;свободных&amp;nbsp;&lt;/span&gt;&lt;span style=&quot;background-color: light-dark(rgb(255, 255, 255), rgb(18, 18, 18)); color: light-dark(rgb(0, 0, 0), rgb(255, 255, 255));&quot;&gt;мест&lt;/span&gt;&lt;/div&gt;" style="shape=message;html=1;outlineConnect=0;labelPosition=left;verticalLabelPosition=middle;align=right;verticalAlign=middle;spacingRight=5;labelBackgroundColor=#ffffff;" parent="C4s28Tt9ezzEZOHLFZrq-74" vertex="1">
          <mxGeometry width="24" height="16" relative="1" as="geometry">
            <mxPoint x="5" y="16" as="offset" />
          </mxGeometry>
        </mxCell>
        <mxCell id="C4s28Tt9ezzEZOHLFZrq-136" value="" style="endArrow=blockThin;html=1;labelPosition=left;verticalLabelPosition=middle;align=right;verticalAlign=middle;dashed=1;dashPattern=8 4;endFill=0;startArrow=oval;startFill=0;endSize=6;startSize=4;rounded=0;exitX=0.531;exitY=1;exitDx=0;exitDy=0;exitPerimeter=0;entryX=0.5;entryY=0;entryDx=0;entryDy=0;entryPerimeter=0;" parent="4WzS-DmeEoyS4PaNG3hT-209" source="C4s28Tt9ezzEZOHLFZrq-132" target="C4s28Tt9ezzEZOHLFZrq-135" edge="1">
          <mxGeometry relative="1" as="geometry">
            <mxPoint x="2067" y="179.8900000000001" as="sourcePoint" />
            <mxPoint x="1989" y="188.8900000000001" as="targetPoint" />
          </mxGeometry>
        </mxCell>
        <mxCell id="C4s28Tt9ezzEZOHLFZrq-137" value="Информация о&lt;div&gt;проведении&lt;/div&gt;&lt;div&gt;отбора&lt;/div&gt;" style="shape=message;html=1;outlineConnect=0;labelPosition=left;verticalLabelPosition=middle;align=right;verticalAlign=middle;spacingRight=5;labelBackgroundColor=#ffffff;" parent="C4s28Tt9ezzEZOHLFZrq-136" vertex="1">
          <mxGeometry width="24" height="16" relative="1" as="geometry">
            <mxPoint x="8" y="-6" as="offset" />
          </mxGeometry>
        </mxCell>
        <mxCell id="C4s28Tt9ezzEZOHLFZrq-154" value="" style="endArrow=blockThin;html=1;labelPosition=left;verticalLabelPosition=middle;align=right;verticalAlign=middle;dashed=1;dashPattern=8 4;endFill=0;startArrow=oval;startFill=0;endSize=6;startSize=4;rounded=0;exitX=0.5;exitY=0;exitDx=0;exitDy=0;exitPerimeter=0;entryX=0.5;entryY=1;entryDx=0;entryDy=0;entryPerimeter=0;" parent="4WzS-DmeEoyS4PaNG3hT-209" source="C4s28Tt9ezzEZOHLFZrq-157" target="C4s28Tt9ezzEZOHLFZrq-152" edge="1">
          <mxGeometry relative="1" as="geometry">
            <mxPoint x="2435" y="663.8905263157899" as="sourcePoint" />
            <mxPoint x="2431" y="650" as="targetPoint" />
          </mxGeometry>
        </mxCell>
        <mxCell id="C4s28Tt9ezzEZOHLFZrq-155" value="Протокол с&amp;nbsp;&lt;div&gt;результатами&amp;nbsp;&lt;/div&gt;&lt;div&gt;отбора&lt;/div&gt;" style="shape=message;html=1;outlineConnect=0;labelPosition=left;verticalLabelPosition=middle;align=right;verticalAlign=middle;spacingRight=5;labelBackgroundColor=#ffffff;" parent="C4s28Tt9ezzEZOHLFZrq-154" vertex="1">
          <mxGeometry width="24" height="16" relative="1" as="geometry">
            <mxPoint x="9" y="-40" as="offset" />
          </mxGeometry>
        </mxCell>
        <mxCell id="C4s28Tt9ezzEZOHLFZrq-160" value="" style="endArrow=block;html=1;rounded=0;exitX=0.5;exitY=0;exitDx=0;exitDy=0;exitPerimeter=0;entryX=0.5;entryY=1;entryDx=0;entryDy=0;entryPerimeter=0;dashed=1;endFill=0;" parent="4WzS-DmeEoyS4PaNG3hT-209" source="C4s28Tt9ezzEZOHLFZrq-146" target="C4s28Tt9ezzEZOHLFZrq-141" edge="1">
          <mxGeometry width="50" height="50" relative="1" as="geometry">
            <mxPoint x="2120" y="830" as="sourcePoint" />
            <mxPoint x="2170" y="780" as="targetPoint" />
          </mxGeometry>
        </mxCell>
        <mxCell id="C4s28Tt9ezzEZOHLFZrq-127" value="" style="endArrow=blockThin;html=1;labelPosition=left;verticalLabelPosition=middle;align=right;verticalAlign=middle;dashed=1;dashPattern=8 4;endFill=0;startArrow=oval;startFill=0;endSize=6;startSize=4;rounded=0;entryX=0.461;entryY=0.989;entryDx=0;entryDy=0;entryPerimeter=0;" parent="4WzS-DmeEoyS4PaNG3hT-209" target="C4s28Tt9ezzEZOHLFZrq-125" edge="1">
          <mxGeometry relative="1" as="geometry">
            <mxPoint x="1880" y="533" as="sourcePoint" />
            <mxPoint x="1880" y="210" as="targetPoint" />
          </mxGeometry>
        </mxCell>
        <mxCell id="C4s28Tt9ezzEZOHLFZrq-128" value="Уведомление&lt;div&gt;&amp;nbsp;о проведении&lt;/div&gt;&lt;div&gt;отбора&lt;/div&gt;" style="shape=message;html=1;outlineConnect=0;labelPosition=left;verticalLabelPosition=middle;align=right;verticalAlign=middle;spacingRight=5;labelBackgroundColor=#ffffff;" parent="C4s28Tt9ezzEZOHLFZrq-127" vertex="1">
          <mxGeometry width="24" height="16" relative="1" as="geometry">
            <mxPoint x="10" y="-69" as="offset" />
          </mxGeometry>
        </mxCell>
        <mxCell id="C4s28Tt9ezzEZOHLFZrq-207" value="" style="endArrow=blockThin;html=1;labelPosition=left;verticalLabelPosition=middle;align=right;verticalAlign=middle;dashed=1;dashPattern=8 4;endFill=0;startArrow=oval;startFill=0;endSize=6;startSize=4;rounded=0;entryX=0.5;entryY=1;entryDx=0;entryDy=0;entryPerimeter=0;exitX=0.5;exitY=0;exitDx=0;exitDy=0;exitPerimeter=0;" parent="4WzS-DmeEoyS4PaNG3hT-209" source="C4s28Tt9ezzEZOHLFZrq-161" target="C4s28Tt9ezzEZOHLFZrq-206" edge="1">
          <mxGeometry relative="1" as="geometry">
            <mxPoint x="2604.4700000000003" y="497.94000000000005" as="sourcePoint" />
            <mxPoint x="2604" y="160" as="targetPoint" />
          </mxGeometry>
        </mxCell>
        <mxCell id="C4s28Tt9ezzEZOHLFZrq-208" value="Уведомление&lt;div&gt;&amp;nbsp;о решении&lt;/div&gt;" style="shape=message;html=1;outlineConnect=0;labelPosition=left;verticalLabelPosition=middle;align=right;verticalAlign=middle;spacingRight=5;labelBackgroundColor=#ffffff;" parent="C4s28Tt9ezzEZOHLFZrq-207" vertex="1">
          <mxGeometry width="24" height="16" relative="1" as="geometry">
            <mxPoint x="5" y="-42" as="offset" />
          </mxGeometry>
        </mxCell>
        <mxCell id="C4s28Tt9ezzEZOHLFZrq-189" value="" style="endArrow=classic;html=1;rounded=0;exitX=0.5;exitY=0;exitDx=0;exitDy=0;exitPerimeter=0;" parent="1" source="C4s28Tt9ezzEZOHLFZrq-183" edge="1">
          <mxGeometry width="50" height="50" relative="1" as="geometry">
            <mxPoint x="3620" y="1801.0500000000002" as="sourcePoint" />
            <mxPoint x="3635" y="1690" as="targetPoint" />
          </mxGeometry>
        </mxCell>
      </root>
    </mxGraphModel>
  </diagram>
</mxfile>
